G04 #@! TF.GenerationSoftware,KiCad,Pcbnew,7.0.1-0*
G04 #@! TF.CreationDate,2023-11-21T08:42:51-06:00*
G04 #@! TF.ProjectId,kawari_twister,7669635f-7477-4697-9374-65722e6b6963,rev?*
G04 #@! TF.SameCoordinates,Original*
G04 #@! TF.FileFunction,Copper,L4,Bot*
G04 #@! TF.FilePolarity,Positive*
%FSLAX46Y46*%
G04 Gerber Fmt 4.6, Leading zero omitted, Abs format (unit mm)*
G04 Created by KiCad (PCBNEW 7.0.1-0) date 2023-11-21 08:42:51*
%MOMM*%
%LPD*%
G01*
G04 APERTURE LIST*
G04 #@! TA.AperFunction,ComponentPad*
%ADD10R,1.600000X1.600000*%
G04 #@! TD*
G04 #@! TA.AperFunction,ComponentPad*
%ADD11O,1.600000X1.600000*%
G04 #@! TD*
G04 #@! TA.AperFunction,ViaPad*
%ADD12C,0.800000*%
G04 #@! TD*
G04 #@! TA.AperFunction,Conductor*
%ADD13C,0.250000*%
G04 #@! TD*
G04 APERTURE END LIST*
D10*
X108432600Y-99720400D03*
D11*
X110972600Y-99720400D03*
X113512600Y-99720400D03*
X116052600Y-99720400D03*
X118592600Y-99720400D03*
X121132600Y-99720400D03*
X123672600Y-99720400D03*
X126212600Y-99720400D03*
X128752600Y-99720400D03*
X131292600Y-99720400D03*
X133832600Y-99720400D03*
X136372600Y-99720400D03*
X138912600Y-99720400D03*
X141452600Y-99720400D03*
X143992600Y-99720400D03*
X146532600Y-99720400D03*
X149072600Y-99720400D03*
X151612600Y-99720400D03*
X154152600Y-99720400D03*
X156692600Y-99720400D03*
X156692600Y-84480400D03*
X154152600Y-84480400D03*
X151612600Y-84480400D03*
X149072600Y-84480400D03*
X146532600Y-84480400D03*
X143992600Y-84480400D03*
X141452600Y-84480400D03*
X138912600Y-84480400D03*
X136372600Y-84480400D03*
X133832600Y-84480400D03*
X131292600Y-84480400D03*
X128752600Y-84480400D03*
X126212600Y-84480400D03*
X123672600Y-84480400D03*
X121132600Y-84480400D03*
X118592600Y-84480400D03*
X116052600Y-84480400D03*
X113512600Y-84480400D03*
X110972600Y-84480400D03*
X108432600Y-84480400D03*
D10*
X89890600Y-51308000D03*
D11*
X89890600Y-53848000D03*
X89890600Y-56388000D03*
X89890600Y-58928000D03*
X89890600Y-61468000D03*
X89890600Y-64008000D03*
X89890600Y-66548000D03*
X89890600Y-69088000D03*
X89890600Y-71628000D03*
X89890600Y-74168000D03*
X89890600Y-76708000D03*
X89890600Y-79248000D03*
X89890600Y-81788000D03*
X89890600Y-84328000D03*
X89890600Y-86868000D03*
X89890600Y-89408000D03*
X89890600Y-91948000D03*
X89890600Y-94488000D03*
X89890600Y-97028000D03*
X89890600Y-99568000D03*
X105130600Y-99568000D03*
X105130600Y-97028000D03*
X105130600Y-94488000D03*
X105130600Y-91948000D03*
X105130600Y-89408000D03*
X105130600Y-86868000D03*
X105130600Y-84328000D03*
X105130600Y-81788000D03*
X105130600Y-79248000D03*
X105130600Y-76708000D03*
X105130600Y-74168000D03*
X105130600Y-71628000D03*
X105130600Y-69088000D03*
X105130600Y-66548000D03*
X105130600Y-64008000D03*
X105130600Y-61468000D03*
X105130600Y-58928000D03*
X105130600Y-56388000D03*
X105130600Y-53848000D03*
X105130600Y-51308000D03*
D12*
X109563600Y-52657000D03*
X112230600Y-55146200D03*
X114782600Y-57658000D03*
X117322600Y-60198000D03*
X119774400Y-62588400D03*
X122289000Y-65103000D03*
X124942600Y-67818000D03*
X127470600Y-70259200D03*
X129985200Y-72900800D03*
X132499800Y-75415400D03*
X135141400Y-77980800D03*
X137706800Y-80419200D03*
X140094400Y-83035400D03*
X146507200Y-90678000D03*
X149047200Y-93218000D03*
X151600600Y-95758000D03*
X156692600Y-98280400D03*
X154166000Y-97030800D03*
X151600600Y-94465400D03*
X149060600Y-91950800D03*
X146520600Y-89410800D03*
X144006000Y-86870800D03*
X138926000Y-81790800D03*
X136360600Y-79276200D03*
X133795200Y-76710800D03*
X131280600Y-74145400D03*
X128740600Y-71630800D03*
X126226000Y-69065400D03*
X123686000Y-66525400D03*
X121120600Y-64010800D03*
X118580600Y-61470800D03*
X116040600Y-58905400D03*
X113500600Y-56416200D03*
X110884400Y-53850800D03*
X108432600Y-51308000D03*
X98196400Y-71602600D03*
X98196400Y-58801000D03*
X98196400Y-64058800D03*
X98196400Y-74142600D03*
X152831800Y-86817200D03*
X108331000Y-91821000D03*
X98196400Y-81813400D03*
X98171000Y-98298000D03*
X140944600Y-101625400D03*
X98196400Y-66573400D03*
X98171000Y-94462600D03*
X98196400Y-53848000D03*
X98196400Y-69011800D03*
X113436400Y-91821000D03*
X110896400Y-91821000D03*
X150291800Y-86893400D03*
X98196400Y-79248000D03*
X98184400Y-86870800D03*
X139039600Y-91821000D03*
X118643400Y-91821000D03*
X121005600Y-91821000D03*
X136550400Y-91821000D03*
X147675600Y-86969600D03*
X131191000Y-91846400D03*
X98196400Y-61341000D03*
X116027200Y-91821000D03*
X133883400Y-91846400D03*
X98196400Y-76682600D03*
X98196400Y-56337200D03*
X98171000Y-92075000D03*
X123571000Y-91821000D03*
X128651000Y-91846400D03*
X99161600Y-102082600D03*
X143560800Y-91821000D03*
X126212600Y-91821000D03*
D13*
X109702600Y-52796000D02*
X109563600Y-52657000D01*
X108432600Y-99720400D02*
X109702600Y-98450400D01*
X109702600Y-98450400D02*
X109702600Y-52796000D01*
X112242600Y-98450400D02*
X110972600Y-99720400D01*
X112230600Y-55146200D02*
X112242600Y-55158200D01*
X112242600Y-55158200D02*
X112242600Y-98450400D01*
X114782600Y-98450400D02*
X113512600Y-99720400D01*
X114782600Y-57658000D02*
X114782600Y-98450400D01*
X117322600Y-98450400D02*
X116052600Y-99720400D01*
X117322600Y-60198000D02*
X117322600Y-98450400D01*
X119862600Y-62676600D02*
X119862600Y-98450400D01*
X119862600Y-98450400D02*
X118592600Y-99720400D01*
X119774400Y-62588400D02*
X119862600Y-62676600D01*
X122402600Y-98450400D02*
X121132600Y-99720400D01*
X122402600Y-65216600D02*
X122402600Y-98450400D01*
X122289000Y-65103000D02*
X122402600Y-65216600D01*
X124942600Y-98450400D02*
X123672600Y-99720400D01*
X124942600Y-67782000D02*
X124942600Y-98450400D01*
X127470600Y-70259200D02*
X127470600Y-98462400D01*
X127470600Y-98462400D02*
X126212600Y-99720400D01*
X129985200Y-72900800D02*
X130022600Y-72938200D01*
X130022600Y-72938200D02*
X130022600Y-98450400D01*
X130022600Y-98450400D02*
X128752600Y-99720400D01*
X132499800Y-75415400D02*
X132562600Y-75478200D01*
X132562600Y-75478200D02*
X132562600Y-98450400D01*
X132562600Y-98450400D02*
X131292600Y-99720400D01*
X135102600Y-78019600D02*
X135102600Y-98450400D01*
X135141400Y-77980800D02*
X135102600Y-78019600D01*
X135102600Y-98450400D02*
X133832600Y-99720400D01*
X137642600Y-98450400D02*
X136372600Y-99720400D01*
X137642600Y-80483400D02*
X137642600Y-98450400D01*
X137706800Y-80419200D02*
X137642600Y-80483400D01*
X140182600Y-98450400D02*
X138912600Y-99720400D01*
X140094400Y-83035400D02*
X140182600Y-83123600D01*
X140182600Y-83123600D02*
X140182600Y-98450400D01*
X146532600Y-90691400D02*
X146532600Y-99720400D01*
X149072600Y-93436000D02*
X149072600Y-99720400D01*
X149035200Y-93398600D02*
X149072600Y-93436000D01*
X151600600Y-95913200D02*
X151612600Y-95925200D01*
X151612600Y-95925200D02*
X151612600Y-99720400D01*
X156692600Y-98280400D02*
X156692600Y-84480400D01*
X154166000Y-97030800D02*
X154152600Y-97017400D01*
X154152600Y-97017400D02*
X154152600Y-84480400D01*
X151612600Y-94453400D02*
X151612600Y-84480400D01*
X151600600Y-94465400D02*
X151612600Y-94453400D01*
X149072600Y-91938800D02*
X149072600Y-84480400D01*
X149060600Y-91950800D02*
X149072600Y-91938800D01*
X146532600Y-89398800D02*
X146532600Y-84480400D01*
X146520600Y-89410800D02*
X146532600Y-89398800D01*
X144006000Y-86870800D02*
X144006000Y-84493800D01*
X144006000Y-84493800D02*
X143992600Y-84480400D01*
X138926000Y-81790800D02*
X138912600Y-81804200D01*
X138912600Y-81804200D02*
X138912600Y-84480400D01*
X136360600Y-79276200D02*
X136372600Y-79288200D01*
X136372600Y-79288200D02*
X136372600Y-84480400D01*
X133795200Y-76710800D02*
X133832600Y-76748200D01*
X133832600Y-76748200D02*
X133832600Y-84480400D01*
X131292600Y-74157400D02*
X131292600Y-84480400D01*
X131280600Y-74145400D02*
X131292600Y-74157400D01*
X128752600Y-71642800D02*
X128752600Y-84480400D01*
X128740600Y-71630800D02*
X128752600Y-71642800D01*
X126226000Y-69065400D02*
X126212600Y-69078800D01*
X126212600Y-69078800D02*
X126212600Y-84480400D01*
X123672600Y-66538800D02*
X123672600Y-84480400D01*
X123686000Y-66525400D02*
X123672600Y-66538800D01*
X121132600Y-64022800D02*
X121132600Y-84480400D01*
X121120600Y-64010800D02*
X121132600Y-64022800D01*
X118592600Y-61482800D02*
X118592600Y-84480400D01*
X118580600Y-61470800D02*
X118592600Y-61482800D01*
X116040600Y-58905400D02*
X116052600Y-58917400D01*
X116052600Y-58917400D02*
X116052600Y-84480400D01*
X113512600Y-56428200D02*
X113512600Y-84480400D01*
X113500600Y-56416200D02*
X113512600Y-56428200D01*
X110972600Y-53939000D02*
X110972600Y-84480400D01*
X110884400Y-53850800D02*
X110972600Y-53939000D01*
X108432600Y-51308000D02*
X108432600Y-84480400D01*
G04 #@! TA.AperFunction,Conductor*
G36*
X155489225Y-85022949D02*
G01*
X155534982Y-85075125D01*
X155562031Y-85133133D01*
X155692553Y-85319540D01*
X155853459Y-85480446D01*
X156014223Y-85593013D01*
X156053089Y-85637331D01*
X156067100Y-85694588D01*
X156067100Y-97581713D01*
X156058864Y-97626151D01*
X156035252Y-97664682D01*
X156002145Y-97701451D01*
X155960064Y-97748186D01*
X155865420Y-97912115D01*
X155806926Y-98092142D01*
X155787140Y-98280399D01*
X155806926Y-98468657D01*
X155856756Y-98622016D01*
X155859399Y-98689281D01*
X155826507Y-98748015D01*
X155692938Y-98881584D01*
X155562463Y-99067922D01*
X155535256Y-99126266D01*
X155489499Y-99178441D01*
X155422874Y-99197860D01*
X155356250Y-99178440D01*
X155310493Y-99126265D01*
X155283167Y-99067664D01*
X155152646Y-98881259D01*
X154991740Y-98720353D01*
X154805335Y-98589832D01*
X154599097Y-98493661D01*
X154379289Y-98434764D01*
X154152600Y-98414931D01*
X153925910Y-98434764D01*
X153706102Y-98493661D01*
X153499864Y-98589832D01*
X153313459Y-98720353D01*
X153152553Y-98881259D01*
X153022033Y-99067663D01*
X152994982Y-99125675D01*
X152949225Y-99177850D01*
X152882600Y-99197269D01*
X152815975Y-99177850D01*
X152770218Y-99125675D01*
X152743287Y-99067922D01*
X152743168Y-99067666D01*
X152740987Y-99064551D01*
X152612646Y-98881259D01*
X152451740Y-98720353D01*
X152290977Y-98607787D01*
X152252111Y-98563469D01*
X152238100Y-98506212D01*
X152238100Y-96443360D01*
X152246336Y-96398922D01*
X152269950Y-96360388D01*
X152282009Y-96346995D01*
X152333133Y-96290216D01*
X152427779Y-96126284D01*
X152486274Y-95946256D01*
X152506060Y-95758000D01*
X152486274Y-95569744D01*
X152427779Y-95389716D01*
X152427779Y-95389715D01*
X152333135Y-95225787D01*
X152333134Y-95225786D01*
X152333133Y-95225784D01*
X152305118Y-95194670D01*
X152276952Y-95141699D01*
X152276952Y-95081701D01*
X152305118Y-95028729D01*
X152333133Y-94997616D01*
X152427779Y-94833684D01*
X152486274Y-94653656D01*
X152506060Y-94465400D01*
X152486274Y-94277144D01*
X152427779Y-94097116D01*
X152427779Y-94097115D01*
X152333133Y-93933184D01*
X152269950Y-93863012D01*
X152246336Y-93824478D01*
X152238100Y-93780040D01*
X152238100Y-85694588D01*
X152252111Y-85637331D01*
X152290977Y-85593013D01*
X152444355Y-85485617D01*
X152451739Y-85480447D01*
X152612647Y-85319539D01*
X152743168Y-85133134D01*
X152770218Y-85075124D01*
X152815975Y-85022949D01*
X152882600Y-85003529D01*
X152949225Y-85022949D01*
X152994982Y-85075125D01*
X153022031Y-85133133D01*
X153152553Y-85319540D01*
X153313459Y-85480446D01*
X153474223Y-85593013D01*
X153513089Y-85637331D01*
X153527100Y-85694588D01*
X153527100Y-96346995D01*
X153518864Y-96391433D01*
X153495251Y-96429964D01*
X153483191Y-96443360D01*
X153433464Y-96498586D01*
X153338820Y-96662515D01*
X153280326Y-96842542D01*
X153260540Y-97030799D01*
X153280326Y-97219057D01*
X153338820Y-97399084D01*
X153433466Y-97563016D01*
X153560129Y-97703689D01*
X153713269Y-97814951D01*
X153886197Y-97891944D01*
X154071352Y-97931300D01*
X154071354Y-97931300D01*
X154260646Y-97931300D01*
X154260648Y-97931300D01*
X154384083Y-97905062D01*
X154445803Y-97891944D01*
X154618730Y-97814951D01*
X154771871Y-97703688D01*
X154898533Y-97563016D01*
X154993179Y-97399084D01*
X155051674Y-97219056D01*
X155071460Y-97030800D01*
X155051674Y-96842544D01*
X154993179Y-96662516D01*
X154993179Y-96662515D01*
X154898535Y-96498586D01*
X154872808Y-96470014D01*
X154809947Y-96400200D01*
X154786336Y-96361669D01*
X154778100Y-96317231D01*
X154778100Y-85694588D01*
X154792111Y-85637331D01*
X154830977Y-85593013D01*
X154984355Y-85485617D01*
X154991739Y-85480447D01*
X155152647Y-85319539D01*
X155283168Y-85133134D01*
X155310218Y-85075124D01*
X155355975Y-85022949D01*
X155422600Y-85003529D01*
X155489225Y-85022949D01*
G37*
G04 #@! TD.AperFunction*
G04 #@! TA.AperFunction,Conductor*
G36*
X150409225Y-85022949D02*
G01*
X150454982Y-85075125D01*
X150482031Y-85133133D01*
X150612553Y-85319540D01*
X150773459Y-85480446D01*
X150934223Y-85593013D01*
X150973089Y-85637331D01*
X150987100Y-85694588D01*
X150987100Y-93753386D01*
X150978864Y-93797824D01*
X150955252Y-93836355D01*
X150915120Y-93880925D01*
X150868064Y-93933186D01*
X150773420Y-94097115D01*
X150714926Y-94277142D01*
X150695140Y-94465400D01*
X150714926Y-94653657D01*
X150773420Y-94833684D01*
X150868066Y-94997616D01*
X150896080Y-95028729D01*
X150924246Y-95081702D01*
X150924246Y-95141698D01*
X150896080Y-95194671D01*
X150868066Y-95225783D01*
X150773420Y-95389715D01*
X150714926Y-95569742D01*
X150695140Y-95758000D01*
X150714926Y-95946257D01*
X150773420Y-96126284D01*
X150868064Y-96290213D01*
X150868066Y-96290215D01*
X150868067Y-96290216D01*
X150955252Y-96387044D01*
X150978864Y-96425576D01*
X150987100Y-96470014D01*
X150987100Y-98506212D01*
X150973089Y-98563469D01*
X150934223Y-98607787D01*
X150773459Y-98720353D01*
X150612553Y-98881259D01*
X150482033Y-99067663D01*
X150454982Y-99125675D01*
X150409225Y-99177850D01*
X150342600Y-99197269D01*
X150275975Y-99177850D01*
X150230218Y-99125675D01*
X150203287Y-99067922D01*
X150203168Y-99067666D01*
X150200987Y-99064551D01*
X150072646Y-98881259D01*
X149911740Y-98720353D01*
X149750977Y-98607787D01*
X149712111Y-98563469D01*
X149698100Y-98506212D01*
X149698100Y-93888478D01*
X149706336Y-93844040D01*
X149729950Y-93805506D01*
X149779733Y-93750216D01*
X149874379Y-93586284D01*
X149906329Y-93487953D01*
X149932874Y-93406256D01*
X149952660Y-93218000D01*
X149932874Y-93029744D01*
X149874379Y-92849716D01*
X149874379Y-92849715D01*
X149779733Y-92685783D01*
X149769856Y-92674814D01*
X149741688Y-92621840D01*
X149741688Y-92561842D01*
X149769856Y-92508868D01*
X149793133Y-92483016D01*
X149887779Y-92319084D01*
X149934696Y-92174689D01*
X149946274Y-92139056D01*
X149966060Y-91950800D01*
X149946274Y-91762544D01*
X149887779Y-91582516D01*
X149887779Y-91582515D01*
X149793133Y-91418584D01*
X149729950Y-91348412D01*
X149706336Y-91309878D01*
X149698100Y-91265440D01*
X149698100Y-85694588D01*
X149712111Y-85637331D01*
X149750977Y-85593013D01*
X149904355Y-85485617D01*
X149911739Y-85480447D01*
X150072647Y-85319539D01*
X150203168Y-85133134D01*
X150230218Y-85075124D01*
X150275975Y-85022949D01*
X150342600Y-85003529D01*
X150409225Y-85022949D01*
G37*
G04 #@! TD.AperFunction*
G04 #@! TA.AperFunction,Conductor*
G36*
X147869225Y-85022949D02*
G01*
X147914982Y-85075125D01*
X147942031Y-85133133D01*
X148072553Y-85319540D01*
X148233459Y-85480446D01*
X148394223Y-85593013D01*
X148433089Y-85637331D01*
X148447100Y-85694588D01*
X148447100Y-91238786D01*
X148438864Y-91283224D01*
X148415252Y-91321755D01*
X148391191Y-91348478D01*
X148328064Y-91418586D01*
X148233420Y-91582515D01*
X148174926Y-91762542D01*
X148155140Y-91950800D01*
X148174926Y-92139057D01*
X148233420Y-92319084D01*
X148328064Y-92483013D01*
X148337944Y-92493985D01*
X148366110Y-92546958D01*
X148366111Y-92606953D01*
X148337947Y-92659927D01*
X148314667Y-92685783D01*
X148220020Y-92849715D01*
X148161526Y-93029742D01*
X148141740Y-93217999D01*
X148161526Y-93406257D01*
X148220020Y-93586284D01*
X148314666Y-93750216D01*
X148415250Y-93861925D01*
X148438864Y-93900459D01*
X148447100Y-93944897D01*
X148447100Y-98506212D01*
X148433089Y-98563469D01*
X148394223Y-98607787D01*
X148233459Y-98720353D01*
X148072553Y-98881259D01*
X147942033Y-99067663D01*
X147914982Y-99125675D01*
X147869225Y-99177850D01*
X147802600Y-99197269D01*
X147735975Y-99177850D01*
X147690218Y-99125675D01*
X147663287Y-99067922D01*
X147663168Y-99067666D01*
X147660987Y-99064551D01*
X147532646Y-98881259D01*
X147371740Y-98720353D01*
X147210977Y-98607787D01*
X147172111Y-98563469D01*
X147158100Y-98506212D01*
X147158100Y-91348478D01*
X147166336Y-91304040D01*
X147189950Y-91265506D01*
X147239733Y-91210216D01*
X147334379Y-91046284D01*
X147366329Y-90947953D01*
X147392874Y-90866256D01*
X147412660Y-90678000D01*
X147392874Y-90489744D01*
X147334379Y-90309716D01*
X147334379Y-90309715D01*
X147239733Y-90145783D01*
X147229856Y-90134814D01*
X147201688Y-90081840D01*
X147201688Y-90021842D01*
X147229856Y-89968868D01*
X147253133Y-89943016D01*
X147347779Y-89779084D01*
X147394696Y-89634689D01*
X147406274Y-89599056D01*
X147426060Y-89410800D01*
X147406274Y-89222544D01*
X147347779Y-89042516D01*
X147347779Y-89042515D01*
X147253133Y-88878584D01*
X147189950Y-88808412D01*
X147166336Y-88769878D01*
X147158100Y-88725440D01*
X147158100Y-85694588D01*
X147172111Y-85637331D01*
X147210977Y-85593013D01*
X147364355Y-85485617D01*
X147371739Y-85480447D01*
X147532647Y-85319539D01*
X147663168Y-85133134D01*
X147690218Y-85075124D01*
X147735975Y-85022949D01*
X147802600Y-85003529D01*
X147869225Y-85022949D01*
G37*
G04 #@! TD.AperFunction*
G04 #@! TA.AperFunction,Conductor*
G36*
X145329225Y-85022949D02*
G01*
X145374982Y-85075125D01*
X145402031Y-85133133D01*
X145532553Y-85319540D01*
X145693459Y-85480446D01*
X145854223Y-85593013D01*
X145893089Y-85637331D01*
X145907100Y-85694588D01*
X145907100Y-88698786D01*
X145898864Y-88743224D01*
X145875252Y-88781755D01*
X145835120Y-88826325D01*
X145788064Y-88878586D01*
X145693420Y-89042515D01*
X145634926Y-89222542D01*
X145615140Y-89410799D01*
X145634926Y-89599057D01*
X145693420Y-89779084D01*
X145788064Y-89943013D01*
X145797944Y-89953985D01*
X145826110Y-90006958D01*
X145826111Y-90066953D01*
X145797947Y-90119927D01*
X145774667Y-90145783D01*
X145680020Y-90309715D01*
X145621526Y-90489742D01*
X145601740Y-90678000D01*
X145621526Y-90866257D01*
X145680020Y-91046284D01*
X145774666Y-91210216D01*
X145875250Y-91321925D01*
X145898864Y-91360459D01*
X145907100Y-91404897D01*
X145907100Y-98506212D01*
X145893089Y-98563469D01*
X145854223Y-98607787D01*
X145693459Y-98720353D01*
X145532553Y-98881259D01*
X145402033Y-99067663D01*
X145374982Y-99125675D01*
X145329225Y-99177850D01*
X145262600Y-99197269D01*
X145195975Y-99177850D01*
X145150218Y-99125675D01*
X145123287Y-99067922D01*
X145123168Y-99067666D01*
X145120987Y-99064551D01*
X144992646Y-98881259D01*
X144831740Y-98720353D01*
X144645335Y-98589832D01*
X144439097Y-98493661D01*
X144219289Y-98434764D01*
X143992600Y-98414931D01*
X143765910Y-98434764D01*
X143546102Y-98493661D01*
X143339864Y-98589832D01*
X143153459Y-98720353D01*
X142992553Y-98881259D01*
X142862033Y-99067663D01*
X142834982Y-99125675D01*
X142789225Y-99177850D01*
X142722600Y-99197269D01*
X142655975Y-99177850D01*
X142610218Y-99125675D01*
X142583287Y-99067922D01*
X142583168Y-99067666D01*
X142580987Y-99064551D01*
X142452646Y-98881259D01*
X142291740Y-98720353D01*
X142105335Y-98589832D01*
X141899097Y-98493661D01*
X141679289Y-98434764D01*
X141452600Y-98414931D01*
X141225910Y-98434764D01*
X141006104Y-98493660D01*
X140993312Y-98499626D01*
X140984503Y-98503733D01*
X140923991Y-98515086D01*
X140865476Y-98495932D01*
X140823386Y-98450994D01*
X140808100Y-98391351D01*
X140808100Y-85809449D01*
X140823386Y-85749806D01*
X140865475Y-85704868D01*
X140923990Y-85685714D01*
X140984504Y-85697066D01*
X141006104Y-85707139D01*
X141225908Y-85766035D01*
X141452600Y-85785868D01*
X141679292Y-85766035D01*
X141899096Y-85707139D01*
X142105334Y-85610968D01*
X142291739Y-85480447D01*
X142452647Y-85319539D01*
X142583168Y-85133134D01*
X142610218Y-85075124D01*
X142655975Y-85022949D01*
X142722600Y-85003529D01*
X142789225Y-85022949D01*
X142834982Y-85075125D01*
X142862031Y-85133133D01*
X142992553Y-85319540D01*
X143153459Y-85480446D01*
X143327623Y-85602396D01*
X143366489Y-85646714D01*
X143380500Y-85703971D01*
X143380500Y-86172113D01*
X143372264Y-86216551D01*
X143348652Y-86255082D01*
X143315545Y-86291851D01*
X143273464Y-86338586D01*
X143178820Y-86502515D01*
X143120326Y-86682542D01*
X143100540Y-86870800D01*
X143120326Y-87059057D01*
X143178820Y-87239084D01*
X143273466Y-87403016D01*
X143400129Y-87543689D01*
X143553269Y-87654951D01*
X143726197Y-87731944D01*
X143911352Y-87771300D01*
X143911354Y-87771300D01*
X144100646Y-87771300D01*
X144100648Y-87771300D01*
X144224084Y-87745062D01*
X144285803Y-87731944D01*
X144458730Y-87654951D01*
X144611871Y-87543688D01*
X144738533Y-87403016D01*
X144833179Y-87239084D01*
X144891674Y-87059056D01*
X144911460Y-86870800D01*
X144891674Y-86682544D01*
X144833179Y-86502516D01*
X144833179Y-86502515D01*
X144738535Y-86338586D01*
X144725427Y-86324029D01*
X144663347Y-86255082D01*
X144639736Y-86216551D01*
X144631500Y-86172113D01*
X144631500Y-85685205D01*
X144645511Y-85627948D01*
X144684377Y-85583630D01*
X144824355Y-85485617D01*
X144831739Y-85480447D01*
X144992647Y-85319539D01*
X145123168Y-85133134D01*
X145150218Y-85075124D01*
X145195975Y-85022949D01*
X145262600Y-85003529D01*
X145329225Y-85022949D01*
G37*
G04 #@! TD.AperFunction*
G04 #@! TA.AperFunction,Conductor*
G36*
X128272504Y-85691472D02*
G01*
X128306099Y-85707137D01*
X128306100Y-85707137D01*
X128306104Y-85707139D01*
X128525908Y-85766035D01*
X128752600Y-85785868D01*
X128979292Y-85766035D01*
X129199096Y-85707139D01*
X129220695Y-85697066D01*
X129281210Y-85685714D01*
X129339725Y-85704868D01*
X129381814Y-85749806D01*
X129397100Y-85809449D01*
X129397100Y-98139947D01*
X129387661Y-98187400D01*
X129360783Y-98227625D01*
X129204826Y-98383582D01*
X129167421Y-98420987D01*
X129111834Y-98453080D01*
X129047647Y-98453080D01*
X128979290Y-98434764D01*
X128752599Y-98414931D01*
X128525910Y-98434764D01*
X128306099Y-98493662D01*
X128272504Y-98509328D01*
X128211990Y-98520680D01*
X128153475Y-98501526D01*
X128111386Y-98456589D01*
X128096100Y-98396946D01*
X128096100Y-85803854D01*
X128111386Y-85744211D01*
X128153475Y-85699274D01*
X128211990Y-85680120D01*
X128272504Y-85691472D01*
G37*
G04 #@! TD.AperFunction*
G04 #@! TA.AperFunction,Conductor*
G36*
X139499725Y-85704868D02*
G01*
X139541814Y-85749806D01*
X139557100Y-85809449D01*
X139557100Y-98139947D01*
X139547661Y-98187400D01*
X139520783Y-98227625D01*
X139364826Y-98383582D01*
X139327421Y-98420987D01*
X139271834Y-98453080D01*
X139207647Y-98453080D01*
X139139290Y-98434764D01*
X138912599Y-98414931D01*
X138685910Y-98434764D01*
X138466104Y-98493660D01*
X138453312Y-98499626D01*
X138444503Y-98503733D01*
X138383991Y-98515086D01*
X138325476Y-98495932D01*
X138283386Y-98450994D01*
X138268100Y-98391351D01*
X138268100Y-85809449D01*
X138283386Y-85749806D01*
X138325475Y-85704868D01*
X138383990Y-85685714D01*
X138444504Y-85697066D01*
X138466104Y-85707139D01*
X138685908Y-85766035D01*
X138912600Y-85785868D01*
X139139292Y-85766035D01*
X139359096Y-85707139D01*
X139380695Y-85697066D01*
X139441210Y-85685714D01*
X139499725Y-85704868D01*
G37*
G04 #@! TD.AperFunction*
G04 #@! TA.AperFunction,Conductor*
G36*
X136959725Y-85704868D02*
G01*
X137001814Y-85749806D01*
X137017100Y-85809449D01*
X137017100Y-98139947D01*
X137007661Y-98187400D01*
X136980783Y-98227625D01*
X136824826Y-98383582D01*
X136787421Y-98420987D01*
X136731834Y-98453080D01*
X136667647Y-98453080D01*
X136599290Y-98434764D01*
X136372599Y-98414931D01*
X136145910Y-98434764D01*
X135926104Y-98493660D01*
X135913312Y-98499626D01*
X135904503Y-98503733D01*
X135843991Y-98515086D01*
X135785476Y-98495932D01*
X135743386Y-98450994D01*
X135728100Y-98391351D01*
X135728100Y-85809449D01*
X135743386Y-85749806D01*
X135785475Y-85704868D01*
X135843990Y-85685714D01*
X135904504Y-85697066D01*
X135926104Y-85707139D01*
X136145908Y-85766035D01*
X136372600Y-85785868D01*
X136599292Y-85766035D01*
X136819096Y-85707139D01*
X136840695Y-85697066D01*
X136901210Y-85685714D01*
X136959725Y-85704868D01*
G37*
G04 #@! TD.AperFunction*
G04 #@! TA.AperFunction,Conductor*
G36*
X134419725Y-85704868D02*
G01*
X134461814Y-85749806D01*
X134477100Y-85809449D01*
X134477100Y-98139947D01*
X134467661Y-98187400D01*
X134440783Y-98227625D01*
X134284826Y-98383582D01*
X134247421Y-98420987D01*
X134191834Y-98453080D01*
X134127647Y-98453080D01*
X134059290Y-98434764D01*
X133832599Y-98414931D01*
X133605910Y-98434764D01*
X133386104Y-98493660D01*
X133373312Y-98499626D01*
X133364503Y-98503733D01*
X133303991Y-98515086D01*
X133245476Y-98495932D01*
X133203386Y-98450994D01*
X133188100Y-98391351D01*
X133188100Y-85809449D01*
X133203386Y-85749806D01*
X133245475Y-85704868D01*
X133303990Y-85685714D01*
X133364504Y-85697066D01*
X133386104Y-85707139D01*
X133605908Y-85766035D01*
X133832600Y-85785868D01*
X134059292Y-85766035D01*
X134279096Y-85707139D01*
X134300695Y-85697066D01*
X134361210Y-85685714D01*
X134419725Y-85704868D01*
G37*
G04 #@! TD.AperFunction*
G04 #@! TA.AperFunction,Conductor*
G36*
X131879725Y-85704868D02*
G01*
X131921814Y-85749806D01*
X131937100Y-85809449D01*
X131937100Y-98139947D01*
X131927661Y-98187400D01*
X131900783Y-98227625D01*
X131744826Y-98383582D01*
X131707421Y-98420987D01*
X131651834Y-98453080D01*
X131587647Y-98453080D01*
X131519290Y-98434764D01*
X131292599Y-98414931D01*
X131065910Y-98434764D01*
X130846104Y-98493660D01*
X130833312Y-98499626D01*
X130824503Y-98503733D01*
X130763991Y-98515086D01*
X130705476Y-98495932D01*
X130663386Y-98450994D01*
X130648100Y-98391351D01*
X130648100Y-85809449D01*
X130663386Y-85749806D01*
X130705475Y-85704868D01*
X130763990Y-85685714D01*
X130824504Y-85697066D01*
X130846104Y-85707139D01*
X131065908Y-85766035D01*
X131292600Y-85785868D01*
X131519292Y-85766035D01*
X131739096Y-85707139D01*
X131760695Y-85697066D01*
X131821210Y-85685714D01*
X131879725Y-85704868D01*
G37*
G04 #@! TD.AperFunction*
G04 #@! TA.AperFunction,Conductor*
G36*
X125744504Y-85697066D02*
G01*
X125766104Y-85707139D01*
X125985908Y-85766035D01*
X126212600Y-85785868D01*
X126439292Y-85766035D01*
X126659096Y-85707139D01*
X126668695Y-85702662D01*
X126729209Y-85691310D01*
X126787725Y-85710464D01*
X126829814Y-85755402D01*
X126845100Y-85815045D01*
X126845100Y-98151947D01*
X126835661Y-98199400D01*
X126808781Y-98239628D01*
X126750409Y-98298000D01*
X126627421Y-98420987D01*
X126571834Y-98453080D01*
X126507647Y-98453080D01*
X126439290Y-98434764D01*
X126212599Y-98414931D01*
X125985910Y-98434764D01*
X125766104Y-98493660D01*
X125753312Y-98499626D01*
X125744503Y-98503733D01*
X125683991Y-98515086D01*
X125625476Y-98495932D01*
X125583386Y-98450994D01*
X125568100Y-98391351D01*
X125568100Y-85809449D01*
X125583386Y-85749806D01*
X125625475Y-85704868D01*
X125683990Y-85685714D01*
X125744504Y-85697066D01*
G37*
G04 #@! TD.AperFunction*
G04 #@! TA.AperFunction,Conductor*
G36*
X124259725Y-85704868D02*
G01*
X124301814Y-85749806D01*
X124317100Y-85809449D01*
X124317100Y-98139947D01*
X124307661Y-98187400D01*
X124280783Y-98227625D01*
X124124826Y-98383582D01*
X124087421Y-98420987D01*
X124031834Y-98453080D01*
X123967647Y-98453080D01*
X123899290Y-98434764D01*
X123672599Y-98414931D01*
X123445910Y-98434764D01*
X123226104Y-98493660D01*
X123213312Y-98499626D01*
X123204503Y-98503733D01*
X123143991Y-98515086D01*
X123085476Y-98495932D01*
X123043386Y-98450994D01*
X123028100Y-98391351D01*
X123028100Y-85809449D01*
X123043386Y-85749806D01*
X123085475Y-85704868D01*
X123143990Y-85685714D01*
X123204504Y-85697066D01*
X123226104Y-85707139D01*
X123445908Y-85766035D01*
X123672600Y-85785868D01*
X123899292Y-85766035D01*
X124119096Y-85707139D01*
X124140695Y-85697066D01*
X124201210Y-85685714D01*
X124259725Y-85704868D01*
G37*
G04 #@! TD.AperFunction*
G04 #@! TA.AperFunction,Conductor*
G36*
X121719725Y-85704868D02*
G01*
X121761814Y-85749806D01*
X121777100Y-85809449D01*
X121777100Y-98139947D01*
X121767661Y-98187400D01*
X121740783Y-98227625D01*
X121584826Y-98383582D01*
X121547421Y-98420987D01*
X121491834Y-98453080D01*
X121427647Y-98453080D01*
X121359290Y-98434764D01*
X121132599Y-98414931D01*
X120905910Y-98434764D01*
X120686104Y-98493660D01*
X120673312Y-98499626D01*
X120664503Y-98503733D01*
X120603991Y-98515086D01*
X120545476Y-98495932D01*
X120503386Y-98450994D01*
X120488100Y-98391351D01*
X120488100Y-85809449D01*
X120503386Y-85749806D01*
X120545475Y-85704868D01*
X120603990Y-85685714D01*
X120664504Y-85697066D01*
X120686104Y-85707139D01*
X120905908Y-85766035D01*
X121132600Y-85785868D01*
X121359292Y-85766035D01*
X121579096Y-85707139D01*
X121600695Y-85697066D01*
X121661210Y-85685714D01*
X121719725Y-85704868D01*
G37*
G04 #@! TD.AperFunction*
G04 #@! TA.AperFunction,Conductor*
G36*
X119179725Y-85704868D02*
G01*
X119221814Y-85749806D01*
X119237100Y-85809449D01*
X119237100Y-98139947D01*
X119227661Y-98187400D01*
X119200783Y-98227625D01*
X119044826Y-98383582D01*
X119007421Y-98420987D01*
X118951834Y-98453080D01*
X118887647Y-98453080D01*
X118819290Y-98434764D01*
X118592599Y-98414931D01*
X118365910Y-98434764D01*
X118146104Y-98493660D01*
X118133312Y-98499626D01*
X118124503Y-98503733D01*
X118063991Y-98515086D01*
X118005476Y-98495932D01*
X117963386Y-98450994D01*
X117948100Y-98391351D01*
X117948100Y-85809449D01*
X117963386Y-85749806D01*
X118005475Y-85704868D01*
X118063990Y-85685714D01*
X118124504Y-85697066D01*
X118146104Y-85707139D01*
X118365908Y-85766035D01*
X118592600Y-85785868D01*
X118819292Y-85766035D01*
X119039096Y-85707139D01*
X119060695Y-85697066D01*
X119121210Y-85685714D01*
X119179725Y-85704868D01*
G37*
G04 #@! TD.AperFunction*
G04 #@! TA.AperFunction,Conductor*
G36*
X116639725Y-85704868D02*
G01*
X116681814Y-85749806D01*
X116697100Y-85809449D01*
X116697100Y-98139947D01*
X116687661Y-98187400D01*
X116660783Y-98227625D01*
X116504826Y-98383582D01*
X116467421Y-98420987D01*
X116411834Y-98453080D01*
X116347647Y-98453080D01*
X116279290Y-98434764D01*
X116052599Y-98414931D01*
X115825910Y-98434764D01*
X115606104Y-98493660D01*
X115593312Y-98499626D01*
X115584503Y-98503733D01*
X115523991Y-98515086D01*
X115465476Y-98495932D01*
X115423386Y-98450994D01*
X115408100Y-98391351D01*
X115408100Y-85809449D01*
X115423386Y-85749806D01*
X115465475Y-85704868D01*
X115523990Y-85685714D01*
X115584504Y-85697066D01*
X115606104Y-85707139D01*
X115825908Y-85766035D01*
X116052600Y-85785868D01*
X116279292Y-85766035D01*
X116499096Y-85707139D01*
X116520695Y-85697066D01*
X116581210Y-85685714D01*
X116639725Y-85704868D01*
G37*
G04 #@! TD.AperFunction*
G04 #@! TA.AperFunction,Conductor*
G36*
X114099725Y-85704868D02*
G01*
X114141814Y-85749806D01*
X114157100Y-85809449D01*
X114157100Y-98139947D01*
X114147661Y-98187400D01*
X114120783Y-98227625D01*
X113964826Y-98383582D01*
X113927421Y-98420987D01*
X113871834Y-98453080D01*
X113807647Y-98453080D01*
X113739290Y-98434764D01*
X113512599Y-98414931D01*
X113285910Y-98434764D01*
X113066104Y-98493660D01*
X113053312Y-98499626D01*
X113044503Y-98503733D01*
X112983991Y-98515086D01*
X112925476Y-98495932D01*
X112883386Y-98450994D01*
X112868100Y-98391351D01*
X112868100Y-85809449D01*
X112883386Y-85749806D01*
X112925475Y-85704868D01*
X112983990Y-85685714D01*
X113044504Y-85697066D01*
X113066104Y-85707139D01*
X113285908Y-85766035D01*
X113512600Y-85785868D01*
X113739292Y-85766035D01*
X113959096Y-85707139D01*
X113980695Y-85697066D01*
X114041210Y-85685714D01*
X114099725Y-85704868D01*
G37*
G04 #@! TD.AperFunction*
G04 #@! TA.AperFunction,Conductor*
G36*
X111559725Y-85704868D02*
G01*
X111601814Y-85749806D01*
X111617100Y-85809449D01*
X111617100Y-98139947D01*
X111607661Y-98187400D01*
X111580783Y-98227625D01*
X111424826Y-98383582D01*
X111387421Y-98420987D01*
X111331834Y-98453080D01*
X111267647Y-98453080D01*
X111199290Y-98434764D01*
X110972599Y-98414931D01*
X110745910Y-98434764D01*
X110526104Y-98493660D01*
X110513312Y-98499626D01*
X110504503Y-98503733D01*
X110443991Y-98515086D01*
X110385476Y-98495932D01*
X110343386Y-98450994D01*
X110328100Y-98391351D01*
X110328100Y-85809449D01*
X110343386Y-85749806D01*
X110385475Y-85704868D01*
X110443990Y-85685714D01*
X110504504Y-85697066D01*
X110526104Y-85707139D01*
X110745908Y-85766035D01*
X110972600Y-85785868D01*
X111199292Y-85766035D01*
X111419096Y-85707139D01*
X111440695Y-85697066D01*
X111501210Y-85685714D01*
X111559725Y-85704868D01*
G37*
G04 #@! TD.AperFunction*
G04 #@! TA.AperFunction,Conductor*
G36*
X159326300Y-49017113D02*
G01*
X159371687Y-49062500D01*
X159388300Y-49124500D01*
X159388300Y-103075500D01*
X159371687Y-103137500D01*
X159326300Y-103182887D01*
X159264300Y-103199500D01*
X88116500Y-103199500D01*
X88054500Y-103182887D01*
X88009113Y-103137500D01*
X87992500Y-103075500D01*
X87992500Y-99818000D01*
X88611728Y-99818000D01*
X88664333Y-100014326D01*
X88760465Y-100220480D01*
X88890941Y-100406819D01*
X89051780Y-100567658D01*
X89238119Y-100698134D01*
X89444273Y-100794266D01*
X89640599Y-100846871D01*
X89640600Y-100846872D01*
X89640600Y-99818000D01*
X90140600Y-99818000D01*
X90140600Y-100846871D01*
X90336926Y-100794266D01*
X90543080Y-100698134D01*
X90729419Y-100567658D01*
X90890258Y-100406819D01*
X91020734Y-100220480D01*
X91116866Y-100014326D01*
X91169472Y-99818000D01*
X90140600Y-99818000D01*
X89640600Y-99818000D01*
X88611728Y-99818000D01*
X87992500Y-99818000D01*
X87992500Y-99568000D01*
X103825131Y-99568000D01*
X103844964Y-99794689D01*
X103903861Y-100014497D01*
X104000032Y-100220735D01*
X104130553Y-100407140D01*
X104291459Y-100568046D01*
X104477864Y-100698567D01*
X104477865Y-100698567D01*
X104477866Y-100698568D01*
X104684104Y-100794739D01*
X104903908Y-100853635D01*
X105130600Y-100873468D01*
X105357292Y-100853635D01*
X105577096Y-100794739D01*
X105783334Y-100698568D01*
X105969739Y-100568047D01*
X106130647Y-100407139D01*
X106261168Y-100220734D01*
X106357339Y-100014496D01*
X106416235Y-99794692D01*
X106436068Y-99568000D01*
X106416235Y-99341308D01*
X106357339Y-99121504D01*
X106261168Y-98915266D01*
X106237356Y-98881259D01*
X106130646Y-98728859D01*
X105969740Y-98567953D01*
X105783333Y-98437431D01*
X105725913Y-98410656D01*
X105725324Y-98410381D01*
X105673149Y-98364625D01*
X105653729Y-98298000D01*
X105673149Y-98231375D01*
X105725325Y-98185618D01*
X105783334Y-98158568D01*
X105969739Y-98028047D01*
X106130647Y-97867139D01*
X106261168Y-97680734D01*
X106357339Y-97474496D01*
X106416235Y-97254692D01*
X106436068Y-97028000D01*
X106416235Y-96801308D01*
X106357339Y-96581504D01*
X106261168Y-96375266D01*
X106251647Y-96361669D01*
X106130646Y-96188859D01*
X105969740Y-96027953D01*
X105783333Y-95897431D01*
X105725325Y-95870382D01*
X105673149Y-95824625D01*
X105653729Y-95758000D01*
X105673149Y-95691375D01*
X105725325Y-95645618D01*
X105783334Y-95618568D01*
X105969739Y-95488047D01*
X106130647Y-95327139D01*
X106261168Y-95140734D01*
X106357339Y-94934496D01*
X106416235Y-94714692D01*
X106436068Y-94488000D01*
X106416235Y-94261308D01*
X106357339Y-94041504D01*
X106261168Y-93835266D01*
X106253614Y-93824478D01*
X106130646Y-93648859D01*
X105969740Y-93487953D01*
X105783333Y-93357431D01*
X105725325Y-93330382D01*
X105673149Y-93284625D01*
X105653729Y-93218000D01*
X105673149Y-93151375D01*
X105725325Y-93105618D01*
X105783334Y-93078568D01*
X105969739Y-92948047D01*
X106130647Y-92787139D01*
X106261168Y-92600734D01*
X106357339Y-92394496D01*
X106416235Y-92174692D01*
X106436068Y-91948000D01*
X106416235Y-91721308D01*
X106357339Y-91501504D01*
X106261168Y-91295266D01*
X106252736Y-91283224D01*
X106130646Y-91108859D01*
X105969740Y-90947953D01*
X105783333Y-90817431D01*
X105725325Y-90790382D01*
X105673149Y-90744625D01*
X105653729Y-90678000D01*
X105673149Y-90611375D01*
X105725325Y-90565618D01*
X105783334Y-90538568D01*
X105969739Y-90408047D01*
X106130647Y-90247139D01*
X106261168Y-90060734D01*
X106357339Y-89854496D01*
X106416235Y-89634692D01*
X106436068Y-89408000D01*
X106416235Y-89181308D01*
X106357339Y-88961504D01*
X106261168Y-88755266D01*
X106252736Y-88743224D01*
X106130646Y-88568859D01*
X105969740Y-88407953D01*
X105783332Y-88277430D01*
X105725324Y-88250380D01*
X105673149Y-88204623D01*
X105653730Y-88137997D01*
X105673150Y-88071373D01*
X105725321Y-88025619D01*
X105783334Y-87998568D01*
X105969739Y-87868047D01*
X106130647Y-87707139D01*
X106261168Y-87520734D01*
X106357339Y-87314496D01*
X106416235Y-87094692D01*
X106436068Y-86868000D01*
X106416235Y-86641308D01*
X106357339Y-86421504D01*
X106261168Y-86215266D01*
X106230952Y-86172113D01*
X106130646Y-86028859D01*
X105969740Y-85867953D01*
X105783336Y-85737433D01*
X105725323Y-85710381D01*
X105673148Y-85664623D01*
X105653729Y-85597997D01*
X105673149Y-85531372D01*
X105725321Y-85485619D01*
X105783334Y-85458568D01*
X105969739Y-85328047D01*
X106130647Y-85167139D01*
X106261168Y-84980734D01*
X106357339Y-84774496D01*
X106416235Y-84554692D01*
X106422735Y-84480400D01*
X107127131Y-84480400D01*
X107146964Y-84707089D01*
X107205861Y-84926897D01*
X107302032Y-85133135D01*
X107432553Y-85319540D01*
X107593459Y-85480446D01*
X107779864Y-85610967D01*
X107779865Y-85610967D01*
X107779866Y-85610968D01*
X107986104Y-85707139D01*
X108205908Y-85766035D01*
X108432600Y-85785868D01*
X108659292Y-85766035D01*
X108879096Y-85707139D01*
X108900695Y-85697066D01*
X108961210Y-85685714D01*
X109019725Y-85704868D01*
X109061814Y-85749806D01*
X109077100Y-85809449D01*
X109077100Y-98139947D01*
X109067661Y-98187400D01*
X109040783Y-98227625D01*
X108884824Y-98383583D01*
X108844599Y-98410461D01*
X108797146Y-98419900D01*
X107584730Y-98419900D01*
X107525115Y-98426309D01*
X107390269Y-98476604D01*
X107275054Y-98562854D01*
X107188804Y-98678068D01*
X107138509Y-98812916D01*
X107132100Y-98872530D01*
X107132100Y-100568269D01*
X107138509Y-100627883D01*
X107188804Y-100762731D01*
X107275054Y-100877946D01*
X107390269Y-100964196D01*
X107525117Y-101014491D01*
X107584727Y-101020900D01*
X109280472Y-101020899D01*
X109340083Y-101014491D01*
X109474931Y-100964196D01*
X109590146Y-100877946D01*
X109676396Y-100762731D01*
X109726691Y-100627883D01*
X109730462Y-100592805D01*
X109750839Y-100536886D01*
X109794928Y-100496901D01*
X109852569Y-100482067D01*
X109910482Y-100495800D01*
X109955325Y-100534937D01*
X109972551Y-100559538D01*
X110133459Y-100720446D01*
X110319864Y-100850967D01*
X110319865Y-100850967D01*
X110319866Y-100850968D01*
X110526104Y-100947139D01*
X110745908Y-101006035D01*
X110972600Y-101025868D01*
X111199292Y-101006035D01*
X111419096Y-100947139D01*
X111625334Y-100850968D01*
X111811739Y-100720447D01*
X111972647Y-100559539D01*
X112103168Y-100373134D01*
X112130218Y-100315124D01*
X112175975Y-100262949D01*
X112242600Y-100243529D01*
X112309225Y-100262949D01*
X112354982Y-100315125D01*
X112382031Y-100373133D01*
X112512553Y-100559540D01*
X112673459Y-100720446D01*
X112859864Y-100850967D01*
X112859865Y-100850967D01*
X112859866Y-100850968D01*
X113066104Y-100947139D01*
X113285908Y-101006035D01*
X113512600Y-101025868D01*
X113739292Y-101006035D01*
X113959096Y-100947139D01*
X114165334Y-100850968D01*
X114351739Y-100720447D01*
X114512647Y-100559539D01*
X114643168Y-100373134D01*
X114670218Y-100315124D01*
X114715975Y-100262949D01*
X114782600Y-100243529D01*
X114849225Y-100262949D01*
X114894982Y-100315125D01*
X114922031Y-100373133D01*
X115052553Y-100559540D01*
X115213459Y-100720446D01*
X115399864Y-100850967D01*
X115399865Y-100850967D01*
X115399866Y-100850968D01*
X115606104Y-100947139D01*
X115825908Y-101006035D01*
X116052600Y-101025868D01*
X116279292Y-101006035D01*
X116499096Y-100947139D01*
X116705334Y-100850968D01*
X116891739Y-100720447D01*
X117052647Y-100559539D01*
X117183168Y-100373134D01*
X117210218Y-100315124D01*
X117255975Y-100262949D01*
X117322600Y-100243529D01*
X117389225Y-100262949D01*
X117434982Y-100315125D01*
X117462031Y-100373133D01*
X117592553Y-100559540D01*
X117753459Y-100720446D01*
X117939864Y-100850967D01*
X117939865Y-100850967D01*
X117939866Y-100850968D01*
X118146104Y-100947139D01*
X118365908Y-101006035D01*
X118592600Y-101025868D01*
X118819292Y-101006035D01*
X119039096Y-100947139D01*
X119245334Y-100850968D01*
X119431739Y-100720447D01*
X119592647Y-100559539D01*
X119723168Y-100373134D01*
X119750218Y-100315124D01*
X119795975Y-100262949D01*
X119862600Y-100243529D01*
X119929225Y-100262949D01*
X119974982Y-100315125D01*
X120002031Y-100373133D01*
X120132553Y-100559540D01*
X120293459Y-100720446D01*
X120479864Y-100850967D01*
X120479865Y-100850967D01*
X120479866Y-100850968D01*
X120686104Y-100947139D01*
X120905908Y-101006035D01*
X121132600Y-101025868D01*
X121359292Y-101006035D01*
X121579096Y-100947139D01*
X121785334Y-100850968D01*
X121971739Y-100720447D01*
X122132647Y-100559539D01*
X122263168Y-100373134D01*
X122290218Y-100315124D01*
X122335975Y-100262949D01*
X122402600Y-100243529D01*
X122469225Y-100262949D01*
X122514982Y-100315125D01*
X122542031Y-100373133D01*
X122672553Y-100559540D01*
X122833459Y-100720446D01*
X123019864Y-100850967D01*
X123019865Y-100850967D01*
X123019866Y-100850968D01*
X123226104Y-100947139D01*
X123445908Y-101006035D01*
X123672600Y-101025868D01*
X123899292Y-101006035D01*
X124119096Y-100947139D01*
X124325334Y-100850968D01*
X124511739Y-100720447D01*
X124672647Y-100559539D01*
X124803168Y-100373134D01*
X124830218Y-100315124D01*
X124875975Y-100262949D01*
X124942600Y-100243529D01*
X125009225Y-100262949D01*
X125054982Y-100315125D01*
X125082031Y-100373133D01*
X125212553Y-100559540D01*
X125373459Y-100720446D01*
X125559864Y-100850967D01*
X125559865Y-100850967D01*
X125559866Y-100850968D01*
X125766104Y-100947139D01*
X125985908Y-101006035D01*
X126212600Y-101025868D01*
X126439292Y-101006035D01*
X126659096Y-100947139D01*
X126865334Y-100850968D01*
X127051739Y-100720447D01*
X127212647Y-100559539D01*
X127343168Y-100373134D01*
X127370218Y-100315124D01*
X127415975Y-100262949D01*
X127482600Y-100243529D01*
X127549225Y-100262949D01*
X127594982Y-100315125D01*
X127622031Y-100373133D01*
X127752553Y-100559540D01*
X127913459Y-100720446D01*
X128099864Y-100850967D01*
X128099865Y-100850967D01*
X128099866Y-100850968D01*
X128306104Y-100947139D01*
X128525908Y-101006035D01*
X128752600Y-101025868D01*
X128979292Y-101006035D01*
X129199096Y-100947139D01*
X129405334Y-100850968D01*
X129591739Y-100720447D01*
X129752647Y-100559539D01*
X129883168Y-100373134D01*
X129910218Y-100315124D01*
X129955975Y-100262949D01*
X130022600Y-100243529D01*
X130089225Y-100262949D01*
X130134982Y-100315125D01*
X130162031Y-100373133D01*
X130292553Y-100559540D01*
X130453459Y-100720446D01*
X130639864Y-100850967D01*
X130639865Y-100850967D01*
X130639866Y-100850968D01*
X130846104Y-100947139D01*
X131065908Y-101006035D01*
X131292600Y-101025868D01*
X131519292Y-101006035D01*
X131739096Y-100947139D01*
X131945334Y-100850968D01*
X132131739Y-100720447D01*
X132292647Y-100559539D01*
X132423168Y-100373134D01*
X132450218Y-100315124D01*
X132495975Y-100262949D01*
X132562600Y-100243529D01*
X132629225Y-100262949D01*
X132674982Y-100315125D01*
X132702031Y-100373133D01*
X132832553Y-100559540D01*
X132993459Y-100720446D01*
X133179864Y-100850967D01*
X133179865Y-100850967D01*
X133179866Y-100850968D01*
X133386104Y-100947139D01*
X133605908Y-101006035D01*
X133832600Y-101025868D01*
X134059292Y-101006035D01*
X134279096Y-100947139D01*
X134485334Y-100850968D01*
X134671739Y-100720447D01*
X134832647Y-100559539D01*
X134963168Y-100373134D01*
X134990218Y-100315124D01*
X135035975Y-100262949D01*
X135102600Y-100243529D01*
X135169225Y-100262949D01*
X135214982Y-100315125D01*
X135242031Y-100373133D01*
X135372553Y-100559540D01*
X135533459Y-100720446D01*
X135719864Y-100850967D01*
X135719865Y-100850967D01*
X135719866Y-100850968D01*
X135926104Y-100947139D01*
X136145908Y-101006035D01*
X136372600Y-101025868D01*
X136599292Y-101006035D01*
X136819096Y-100947139D01*
X137025334Y-100850968D01*
X137211739Y-100720447D01*
X137372647Y-100559539D01*
X137503168Y-100373134D01*
X137530218Y-100315124D01*
X137575975Y-100262949D01*
X137642600Y-100243529D01*
X137709225Y-100262949D01*
X137754982Y-100315125D01*
X137782031Y-100373133D01*
X137912553Y-100559540D01*
X138073459Y-100720446D01*
X138259864Y-100850967D01*
X138259865Y-100850967D01*
X138259866Y-100850968D01*
X138466104Y-100947139D01*
X138685908Y-101006035D01*
X138912600Y-101025868D01*
X139139292Y-101006035D01*
X139359096Y-100947139D01*
X139565334Y-100850968D01*
X139751739Y-100720447D01*
X139912647Y-100559539D01*
X140043168Y-100373134D01*
X140070218Y-100315124D01*
X140115975Y-100262949D01*
X140182600Y-100243529D01*
X140249225Y-100262949D01*
X140294982Y-100315125D01*
X140322031Y-100373133D01*
X140452553Y-100559540D01*
X140613459Y-100720446D01*
X140799864Y-100850967D01*
X140799865Y-100850967D01*
X140799866Y-100850968D01*
X141006104Y-100947139D01*
X141225908Y-101006035D01*
X141452600Y-101025868D01*
X141679292Y-101006035D01*
X141899096Y-100947139D01*
X142105334Y-100850968D01*
X142291739Y-100720447D01*
X142452647Y-100559539D01*
X142583168Y-100373134D01*
X142610218Y-100315124D01*
X142655975Y-100262949D01*
X142722600Y-100243529D01*
X142789225Y-100262949D01*
X142834982Y-100315125D01*
X142862031Y-100373133D01*
X142992553Y-100559540D01*
X143153459Y-100720446D01*
X143339864Y-100850967D01*
X143339865Y-100850967D01*
X143339866Y-100850968D01*
X143546104Y-100947139D01*
X143765908Y-101006035D01*
X143992600Y-101025868D01*
X144219292Y-101006035D01*
X144439096Y-100947139D01*
X144645334Y-100850968D01*
X144831739Y-100720447D01*
X144992647Y-100559539D01*
X145123168Y-100373134D01*
X145150218Y-100315124D01*
X145195975Y-100262949D01*
X145262600Y-100243529D01*
X145329225Y-100262949D01*
X145374982Y-100315125D01*
X145402031Y-100373133D01*
X145532553Y-100559540D01*
X145693459Y-100720446D01*
X145879864Y-100850967D01*
X145879865Y-100850967D01*
X145879866Y-100850968D01*
X146086104Y-100947139D01*
X146305908Y-101006035D01*
X146532600Y-101025868D01*
X146759292Y-101006035D01*
X146979096Y-100947139D01*
X147185334Y-100850968D01*
X147371739Y-100720447D01*
X147532647Y-100559539D01*
X147663168Y-100373134D01*
X147690218Y-100315124D01*
X147735975Y-100262949D01*
X147802600Y-100243529D01*
X147869225Y-100262949D01*
X147914982Y-100315125D01*
X147942031Y-100373133D01*
X148072553Y-100559540D01*
X148233459Y-100720446D01*
X148419864Y-100850967D01*
X148419865Y-100850967D01*
X148419866Y-100850968D01*
X148626104Y-100947139D01*
X148845908Y-101006035D01*
X149072600Y-101025868D01*
X149299292Y-101006035D01*
X149519096Y-100947139D01*
X149725334Y-100850968D01*
X149911739Y-100720447D01*
X150072647Y-100559539D01*
X150203168Y-100373134D01*
X150230218Y-100315124D01*
X150275975Y-100262949D01*
X150342600Y-100243529D01*
X150409225Y-100262949D01*
X150454982Y-100315125D01*
X150482031Y-100373133D01*
X150612553Y-100559540D01*
X150773459Y-100720446D01*
X150959864Y-100850967D01*
X150959865Y-100850967D01*
X150959866Y-100850968D01*
X151166104Y-100947139D01*
X151385908Y-101006035D01*
X151612600Y-101025868D01*
X151839292Y-101006035D01*
X152059096Y-100947139D01*
X152265334Y-100850968D01*
X152451739Y-100720447D01*
X152612647Y-100559539D01*
X152743168Y-100373134D01*
X152770218Y-100315124D01*
X152815975Y-100262949D01*
X152882600Y-100243529D01*
X152949225Y-100262949D01*
X152994982Y-100315125D01*
X153022031Y-100373133D01*
X153152553Y-100559540D01*
X153313459Y-100720446D01*
X153499864Y-100850967D01*
X153499865Y-100850967D01*
X153499866Y-100850968D01*
X153706104Y-100947139D01*
X153925908Y-101006035D01*
X154152600Y-101025868D01*
X154379292Y-101006035D01*
X154599096Y-100947139D01*
X154805334Y-100850968D01*
X154991739Y-100720447D01*
X155152647Y-100559539D01*
X155283168Y-100373134D01*
X155310493Y-100314534D01*
X155356249Y-100262359D01*
X155422874Y-100242939D01*
X155489499Y-100262358D01*
X155535257Y-100314533D01*
X155562466Y-100372882D01*
X155692941Y-100559219D01*
X155853780Y-100720058D01*
X156040119Y-100850534D01*
X156246273Y-100946666D01*
X156442599Y-100999271D01*
X156442600Y-100999272D01*
X156442600Y-99970400D01*
X156942600Y-99970400D01*
X156942600Y-100999271D01*
X157138926Y-100946666D01*
X157345080Y-100850534D01*
X157531419Y-100720058D01*
X157692258Y-100559219D01*
X157822734Y-100372880D01*
X157918866Y-100166726D01*
X157971472Y-99970400D01*
X156942600Y-99970400D01*
X156442600Y-99970400D01*
X156442600Y-99594400D01*
X156459213Y-99532400D01*
X156504600Y-99487013D01*
X156566600Y-99470400D01*
X157971472Y-99470400D01*
X157971471Y-99470399D01*
X157918866Y-99274073D01*
X157822734Y-99067919D01*
X157692261Y-98881584D01*
X157558692Y-98748014D01*
X157525800Y-98689280D01*
X157528442Y-98622019D01*
X157578274Y-98468656D01*
X157598060Y-98280400D01*
X157578274Y-98092144D01*
X157547932Y-97998763D01*
X157519779Y-97912115D01*
X157425135Y-97748186D01*
X157385069Y-97703689D01*
X157349947Y-97664682D01*
X157326336Y-97626151D01*
X157318100Y-97581713D01*
X157318100Y-85694588D01*
X157332111Y-85637331D01*
X157370977Y-85593013D01*
X157524355Y-85485617D01*
X157531739Y-85480447D01*
X157692647Y-85319539D01*
X157823168Y-85133134D01*
X157919339Y-84926896D01*
X157978235Y-84707092D01*
X157998068Y-84480400D01*
X157978235Y-84253708D01*
X157919339Y-84033904D01*
X157823168Y-83827666D01*
X157716457Y-83675266D01*
X157692646Y-83641259D01*
X157531740Y-83480353D01*
X157345335Y-83349832D01*
X157139097Y-83253661D01*
X156919289Y-83194764D01*
X156692600Y-83174931D01*
X156465910Y-83194764D01*
X156246102Y-83253661D01*
X156039864Y-83349832D01*
X155853459Y-83480353D01*
X155692553Y-83641259D01*
X155562033Y-83827663D01*
X155534982Y-83885675D01*
X155489225Y-83937850D01*
X155422600Y-83957269D01*
X155355975Y-83937850D01*
X155310218Y-83885675D01*
X155308272Y-83881502D01*
X155283168Y-83827666D01*
X155283166Y-83827663D01*
X155152646Y-83641259D01*
X154991740Y-83480353D01*
X154805335Y-83349832D01*
X154599097Y-83253661D01*
X154379289Y-83194764D01*
X154152600Y-83174931D01*
X153925910Y-83194764D01*
X153706102Y-83253661D01*
X153499864Y-83349832D01*
X153313459Y-83480353D01*
X153152553Y-83641259D01*
X153022033Y-83827663D01*
X152994982Y-83885675D01*
X152949225Y-83937850D01*
X152882600Y-83957269D01*
X152815975Y-83937850D01*
X152770218Y-83885675D01*
X152768272Y-83881502D01*
X152743168Y-83827666D01*
X152743166Y-83827663D01*
X152612646Y-83641259D01*
X152451740Y-83480353D01*
X152265335Y-83349832D01*
X152059097Y-83253661D01*
X151839289Y-83194764D01*
X151612600Y-83174931D01*
X151385910Y-83194764D01*
X151166102Y-83253661D01*
X150959864Y-83349832D01*
X150773459Y-83480353D01*
X150612553Y-83641259D01*
X150482033Y-83827663D01*
X150454982Y-83885675D01*
X150409225Y-83937850D01*
X150342600Y-83957269D01*
X150275975Y-83937850D01*
X150230218Y-83885675D01*
X150228272Y-83881502D01*
X150203168Y-83827666D01*
X150203166Y-83827663D01*
X150072646Y-83641259D01*
X149911740Y-83480353D01*
X149725335Y-83349832D01*
X149519097Y-83253661D01*
X149299289Y-83194764D01*
X149072600Y-83174931D01*
X148845910Y-83194764D01*
X148626102Y-83253661D01*
X148419864Y-83349832D01*
X148233459Y-83480353D01*
X148072553Y-83641259D01*
X147942033Y-83827663D01*
X147914982Y-83885675D01*
X147869225Y-83937850D01*
X147802600Y-83957269D01*
X147735975Y-83937850D01*
X147690218Y-83885675D01*
X147688272Y-83881502D01*
X147663168Y-83827666D01*
X147663166Y-83827663D01*
X147532646Y-83641259D01*
X147371740Y-83480353D01*
X147185335Y-83349832D01*
X146979097Y-83253661D01*
X146759289Y-83194764D01*
X146532600Y-83174931D01*
X146305910Y-83194764D01*
X146086102Y-83253661D01*
X145879864Y-83349832D01*
X145693459Y-83480353D01*
X145532553Y-83641259D01*
X145402033Y-83827663D01*
X145374982Y-83885675D01*
X145329225Y-83937850D01*
X145262600Y-83957269D01*
X145195975Y-83937850D01*
X145150218Y-83885675D01*
X145148272Y-83881502D01*
X145123168Y-83827666D01*
X145123166Y-83827663D01*
X144992646Y-83641259D01*
X144831740Y-83480353D01*
X144645335Y-83349832D01*
X144439097Y-83253661D01*
X144219289Y-83194764D01*
X143992600Y-83174931D01*
X143765910Y-83194764D01*
X143546102Y-83253661D01*
X143339864Y-83349832D01*
X143153459Y-83480353D01*
X142992553Y-83641259D01*
X142862033Y-83827663D01*
X142834982Y-83885675D01*
X142789225Y-83937850D01*
X142722600Y-83957269D01*
X142655975Y-83937850D01*
X142610218Y-83885675D01*
X142608272Y-83881502D01*
X142583168Y-83827666D01*
X142583166Y-83827663D01*
X142452646Y-83641259D01*
X142291740Y-83480353D01*
X142105335Y-83349832D01*
X141899097Y-83253661D01*
X141679289Y-83194764D01*
X141452600Y-83174931D01*
X141225908Y-83194764D01*
X141150347Y-83215011D01*
X141090887Y-83216178D01*
X141037722Y-83189526D01*
X141003082Y-83141185D01*
X140994933Y-83082275D01*
X140999860Y-83035400D01*
X140980074Y-82847144D01*
X140921579Y-82667116D01*
X140921579Y-82667115D01*
X140826933Y-82503183D01*
X140700270Y-82362510D01*
X140547130Y-82251248D01*
X140374202Y-82174255D01*
X140189048Y-82134900D01*
X140189046Y-82134900D01*
X139999754Y-82134900D01*
X139953405Y-82144751D01*
X139889305Y-82141390D01*
X139835473Y-82106429D01*
X139806334Y-82049235D01*
X139809696Y-81985141D01*
X139811674Y-81979056D01*
X139831460Y-81790800D01*
X139811674Y-81602544D01*
X139753179Y-81422516D01*
X139753179Y-81422515D01*
X139658533Y-81258583D01*
X139531870Y-81117910D01*
X139378730Y-81006648D01*
X139205802Y-80929655D01*
X139020648Y-80890300D01*
X139020646Y-80890300D01*
X138831354Y-80890300D01*
X138783941Y-80900377D01*
X138686112Y-80921171D01*
X138622013Y-80917811D01*
X138568182Y-80882852D01*
X138539042Y-80825660D01*
X138542400Y-80761564D01*
X138592474Y-80607456D01*
X138612260Y-80419200D01*
X138592474Y-80230944D01*
X138533979Y-80050916D01*
X138533979Y-80050915D01*
X138439333Y-79886983D01*
X138312670Y-79746310D01*
X138159530Y-79635048D01*
X137986602Y-79558055D01*
X137801448Y-79518700D01*
X137801446Y-79518700D01*
X137612154Y-79518700D01*
X137612152Y-79518700D01*
X137426998Y-79558054D01*
X137423286Y-79559708D01*
X137359889Y-79569749D01*
X137299965Y-79546746D01*
X137259571Y-79496863D01*
X137249530Y-79433470D01*
X137266060Y-79276200D01*
X137246274Y-79087944D01*
X137187779Y-78907916D01*
X137187779Y-78907915D01*
X137093133Y-78743983D01*
X136966470Y-78603310D01*
X136813330Y-78492048D01*
X136640402Y-78415055D01*
X136455248Y-78375700D01*
X136455246Y-78375700D01*
X136265954Y-78375700D01*
X136265952Y-78375700D01*
X136147309Y-78400918D01*
X136083210Y-78397559D01*
X136029378Y-78362600D01*
X136000238Y-78305409D01*
X136003597Y-78241310D01*
X136027074Y-78169056D01*
X136046860Y-77980800D01*
X136027074Y-77792544D01*
X135968579Y-77612516D01*
X135968579Y-77612515D01*
X135873933Y-77448583D01*
X135747270Y-77307910D01*
X135594130Y-77196648D01*
X135421202Y-77119655D01*
X135236048Y-77080300D01*
X135236046Y-77080300D01*
X135046754Y-77080300D01*
X135046752Y-77080300D01*
X134861596Y-77119655D01*
X134820936Y-77137758D01*
X134765308Y-77148369D01*
X134710763Y-77133139D01*
X134668679Y-77095245D01*
X134647832Y-77042591D01*
X134652570Y-76986164D01*
X134680874Y-76899056D01*
X134700660Y-76710800D01*
X134680874Y-76522544D01*
X134622379Y-76342516D01*
X134622379Y-76342515D01*
X134527733Y-76178583D01*
X134401070Y-76037910D01*
X134247930Y-75926648D01*
X134075002Y-75849655D01*
X133889848Y-75810300D01*
X133889846Y-75810300D01*
X133700554Y-75810300D01*
X133700552Y-75810300D01*
X133502649Y-75852365D01*
X133502120Y-75849878D01*
X133468826Y-75856221D01*
X133414290Y-75840984D01*
X133372215Y-75803088D01*
X133351374Y-75750438D01*
X133356113Y-75694017D01*
X133385474Y-75603656D01*
X133405260Y-75415400D01*
X133385474Y-75227144D01*
X133326979Y-75047116D01*
X133326979Y-75047115D01*
X133232333Y-74883183D01*
X133105670Y-74742510D01*
X132952530Y-74631248D01*
X132779602Y-74554255D01*
X132594448Y-74514900D01*
X132594446Y-74514900D01*
X132405154Y-74514900D01*
X132379175Y-74520421D01*
X132295372Y-74538234D01*
X132231272Y-74534874D01*
X132177441Y-74499914D01*
X132148301Y-74442722D01*
X132151661Y-74378627D01*
X132166274Y-74333656D01*
X132186060Y-74145400D01*
X132166274Y-73957144D01*
X132107779Y-73777116D01*
X132107779Y-73777115D01*
X132013133Y-73613183D01*
X131886470Y-73472510D01*
X131733330Y-73361248D01*
X131560402Y-73284255D01*
X131375248Y-73244900D01*
X131375246Y-73244900D01*
X131185954Y-73244900D01*
X131185951Y-73244900D01*
X131003185Y-73283747D01*
X130939086Y-73280388D01*
X130885254Y-73245429D01*
X130856114Y-73188237D01*
X130859473Y-73124142D01*
X130870874Y-73089056D01*
X130890660Y-72900800D01*
X130870874Y-72712544D01*
X130812379Y-72532516D01*
X130812379Y-72532515D01*
X130717733Y-72368583D01*
X130591070Y-72227910D01*
X130437930Y-72116648D01*
X130265002Y-72039655D01*
X130079848Y-72000300D01*
X130079846Y-72000300D01*
X129890554Y-72000300D01*
X129890551Y-72000300D01*
X129753488Y-72029433D01*
X129689389Y-72026074D01*
X129635557Y-71991114D01*
X129606417Y-71933923D01*
X129606918Y-71924364D01*
X143027387Y-71924364D01*
X143057013Y-72193616D01*
X143074574Y-72260786D01*
X143125528Y-72455688D01*
X143198773Y-72628047D01*
X143231471Y-72704992D01*
X143372582Y-72936211D01*
X143528976Y-73124138D01*
X143545855Y-73144420D01*
X143747598Y-73325182D01*
X143973510Y-73474644D01*
X144060160Y-73515264D01*
X144218777Y-73589621D01*
X144478162Y-73667658D01*
X144478169Y-73667660D01*
X144746161Y-73707100D01*
X144949231Y-73707100D01*
X144949234Y-73707100D01*
X145151756Y-73692277D01*
X145151755Y-73692277D01*
X145416153Y-73633380D01*
X145669158Y-73536614D01*
X145905377Y-73404041D01*
X146119777Y-73238488D01*
X146307786Y-73043481D01*
X146465399Y-72823179D01*
X146589256Y-72582275D01*
X146676718Y-72325905D01*
X146725919Y-72059533D01*
X146735812Y-71788835D01*
X146706186Y-71519582D01*
X146637672Y-71257512D01*
X146531730Y-71008210D01*
X146459599Y-70890020D01*
X146390617Y-70776988D01*
X146217346Y-70568781D01*
X146137714Y-70497431D01*
X146015602Y-70388018D01*
X145789690Y-70238556D01*
X145747052Y-70218568D01*
X145544422Y-70123578D01*
X145285037Y-70045541D01*
X145285031Y-70045540D01*
X145017039Y-70006100D01*
X144813969Y-70006100D01*
X144813966Y-70006100D01*
X144611443Y-70020922D01*
X144347049Y-70079819D01*
X144094041Y-70176586D01*
X143857823Y-70309159D01*
X143643425Y-70474709D01*
X143455413Y-70669720D01*
X143297801Y-70890020D01*
X143173942Y-71130929D01*
X143086481Y-71387295D01*
X143037280Y-71653666D01*
X143027387Y-71924364D01*
X129606918Y-71924364D01*
X129609776Y-71869829D01*
X129626274Y-71819056D01*
X129646060Y-71630800D01*
X129626274Y-71442544D01*
X129567779Y-71262516D01*
X129567779Y-71262515D01*
X129473133Y-71098583D01*
X129346470Y-70957910D01*
X129193330Y-70846648D01*
X129020402Y-70769655D01*
X128835248Y-70730300D01*
X128835246Y-70730300D01*
X128645954Y-70730300D01*
X128645952Y-70730300D01*
X128448049Y-70772365D01*
X128447481Y-70769695D01*
X128414964Y-70775887D01*
X128360432Y-70760645D01*
X128318361Y-70722750D01*
X128297524Y-70670102D01*
X128302263Y-70613681D01*
X128356274Y-70447456D01*
X128376060Y-70259200D01*
X128356274Y-70070944D01*
X128297779Y-69890916D01*
X128297779Y-69890915D01*
X128203133Y-69726983D01*
X128076470Y-69586310D01*
X127923330Y-69475048D01*
X127750402Y-69398055D01*
X127565248Y-69358700D01*
X127565246Y-69358700D01*
X127375954Y-69358700D01*
X127375951Y-69358700D01*
X127261282Y-69383073D01*
X127203408Y-69381558D01*
X127152529Y-69353933D01*
X127119738Y-69306220D01*
X127112181Y-69248825D01*
X127131460Y-69065400D01*
X127111674Y-68877144D01*
X127053179Y-68697116D01*
X127053179Y-68697115D01*
X126958533Y-68533183D01*
X126831870Y-68392510D01*
X126678730Y-68281248D01*
X126505802Y-68204255D01*
X126320648Y-68164900D01*
X126320646Y-68164900D01*
X126131354Y-68164900D01*
X126131351Y-68164900D01*
X125960498Y-68201215D01*
X125896399Y-68197856D01*
X125842568Y-68162897D01*
X125813428Y-68105705D01*
X125816786Y-68041609D01*
X125828274Y-68006256D01*
X125848060Y-67818000D01*
X125828274Y-67629744D01*
X125769779Y-67449716D01*
X125769779Y-67449715D01*
X125675133Y-67285783D01*
X125548470Y-67145110D01*
X125395330Y-67033848D01*
X125222402Y-66956855D01*
X125037248Y-66917500D01*
X125037246Y-66917500D01*
X124847954Y-66917500D01*
X124847951Y-66917500D01*
X124690110Y-66951049D01*
X124626011Y-66947690D01*
X124572179Y-66912731D01*
X124543040Y-66855539D01*
X124546398Y-66791444D01*
X124571674Y-66713656D01*
X124591460Y-66525400D01*
X124571674Y-66337144D01*
X124513179Y-66157116D01*
X124513179Y-66157115D01*
X124418533Y-65993183D01*
X124291870Y-65852510D01*
X124138730Y-65741248D01*
X123965802Y-65664255D01*
X123780648Y-65624900D01*
X123780646Y-65624900D01*
X123591354Y-65624900D01*
X123591352Y-65624900D01*
X123406197Y-65664255D01*
X123221364Y-65746549D01*
X123220790Y-65745259D01*
X123172531Y-65763204D01*
X123107023Y-65750704D01*
X123057463Y-65706077D01*
X123038189Y-65642233D01*
X123054773Y-65577641D01*
X123116179Y-65471284D01*
X123174674Y-65291256D01*
X123194460Y-65103000D01*
X123174674Y-64914744D01*
X123116179Y-64734716D01*
X123116179Y-64734715D01*
X123021533Y-64570783D01*
X122894870Y-64430110D01*
X122741730Y-64318848D01*
X122568802Y-64241855D01*
X122383648Y-64202500D01*
X122383646Y-64202500D01*
X122194354Y-64202500D01*
X122194352Y-64202500D01*
X122168547Y-64207985D01*
X122110672Y-64206470D01*
X122059794Y-64178845D01*
X122027002Y-64131132D01*
X122019445Y-64073735D01*
X122026060Y-64010800D01*
X122006274Y-63822544D01*
X121947779Y-63642516D01*
X121947779Y-63642515D01*
X121853133Y-63478583D01*
X121726470Y-63337910D01*
X121573330Y-63226648D01*
X121400402Y-63149655D01*
X121215248Y-63110300D01*
X121215246Y-63110300D01*
X121025954Y-63110300D01*
X121025952Y-63110300D01*
X120840798Y-63149654D01*
X120717490Y-63204555D01*
X120656678Y-63214840D01*
X120598434Y-63194557D01*
X120557165Y-63148723D01*
X120543082Y-63088677D01*
X120559666Y-63029278D01*
X120601579Y-62956684D01*
X120660074Y-62776656D01*
X120679860Y-62588400D01*
X120660074Y-62400144D01*
X120601579Y-62220116D01*
X120601579Y-62220115D01*
X120506933Y-62056183D01*
X120380270Y-61915510D01*
X120227130Y-61804248D01*
X120054202Y-61727255D01*
X119869048Y-61687900D01*
X119869046Y-61687900D01*
X119679754Y-61687900D01*
X119655861Y-61692978D01*
X119625235Y-61699488D01*
X119567360Y-61697972D01*
X119516482Y-61670346D01*
X119483691Y-61622634D01*
X119476134Y-61565238D01*
X119486060Y-61470800D01*
X119466274Y-61282544D01*
X119407779Y-61102516D01*
X119407779Y-61102515D01*
X119313133Y-60938583D01*
X119186470Y-60797910D01*
X119033330Y-60686648D01*
X118860402Y-60609655D01*
X118675248Y-60570300D01*
X118675246Y-60570300D01*
X118485954Y-60570300D01*
X118485951Y-60570300D01*
X118333517Y-60602700D01*
X118269418Y-60599341D01*
X118215587Y-60564382D01*
X118186447Y-60507190D01*
X118189805Y-60443094D01*
X118208274Y-60386256D01*
X118228060Y-60198000D01*
X118208274Y-60009744D01*
X118149779Y-59829716D01*
X118149779Y-59829715D01*
X118055133Y-59665783D01*
X117928470Y-59525110D01*
X117775330Y-59413848D01*
X117602402Y-59336855D01*
X117417248Y-59297500D01*
X117417246Y-59297500D01*
X117227954Y-59297500D01*
X117165545Y-59310765D01*
X117042826Y-59336849D01*
X116978727Y-59333489D01*
X116924896Y-59298530D01*
X116895756Y-59241338D01*
X116899114Y-59177242D01*
X116926274Y-59093656D01*
X116946060Y-58905400D01*
X116926274Y-58717144D01*
X116867779Y-58537116D01*
X116867779Y-58537115D01*
X116773133Y-58373183D01*
X116646470Y-58232510D01*
X116493330Y-58121248D01*
X116320402Y-58044255D01*
X116135248Y-58004900D01*
X116135246Y-58004900D01*
X115945954Y-58004900D01*
X115900264Y-58014611D01*
X115802382Y-58035416D01*
X115738282Y-58032056D01*
X115684451Y-57997096D01*
X115655311Y-57939904D01*
X115658671Y-57875808D01*
X115668274Y-57846256D01*
X115688060Y-57658000D01*
X115668274Y-57469744D01*
X115609779Y-57289716D01*
X115609779Y-57289715D01*
X115515133Y-57125783D01*
X115388470Y-56985110D01*
X115235330Y-56873848D01*
X115062402Y-56796855D01*
X114877248Y-56757500D01*
X114877246Y-56757500D01*
X114687954Y-56757500D01*
X114687951Y-56757500D01*
X114520556Y-56793080D01*
X114456457Y-56789721D01*
X114402625Y-56754761D01*
X114373485Y-56697569D01*
X114376845Y-56633472D01*
X114386274Y-56604456D01*
X114406060Y-56416200D01*
X114386274Y-56227944D01*
X114327779Y-56047916D01*
X114327779Y-56047915D01*
X114233133Y-55883983D01*
X114106470Y-55743310D01*
X113953330Y-55632048D01*
X113780402Y-55555055D01*
X113595248Y-55515700D01*
X113595246Y-55515700D01*
X113405954Y-55515700D01*
X113405951Y-55515700D01*
X113241604Y-55550632D01*
X113177505Y-55547273D01*
X113123673Y-55512314D01*
X113094534Y-55455122D01*
X113097892Y-55391027D01*
X113116274Y-55334456D01*
X113136060Y-55146200D01*
X113116274Y-54957944D01*
X113057779Y-54777916D01*
X113057779Y-54777915D01*
X112963133Y-54613983D01*
X112836470Y-54473310D01*
X112683330Y-54362048D01*
X112510402Y-54285055D01*
X112325248Y-54245700D01*
X112325246Y-54245700D01*
X112135954Y-54245700D01*
X112135952Y-54245700D01*
X111950798Y-54285054D01*
X111900489Y-54307454D01*
X111844861Y-54318065D01*
X111790316Y-54302836D01*
X111748231Y-54264942D01*
X111727384Y-54212288D01*
X111732123Y-54155856D01*
X111758496Y-54074689D01*
X111770074Y-54039056D01*
X111789860Y-53850800D01*
X111770074Y-53662544D01*
X111711579Y-53482516D01*
X111711579Y-53482515D01*
X111616933Y-53318583D01*
X111490270Y-53177910D01*
X111337130Y-53066648D01*
X111164202Y-52989655D01*
X110979048Y-52950300D01*
X110979046Y-52950300D01*
X110789754Y-52950300D01*
X110789751Y-52950300D01*
X110597141Y-52991239D01*
X110539267Y-52989724D01*
X110488388Y-52962099D01*
X110455597Y-52914386D01*
X110448040Y-52856987D01*
X110449272Y-52845260D01*
X110449274Y-52845256D01*
X110469060Y-52657000D01*
X110449274Y-52468744D01*
X110390779Y-52288716D01*
X110390779Y-52288715D01*
X110296133Y-52124783D01*
X110169470Y-51984110D01*
X110016330Y-51872848D01*
X109843402Y-51795855D01*
X109658248Y-51756500D01*
X109658246Y-51756500D01*
X109468954Y-51756500D01*
X109445309Y-51761525D01*
X109426343Y-51765557D01*
X109362244Y-51762197D01*
X109308412Y-51727237D01*
X109279273Y-51670046D01*
X109282631Y-51605950D01*
X109318274Y-51496256D01*
X109338060Y-51308000D01*
X109318274Y-51119744D01*
X109259779Y-50939716D01*
X109259779Y-50939715D01*
X109165133Y-50775783D01*
X109038470Y-50635110D01*
X108885330Y-50523848D01*
X108712402Y-50446855D01*
X108527248Y-50407500D01*
X108527246Y-50407500D01*
X108337954Y-50407500D01*
X108337952Y-50407500D01*
X108152797Y-50446855D01*
X107979869Y-50523848D01*
X107826729Y-50635110D01*
X107700066Y-50775783D01*
X107605420Y-50939715D01*
X107546926Y-51119742D01*
X107527140Y-51308000D01*
X107546926Y-51496257D01*
X107605420Y-51676284D01*
X107700064Y-51840213D01*
X107700067Y-51840216D01*
X107775252Y-51923717D01*
X107798864Y-51962249D01*
X107807100Y-52006687D01*
X107807100Y-83266212D01*
X107793089Y-83323469D01*
X107754223Y-83367787D01*
X107593459Y-83480353D01*
X107432553Y-83641259D01*
X107302032Y-83827664D01*
X107205861Y-84033902D01*
X107146964Y-84253710D01*
X107127131Y-84480400D01*
X106422735Y-84480400D01*
X106436068Y-84328000D01*
X106416235Y-84101308D01*
X106357339Y-83881504D01*
X106261168Y-83675266D01*
X106237356Y-83641259D01*
X106130646Y-83488859D01*
X105969740Y-83327953D01*
X105783336Y-83197433D01*
X105783334Y-83197432D01*
X105725322Y-83170380D01*
X105673148Y-83124623D01*
X105653729Y-83057997D01*
X105673149Y-82991372D01*
X105725321Y-82945619D01*
X105783334Y-82918568D01*
X105969739Y-82788047D01*
X106130647Y-82627139D01*
X106261168Y-82440734D01*
X106357339Y-82234496D01*
X106416235Y-82014692D01*
X106436068Y-81788000D01*
X106416235Y-81561308D01*
X106357339Y-81341504D01*
X106261168Y-81135266D01*
X106253609Y-81124471D01*
X106130646Y-80948859D01*
X105969740Y-80787953D01*
X105783333Y-80657431D01*
X105725325Y-80630382D01*
X105673149Y-80584625D01*
X105653729Y-80518000D01*
X105673149Y-80451375D01*
X105725325Y-80405618D01*
X105783334Y-80378568D01*
X105969739Y-80248047D01*
X106130647Y-80087139D01*
X106261168Y-79900734D01*
X106357339Y-79694496D01*
X106416235Y-79474692D01*
X106436068Y-79248000D01*
X106416235Y-79021308D01*
X106357339Y-78801504D01*
X106261168Y-78595266D01*
X106203576Y-78513016D01*
X106130646Y-78408859D01*
X105969740Y-78247953D01*
X105783333Y-78117431D01*
X105725325Y-78090382D01*
X105673149Y-78044625D01*
X105653729Y-77978000D01*
X105673149Y-77911375D01*
X105725325Y-77865618D01*
X105783334Y-77838568D01*
X105969739Y-77708047D01*
X106130647Y-77547139D01*
X106261168Y-77360734D01*
X106357339Y-77154496D01*
X106416235Y-76934692D01*
X106436068Y-76708000D01*
X106416235Y-76481308D01*
X106357339Y-76261504D01*
X106261168Y-76055266D01*
X106249972Y-76039277D01*
X106130646Y-75868859D01*
X105969740Y-75707953D01*
X105783333Y-75577431D01*
X105725325Y-75550382D01*
X105673149Y-75504625D01*
X105653729Y-75438000D01*
X105673149Y-75371375D01*
X105725325Y-75325618D01*
X105783334Y-75298568D01*
X105969739Y-75168047D01*
X106130647Y-75007139D01*
X106261168Y-74820734D01*
X106357339Y-74614496D01*
X106416235Y-74394692D01*
X106436068Y-74168000D01*
X106416235Y-73941308D01*
X106357339Y-73721504D01*
X106261168Y-73515266D01*
X106232725Y-73474645D01*
X106130646Y-73328859D01*
X105969740Y-73167953D01*
X105783332Y-73037430D01*
X105725324Y-73010380D01*
X105673149Y-72964623D01*
X105653730Y-72897997D01*
X105673150Y-72831373D01*
X105725321Y-72785619D01*
X105783334Y-72758568D01*
X105969739Y-72628047D01*
X106130647Y-72467139D01*
X106261168Y-72280734D01*
X106357339Y-72074496D01*
X106416235Y-71854692D01*
X106436068Y-71628000D01*
X106416235Y-71401308D01*
X106357339Y-71181504D01*
X106261168Y-70975266D01*
X106249015Y-70957910D01*
X106130646Y-70788859D01*
X105969740Y-70627953D01*
X105783333Y-70497431D01*
X105734611Y-70474712D01*
X105725324Y-70470381D01*
X105673149Y-70424625D01*
X105653729Y-70358000D01*
X105673149Y-70291375D01*
X105725325Y-70245618D01*
X105783334Y-70218568D01*
X105969739Y-70088047D01*
X106130647Y-69927139D01*
X106261168Y-69740734D01*
X106357339Y-69534496D01*
X106416235Y-69314692D01*
X106436068Y-69088000D01*
X106416235Y-68861308D01*
X106357339Y-68641504D01*
X106261168Y-68435266D01*
X106231230Y-68392510D01*
X106130646Y-68248859D01*
X105969740Y-68087953D01*
X105783333Y-67957431D01*
X105725325Y-67930382D01*
X105673149Y-67884625D01*
X105653729Y-67818000D01*
X105673149Y-67751375D01*
X105725325Y-67705618D01*
X105783334Y-67678568D01*
X105969739Y-67548047D01*
X106130647Y-67387139D01*
X106261168Y-67200734D01*
X106357339Y-66994496D01*
X106416235Y-66774692D01*
X106436068Y-66548000D01*
X106416235Y-66321308D01*
X106357339Y-66101504D01*
X106261168Y-65895266D01*
X106231230Y-65852510D01*
X106130646Y-65708859D01*
X105969740Y-65547953D01*
X105783333Y-65417431D01*
X105725325Y-65390382D01*
X105673149Y-65344625D01*
X105653729Y-65278000D01*
X105673149Y-65211375D01*
X105725325Y-65165618D01*
X105783334Y-65138568D01*
X105969739Y-65008047D01*
X106130647Y-64847139D01*
X106261168Y-64660734D01*
X106357339Y-64454496D01*
X106416235Y-64234692D01*
X106436068Y-64008000D01*
X106416235Y-63781308D01*
X106357339Y-63561504D01*
X106261168Y-63355266D01*
X106249015Y-63337910D01*
X106130646Y-63168859D01*
X105969740Y-63007953D01*
X105783332Y-62877430D01*
X105725324Y-62850380D01*
X105673149Y-62804623D01*
X105653730Y-62737997D01*
X105673150Y-62671373D01*
X105725321Y-62625619D01*
X105783334Y-62598568D01*
X105969739Y-62468047D01*
X106130647Y-62307139D01*
X106261168Y-62120734D01*
X106357339Y-61914496D01*
X106416235Y-61694692D01*
X106436068Y-61468000D01*
X106416235Y-61241308D01*
X106357339Y-61021504D01*
X106261168Y-60815266D01*
X106249015Y-60797910D01*
X106130646Y-60628859D01*
X105969740Y-60467953D01*
X105783333Y-60337431D01*
X105725325Y-60310382D01*
X105673149Y-60264625D01*
X105653729Y-60198000D01*
X105673149Y-60131375D01*
X105725325Y-60085618D01*
X105783334Y-60058568D01*
X105969739Y-59928047D01*
X106130647Y-59767139D01*
X106261168Y-59580734D01*
X106357339Y-59374496D01*
X106416235Y-59154692D01*
X106436068Y-58928000D01*
X106416235Y-58701308D01*
X106357339Y-58481504D01*
X106261168Y-58275266D01*
X106231230Y-58232510D01*
X106130646Y-58088859D01*
X105969740Y-57927953D01*
X105783333Y-57797431D01*
X105725325Y-57770382D01*
X105673149Y-57724625D01*
X105653729Y-57658000D01*
X105673149Y-57591375D01*
X105725325Y-57545618D01*
X105783334Y-57518568D01*
X105969739Y-57388047D01*
X106130647Y-57227139D01*
X106261168Y-57040734D01*
X106357339Y-56834496D01*
X106416235Y-56614692D01*
X106436068Y-56388000D01*
X106416235Y-56161308D01*
X106357339Y-55941504D01*
X106261168Y-55735266D01*
X106252133Y-55722363D01*
X106130646Y-55548859D01*
X105969740Y-55387953D01*
X105783333Y-55257431D01*
X105725325Y-55230382D01*
X105673149Y-55184625D01*
X105653729Y-55118000D01*
X105673149Y-55051375D01*
X105725325Y-55005618D01*
X105783334Y-54978568D01*
X105969739Y-54848047D01*
X106130647Y-54687139D01*
X106261168Y-54500734D01*
X106357339Y-54294496D01*
X106416235Y-54074692D01*
X106436068Y-53848000D01*
X106416235Y-53621308D01*
X106357339Y-53401504D01*
X106261168Y-53195266D01*
X106249015Y-53177910D01*
X106130646Y-53008859D01*
X105969740Y-52847953D01*
X105783333Y-52717431D01*
X105725325Y-52690382D01*
X105673149Y-52644625D01*
X105653729Y-52578000D01*
X105673149Y-52511375D01*
X105725325Y-52465618D01*
X105783334Y-52438568D01*
X105969739Y-52308047D01*
X106130647Y-52147139D01*
X106261168Y-51960734D01*
X106357339Y-51754496D01*
X106416235Y-51534692D01*
X106436068Y-51308000D01*
X106416235Y-51081308D01*
X106357339Y-50861504D01*
X106261168Y-50655266D01*
X106247056Y-50635112D01*
X106130646Y-50468859D01*
X105969740Y-50307953D01*
X105783335Y-50177432D01*
X105577097Y-50081261D01*
X105357289Y-50022364D01*
X105130600Y-50002531D01*
X104903910Y-50022364D01*
X104684102Y-50081261D01*
X104477864Y-50177432D01*
X104291459Y-50307953D01*
X104130553Y-50468859D01*
X104000032Y-50655264D01*
X103903861Y-50861502D01*
X103844964Y-51081310D01*
X103825131Y-51308000D01*
X103844964Y-51534689D01*
X103903861Y-51754497D01*
X104000032Y-51960735D01*
X104130553Y-52147140D01*
X104291459Y-52308046D01*
X104351849Y-52350331D01*
X104477866Y-52438568D01*
X104535875Y-52465618D01*
X104588050Y-52511375D01*
X104607469Y-52578000D01*
X104588050Y-52644625D01*
X104535875Y-52690382D01*
X104477863Y-52717433D01*
X104291459Y-52847953D01*
X104130553Y-53008859D01*
X104000032Y-53195264D01*
X103903861Y-53401502D01*
X103844964Y-53621310D01*
X103825131Y-53848000D01*
X103844964Y-54074689D01*
X103903861Y-54294497D01*
X104000032Y-54500735D01*
X104130553Y-54687140D01*
X104291459Y-54848046D01*
X104448409Y-54957942D01*
X104477866Y-54978568D01*
X104535873Y-55005617D01*
X104588049Y-55051373D01*
X104607469Y-55117997D01*
X104588051Y-55184622D01*
X104535876Y-55230380D01*
X104477866Y-55257431D01*
X104291459Y-55387953D01*
X104130553Y-55548859D01*
X104000032Y-55735264D01*
X103903861Y-55941502D01*
X103844964Y-56161310D01*
X103825131Y-56388000D01*
X103844964Y-56614689D01*
X103903861Y-56834497D01*
X104000032Y-57040735D01*
X104130553Y-57227140D01*
X104291459Y-57388046D01*
X104408137Y-57469744D01*
X104477866Y-57518568D01*
X104535875Y-57545618D01*
X104588050Y-57591375D01*
X104607469Y-57658000D01*
X104588050Y-57724625D01*
X104535875Y-57770382D01*
X104477863Y-57797433D01*
X104291459Y-57927953D01*
X104130553Y-58088859D01*
X104000032Y-58275264D01*
X103903861Y-58481502D01*
X103844964Y-58701310D01*
X103825131Y-58928000D01*
X103844964Y-59154689D01*
X103903861Y-59374497D01*
X104000032Y-59580735D01*
X104130553Y-59767140D01*
X104291459Y-59928046D01*
X104408137Y-60009744D01*
X104477866Y-60058568D01*
X104535875Y-60085618D01*
X104588050Y-60131375D01*
X104607469Y-60198000D01*
X104588050Y-60264625D01*
X104535875Y-60310382D01*
X104477863Y-60337433D01*
X104291459Y-60467953D01*
X104130553Y-60628859D01*
X104000032Y-60815264D01*
X103903861Y-61021502D01*
X103844964Y-61241310D01*
X103825131Y-61467999D01*
X103844964Y-61694689D01*
X103903861Y-61914497D01*
X104000032Y-62120735D01*
X104130553Y-62307140D01*
X104291459Y-62468046D01*
X104463344Y-62588400D01*
X104477866Y-62598568D01*
X104535873Y-62625617D01*
X104588049Y-62671373D01*
X104607469Y-62737997D01*
X104588051Y-62804622D01*
X104535876Y-62850380D01*
X104477866Y-62877431D01*
X104291459Y-63007953D01*
X104130553Y-63168859D01*
X104000032Y-63355264D01*
X103903861Y-63561502D01*
X103844964Y-63781310D01*
X103825131Y-64007999D01*
X103844964Y-64234689D01*
X103903861Y-64454497D01*
X104000032Y-64660735D01*
X104130553Y-64847140D01*
X104291459Y-65008046D01*
X104427069Y-65103000D01*
X104477866Y-65138568D01*
X104535875Y-65165618D01*
X104588050Y-65211375D01*
X104607469Y-65278000D01*
X104588050Y-65344625D01*
X104535875Y-65390382D01*
X104477863Y-65417433D01*
X104291459Y-65547953D01*
X104130553Y-65708859D01*
X104000032Y-65895264D01*
X103903861Y-66101502D01*
X103844964Y-66321310D01*
X103825131Y-66547999D01*
X103844964Y-66774689D01*
X103903861Y-66994497D01*
X104000032Y-67200735D01*
X104130553Y-67387140D01*
X104291459Y-67548046D01*
X104408137Y-67629744D01*
X104477866Y-67678568D01*
X104535875Y-67705618D01*
X104588050Y-67751375D01*
X104607469Y-67818000D01*
X104588050Y-67884625D01*
X104535875Y-67930382D01*
X104477863Y-67957433D01*
X104291459Y-68087953D01*
X104130553Y-68248859D01*
X104000032Y-68435264D01*
X103903861Y-68641502D01*
X103844964Y-68861310D01*
X103825131Y-69087999D01*
X103844964Y-69314689D01*
X103903861Y-69534497D01*
X104000032Y-69740735D01*
X104130553Y-69927140D01*
X104291459Y-70088046D01*
X104417909Y-70176586D01*
X104477866Y-70218568D01*
X104535875Y-70245618D01*
X104588050Y-70291375D01*
X104607469Y-70358000D01*
X104588050Y-70424625D01*
X104535875Y-70470381D01*
X104526589Y-70474712D01*
X104477863Y-70497433D01*
X104291459Y-70627953D01*
X104130553Y-70788859D01*
X104000032Y-70975264D01*
X103903861Y-71181502D01*
X103844964Y-71401310D01*
X103825131Y-71627999D01*
X103844964Y-71854689D01*
X103903861Y-72074497D01*
X104000032Y-72280735D01*
X104130553Y-72467140D01*
X104291459Y-72628046D01*
X104401348Y-72704990D01*
X104477866Y-72758568D01*
X104535873Y-72785617D01*
X104588049Y-72831373D01*
X104607469Y-72897997D01*
X104588051Y-72964622D01*
X104535876Y-73010380D01*
X104477866Y-73037431D01*
X104291459Y-73167953D01*
X104130553Y-73328859D01*
X104000032Y-73515264D01*
X103903861Y-73721502D01*
X103844964Y-73941310D01*
X103825131Y-74167999D01*
X103844964Y-74394689D01*
X103903861Y-74614497D01*
X104000032Y-74820735D01*
X104130553Y-75007140D01*
X104291459Y-75168046D01*
X104375858Y-75227142D01*
X104477866Y-75298568D01*
X104535873Y-75325617D01*
X104588049Y-75371373D01*
X104607469Y-75437997D01*
X104588051Y-75504622D01*
X104535876Y-75550380D01*
X104477866Y-75577431D01*
X104291459Y-75707953D01*
X104130553Y-75868859D01*
X104000032Y-76055264D01*
X103903861Y-76261502D01*
X103844964Y-76481310D01*
X103825131Y-76707999D01*
X103844964Y-76934689D01*
X103903861Y-77154497D01*
X104000032Y-77360735D01*
X104130553Y-77547140D01*
X104291459Y-77708046D01*
X104412133Y-77792542D01*
X104477866Y-77838568D01*
X104535875Y-77865618D01*
X104588050Y-77911375D01*
X104607469Y-77978000D01*
X104588050Y-78044625D01*
X104535875Y-78090382D01*
X104477863Y-78117433D01*
X104291459Y-78247953D01*
X104130553Y-78408859D01*
X104000032Y-78595264D01*
X103903861Y-78801502D01*
X103844964Y-79021310D01*
X103825131Y-79247999D01*
X103844964Y-79474689D01*
X103903861Y-79694497D01*
X104000032Y-79900735D01*
X104130553Y-80087140D01*
X104291459Y-80248046D01*
X104477863Y-80378566D01*
X104477866Y-80378568D01*
X104535875Y-80405618D01*
X104588050Y-80451375D01*
X104607469Y-80518000D01*
X104588050Y-80584625D01*
X104535875Y-80630382D01*
X104477863Y-80657433D01*
X104291459Y-80787953D01*
X104130553Y-80948859D01*
X104000032Y-81135264D01*
X103903861Y-81341502D01*
X103844964Y-81561310D01*
X103825131Y-81787999D01*
X103844964Y-82014689D01*
X103903861Y-82234497D01*
X104000032Y-82440735D01*
X104130553Y-82627140D01*
X104291459Y-82788046D01*
X104375858Y-82847142D01*
X104477866Y-82918568D01*
X104535875Y-82945618D01*
X104588050Y-82991375D01*
X104607469Y-83058000D01*
X104588050Y-83124625D01*
X104535875Y-83170382D01*
X104477863Y-83197433D01*
X104291459Y-83327953D01*
X104130553Y-83488859D01*
X104000032Y-83675264D01*
X103903861Y-83881502D01*
X103844964Y-84101310D01*
X103825131Y-84327999D01*
X103844964Y-84554689D01*
X103903861Y-84774497D01*
X104000032Y-84980735D01*
X104130553Y-85167140D01*
X104291459Y-85328046D01*
X104477863Y-85458566D01*
X104477866Y-85458568D01*
X104535873Y-85485617D01*
X104588049Y-85531373D01*
X104607469Y-85597997D01*
X104588051Y-85664622D01*
X104535876Y-85710380D01*
X104477866Y-85737431D01*
X104291459Y-85867953D01*
X104130553Y-86028859D01*
X104000032Y-86215264D01*
X103903861Y-86421502D01*
X103844964Y-86641310D01*
X103825131Y-86867999D01*
X103844964Y-87094689D01*
X103903861Y-87314497D01*
X104000032Y-87520735D01*
X104130553Y-87707140D01*
X104291459Y-87868046D01*
X104477862Y-87998565D01*
X104477866Y-87998568D01*
X104535873Y-88025617D01*
X104588049Y-88071373D01*
X104607469Y-88137997D01*
X104588051Y-88204622D01*
X104535876Y-88250380D01*
X104477866Y-88277431D01*
X104291459Y-88407953D01*
X104130553Y-88568859D01*
X104000032Y-88755264D01*
X103903861Y-88961502D01*
X103844964Y-89181310D01*
X103825131Y-89408000D01*
X103844964Y-89634689D01*
X103903861Y-89854497D01*
X104000032Y-90060735D01*
X104130553Y-90247140D01*
X104291459Y-90408046D01*
X104408137Y-90489744D01*
X104477866Y-90538568D01*
X104535875Y-90565618D01*
X104588050Y-90611375D01*
X104607469Y-90678000D01*
X104588050Y-90744625D01*
X104535875Y-90790382D01*
X104477863Y-90817433D01*
X104291459Y-90947953D01*
X104130553Y-91108859D01*
X104000032Y-91295264D01*
X103903861Y-91501502D01*
X103844964Y-91721310D01*
X103825131Y-91948000D01*
X103844964Y-92174689D01*
X103903861Y-92394497D01*
X104000032Y-92600735D01*
X104130553Y-92787140D01*
X104291459Y-92948046D01*
X104408137Y-93029744D01*
X104477866Y-93078568D01*
X104535875Y-93105618D01*
X104588050Y-93151375D01*
X104607469Y-93218000D01*
X104588050Y-93284625D01*
X104535875Y-93330382D01*
X104477863Y-93357433D01*
X104291459Y-93487953D01*
X104130553Y-93648859D01*
X104000032Y-93835264D01*
X103903861Y-94041502D01*
X103844964Y-94261310D01*
X103825131Y-94488000D01*
X103844964Y-94714689D01*
X103903861Y-94934497D01*
X104000032Y-95140735D01*
X104130553Y-95327140D01*
X104291459Y-95488046D01*
X104408137Y-95569744D01*
X104477866Y-95618568D01*
X104535873Y-95645617D01*
X104588049Y-95691373D01*
X104607469Y-95757997D01*
X104588051Y-95824622D01*
X104535876Y-95870380D01*
X104477866Y-95897431D01*
X104291459Y-96027953D01*
X104130553Y-96188859D01*
X104000032Y-96375264D01*
X103903861Y-96581502D01*
X103844964Y-96801310D01*
X103825131Y-97028000D01*
X103844964Y-97254689D01*
X103903861Y-97474497D01*
X104000032Y-97680735D01*
X104130553Y-97867140D01*
X104291459Y-98028046D01*
X104451272Y-98139947D01*
X104477866Y-98158568D01*
X104535875Y-98185618D01*
X104588050Y-98231375D01*
X104607469Y-98298000D01*
X104588050Y-98364625D01*
X104535875Y-98410381D01*
X104535287Y-98410656D01*
X104477863Y-98437433D01*
X104291459Y-98567953D01*
X104130553Y-98728859D01*
X104000032Y-98915264D01*
X103903861Y-99121502D01*
X103844964Y-99341310D01*
X103825131Y-99568000D01*
X87992500Y-99568000D01*
X87992500Y-97028000D01*
X88585131Y-97028000D01*
X88604964Y-97254689D01*
X88663861Y-97474497D01*
X88760032Y-97680735D01*
X88890553Y-97867140D01*
X89051459Y-98028046D01*
X89237864Y-98158567D01*
X89237865Y-98158567D01*
X89237866Y-98158568D01*
X89296465Y-98185893D01*
X89348640Y-98231650D01*
X89368060Y-98298274D01*
X89348641Y-98364899D01*
X89296466Y-98410656D01*
X89238122Y-98437863D01*
X89051780Y-98568341D01*
X88890941Y-98729180D01*
X88760465Y-98915519D01*
X88664333Y-99121673D01*
X88611728Y-99317999D01*
X88611728Y-99318000D01*
X91169472Y-99318000D01*
X91169471Y-99317999D01*
X91116866Y-99121673D01*
X91020734Y-98915519D01*
X90890258Y-98729180D01*
X90729419Y-98568341D01*
X90543082Y-98437866D01*
X90484733Y-98410657D01*
X90432558Y-98364899D01*
X90413139Y-98298274D01*
X90432559Y-98231649D01*
X90484734Y-98185893D01*
X90543334Y-98158568D01*
X90729739Y-98028047D01*
X90890647Y-97867139D01*
X91021168Y-97680734D01*
X91117339Y-97474496D01*
X91176235Y-97254692D01*
X91196068Y-97028000D01*
X91176235Y-96801308D01*
X91117339Y-96581504D01*
X91021168Y-96375266D01*
X91011647Y-96361669D01*
X90890646Y-96188859D01*
X90729740Y-96027953D01*
X90543333Y-95897431D01*
X90485325Y-95870382D01*
X90433149Y-95824625D01*
X90413729Y-95758000D01*
X90433149Y-95691375D01*
X90485325Y-95645618D01*
X90543334Y-95618568D01*
X90729739Y-95488047D01*
X90890647Y-95327139D01*
X91021168Y-95140734D01*
X91117339Y-94934496D01*
X91176235Y-94714692D01*
X91196068Y-94488000D01*
X91176235Y-94261308D01*
X91117339Y-94041504D01*
X91021168Y-93835266D01*
X91013614Y-93824478D01*
X90890646Y-93648859D01*
X90729740Y-93487953D01*
X90543333Y-93357431D01*
X90485325Y-93330382D01*
X90433149Y-93284625D01*
X90413729Y-93218000D01*
X90433149Y-93151375D01*
X90485325Y-93105618D01*
X90543334Y-93078568D01*
X90729739Y-92948047D01*
X90890647Y-92787139D01*
X91021168Y-92600734D01*
X91117339Y-92394496D01*
X91176235Y-92174692D01*
X91196068Y-91948000D01*
X91176235Y-91721308D01*
X91117339Y-91501504D01*
X91021168Y-91295266D01*
X91012736Y-91283224D01*
X90890646Y-91108859D01*
X90729740Y-90947953D01*
X90543333Y-90817431D01*
X90485325Y-90790382D01*
X90433149Y-90744625D01*
X90413729Y-90678000D01*
X90433149Y-90611375D01*
X90485325Y-90565618D01*
X90543334Y-90538568D01*
X90729739Y-90408047D01*
X90890647Y-90247139D01*
X91021168Y-90060734D01*
X91117339Y-89854496D01*
X91176235Y-89634692D01*
X91196068Y-89408000D01*
X91176235Y-89181308D01*
X91117339Y-88961504D01*
X91021168Y-88755266D01*
X91012736Y-88743224D01*
X90890646Y-88568859D01*
X90729740Y-88407953D01*
X90543332Y-88277430D01*
X90485324Y-88250380D01*
X90433149Y-88204623D01*
X90413730Y-88137997D01*
X90433150Y-88071373D01*
X90485321Y-88025619D01*
X90543334Y-87998568D01*
X90729739Y-87868047D01*
X90890647Y-87707139D01*
X91021168Y-87520734D01*
X91117339Y-87314496D01*
X91176235Y-87094692D01*
X91196068Y-86868000D01*
X91176235Y-86641308D01*
X91117339Y-86421504D01*
X91021168Y-86215266D01*
X90990952Y-86172113D01*
X90890646Y-86028859D01*
X90729740Y-85867953D01*
X90543336Y-85737433D01*
X90485323Y-85710381D01*
X90433148Y-85664623D01*
X90413729Y-85597997D01*
X90433149Y-85531372D01*
X90485321Y-85485619D01*
X90543334Y-85458568D01*
X90729739Y-85328047D01*
X90890647Y-85167139D01*
X91021168Y-84980734D01*
X91117339Y-84774496D01*
X91176235Y-84554692D01*
X91196068Y-84328000D01*
X91176235Y-84101308D01*
X91117339Y-83881504D01*
X91021168Y-83675266D01*
X90997356Y-83641259D01*
X90890646Y-83488859D01*
X90729740Y-83327953D01*
X90543336Y-83197433D01*
X90543334Y-83197432D01*
X90485322Y-83170380D01*
X90433148Y-83124623D01*
X90413729Y-83057997D01*
X90433149Y-82991372D01*
X90485321Y-82945619D01*
X90543334Y-82918568D01*
X90729739Y-82788047D01*
X90890647Y-82627139D01*
X91021168Y-82440734D01*
X91117339Y-82234496D01*
X91176235Y-82014692D01*
X91196068Y-81788000D01*
X91176235Y-81561308D01*
X91117339Y-81341504D01*
X91021168Y-81135266D01*
X91013609Y-81124471D01*
X90890646Y-80948859D01*
X90729740Y-80787953D01*
X90543333Y-80657431D01*
X90485325Y-80630382D01*
X90433149Y-80584625D01*
X90413729Y-80518000D01*
X90433149Y-80451375D01*
X90485325Y-80405618D01*
X90543334Y-80378568D01*
X90729739Y-80248047D01*
X90890647Y-80087139D01*
X91021168Y-79900734D01*
X91117339Y-79694496D01*
X91176235Y-79474692D01*
X91196068Y-79248000D01*
X91176235Y-79021308D01*
X91117339Y-78801504D01*
X91021168Y-78595266D01*
X90963576Y-78513016D01*
X90890646Y-78408859D01*
X90729740Y-78247953D01*
X90543333Y-78117431D01*
X90485325Y-78090382D01*
X90433149Y-78044625D01*
X90413729Y-77978000D01*
X90433149Y-77911375D01*
X90485325Y-77865618D01*
X90543334Y-77838568D01*
X90729739Y-77708047D01*
X90890647Y-77547139D01*
X91021168Y-77360734D01*
X91117339Y-77154496D01*
X91176235Y-76934692D01*
X91196068Y-76708000D01*
X91176235Y-76481308D01*
X91117339Y-76261504D01*
X91021168Y-76055266D01*
X91009972Y-76039277D01*
X90890646Y-75868859D01*
X90729740Y-75707953D01*
X90543333Y-75577431D01*
X90485325Y-75550382D01*
X90433149Y-75504625D01*
X90413729Y-75438000D01*
X90433149Y-75371375D01*
X90485325Y-75325618D01*
X90543334Y-75298568D01*
X90729739Y-75168047D01*
X90890647Y-75007139D01*
X91021168Y-74820734D01*
X91117339Y-74614496D01*
X91176235Y-74394692D01*
X91196068Y-74168000D01*
X91176235Y-73941308D01*
X91117339Y-73721504D01*
X91021168Y-73515266D01*
X90992725Y-73474645D01*
X90890646Y-73328859D01*
X90729740Y-73167953D01*
X90543332Y-73037430D01*
X90485324Y-73010380D01*
X90433149Y-72964623D01*
X90413730Y-72897997D01*
X90433150Y-72831373D01*
X90485321Y-72785619D01*
X90543334Y-72758568D01*
X90729739Y-72628047D01*
X90890647Y-72467139D01*
X91021168Y-72280734D01*
X91117339Y-72074496D01*
X91176235Y-71854692D01*
X91196068Y-71628000D01*
X91176235Y-71401308D01*
X91117339Y-71181504D01*
X91021168Y-70975266D01*
X91009015Y-70957910D01*
X90890646Y-70788859D01*
X90729740Y-70627953D01*
X90543333Y-70497431D01*
X90494611Y-70474712D01*
X90485324Y-70470381D01*
X90433149Y-70424625D01*
X90413729Y-70358000D01*
X90433149Y-70291375D01*
X90485325Y-70245618D01*
X90543334Y-70218568D01*
X90729739Y-70088047D01*
X90890647Y-69927139D01*
X91021168Y-69740734D01*
X91117339Y-69534496D01*
X91176235Y-69314692D01*
X91196068Y-69088000D01*
X91176235Y-68861308D01*
X91117339Y-68641504D01*
X91021168Y-68435266D01*
X90991230Y-68392510D01*
X90890646Y-68248859D01*
X90729740Y-68087953D01*
X90543333Y-67957431D01*
X90485325Y-67930382D01*
X90433149Y-67884625D01*
X90413729Y-67818000D01*
X90433149Y-67751375D01*
X90485325Y-67705618D01*
X90543334Y-67678568D01*
X90729739Y-67548047D01*
X90890647Y-67387139D01*
X91021168Y-67200734D01*
X91117339Y-66994496D01*
X91176235Y-66774692D01*
X91196068Y-66548000D01*
X91176235Y-66321308D01*
X91117339Y-66101504D01*
X91021168Y-65895266D01*
X90991230Y-65852510D01*
X90890646Y-65708859D01*
X90729740Y-65547953D01*
X90543333Y-65417431D01*
X90485325Y-65390382D01*
X90433149Y-65344625D01*
X90413729Y-65278000D01*
X90433149Y-65211375D01*
X90485325Y-65165618D01*
X90543334Y-65138568D01*
X90729739Y-65008047D01*
X90890647Y-64847139D01*
X91021168Y-64660734D01*
X91117339Y-64454496D01*
X91176235Y-64234692D01*
X91196068Y-64008000D01*
X91176235Y-63781308D01*
X91117339Y-63561504D01*
X91021168Y-63355266D01*
X91009015Y-63337910D01*
X90890646Y-63168859D01*
X90729740Y-63007953D01*
X90543332Y-62877430D01*
X90485324Y-62850380D01*
X90433149Y-62804623D01*
X90413730Y-62737997D01*
X90433150Y-62671373D01*
X90485321Y-62625619D01*
X90543334Y-62598568D01*
X90729739Y-62468047D01*
X90890647Y-62307139D01*
X91021168Y-62120734D01*
X91117339Y-61914496D01*
X91176235Y-61694692D01*
X91196068Y-61468000D01*
X91176235Y-61241308D01*
X91117339Y-61021504D01*
X91021168Y-60815266D01*
X91009015Y-60797910D01*
X90890646Y-60628859D01*
X90729740Y-60467953D01*
X90543333Y-60337431D01*
X90485325Y-60310382D01*
X90433149Y-60264625D01*
X90413729Y-60198000D01*
X90433149Y-60131375D01*
X90485325Y-60085618D01*
X90543334Y-60058568D01*
X90729739Y-59928047D01*
X90890647Y-59767139D01*
X91021168Y-59580734D01*
X91117339Y-59374496D01*
X91176235Y-59154692D01*
X91196068Y-58928000D01*
X91176235Y-58701308D01*
X91117339Y-58481504D01*
X91021168Y-58275266D01*
X90991230Y-58232510D01*
X90890646Y-58088859D01*
X90729740Y-57927953D01*
X90543333Y-57797431D01*
X90485325Y-57770382D01*
X90433149Y-57724625D01*
X90413729Y-57658000D01*
X90433149Y-57591375D01*
X90485325Y-57545618D01*
X90543334Y-57518568D01*
X90729739Y-57388047D01*
X90890647Y-57227139D01*
X91021168Y-57040734D01*
X91117339Y-56834496D01*
X91176235Y-56614692D01*
X91196068Y-56388000D01*
X91176235Y-56161308D01*
X91117339Y-55941504D01*
X91021168Y-55735266D01*
X91012133Y-55722363D01*
X90890646Y-55548859D01*
X90729740Y-55387953D01*
X90543333Y-55257431D01*
X90485325Y-55230382D01*
X90433149Y-55184625D01*
X90413729Y-55118000D01*
X90433149Y-55051375D01*
X90485325Y-55005618D01*
X90543334Y-54978568D01*
X90729739Y-54848047D01*
X90890647Y-54687139D01*
X91021168Y-54500734D01*
X91117339Y-54294496D01*
X91176235Y-54074692D01*
X91196068Y-53848000D01*
X91176235Y-53621308D01*
X91117339Y-53401504D01*
X91021168Y-53195266D01*
X91009015Y-53177910D01*
X90890646Y-53008859D01*
X90729740Y-52847953D01*
X90705137Y-52830726D01*
X90665999Y-52785884D01*
X90652266Y-52727970D01*
X90667100Y-52670328D01*
X90707085Y-52626239D01*
X90763006Y-52605861D01*
X90798083Y-52602091D01*
X90932931Y-52551796D01*
X91048146Y-52465546D01*
X91134396Y-52350331D01*
X91184691Y-52215483D01*
X91191100Y-52155873D01*
X91191099Y-50460128D01*
X91184691Y-50400517D01*
X91134396Y-50265669D01*
X91048146Y-50150454D01*
X90932931Y-50064204D01*
X90798083Y-50013909D01*
X90738473Y-50007500D01*
X90738469Y-50007500D01*
X89042730Y-50007500D01*
X88983115Y-50013909D01*
X88848269Y-50064204D01*
X88733054Y-50150454D01*
X88646804Y-50265668D01*
X88596509Y-50400516D01*
X88590100Y-50460130D01*
X88590100Y-52155869D01*
X88596509Y-52215483D01*
X88646804Y-52350331D01*
X88733054Y-52465546D01*
X88848269Y-52551796D01*
X88983117Y-52602091D01*
X89018194Y-52605862D01*
X89074113Y-52626239D01*
X89114097Y-52670327D01*
X89128932Y-52727968D01*
X89115200Y-52785881D01*
X89076064Y-52830724D01*
X89051460Y-52847952D01*
X88890553Y-53008859D01*
X88760032Y-53195264D01*
X88663861Y-53401502D01*
X88604964Y-53621310D01*
X88585131Y-53848000D01*
X88604964Y-54074689D01*
X88663861Y-54294497D01*
X88760032Y-54500735D01*
X88890553Y-54687140D01*
X89051459Y-54848046D01*
X89208409Y-54957942D01*
X89237866Y-54978568D01*
X89295873Y-55005617D01*
X89348049Y-55051373D01*
X89367469Y-55117997D01*
X89348051Y-55184622D01*
X89295876Y-55230380D01*
X89237866Y-55257431D01*
X89051459Y-55387953D01*
X88890553Y-55548859D01*
X88760032Y-55735264D01*
X88663861Y-55941502D01*
X88604964Y-56161310D01*
X88585131Y-56388000D01*
X88604964Y-56614689D01*
X88663861Y-56834497D01*
X88760032Y-57040735D01*
X88890553Y-57227140D01*
X89051459Y-57388046D01*
X89168137Y-57469744D01*
X89237866Y-57518568D01*
X89295875Y-57545618D01*
X89348050Y-57591375D01*
X89367469Y-57658000D01*
X89348050Y-57724625D01*
X89295875Y-57770382D01*
X89237863Y-57797433D01*
X89051459Y-57927953D01*
X88890553Y-58088859D01*
X88760032Y-58275264D01*
X88663861Y-58481502D01*
X88604964Y-58701310D01*
X88585131Y-58928000D01*
X88604964Y-59154689D01*
X88663861Y-59374497D01*
X88760032Y-59580735D01*
X88890553Y-59767140D01*
X89051459Y-59928046D01*
X89168137Y-60009744D01*
X89237866Y-60058568D01*
X89295875Y-60085618D01*
X89348050Y-60131375D01*
X89367469Y-60198000D01*
X89348050Y-60264625D01*
X89295875Y-60310382D01*
X89237863Y-60337433D01*
X89051459Y-60467953D01*
X88890553Y-60628859D01*
X88760032Y-60815264D01*
X88663861Y-61021502D01*
X88604964Y-61241310D01*
X88585131Y-61467999D01*
X88604964Y-61694689D01*
X88663861Y-61914497D01*
X88760032Y-62120735D01*
X88890553Y-62307140D01*
X89051459Y-62468046D01*
X89223344Y-62588400D01*
X89237866Y-62598568D01*
X89295873Y-62625617D01*
X89348049Y-62671373D01*
X89367469Y-62737997D01*
X89348051Y-62804622D01*
X89295876Y-62850380D01*
X89237866Y-62877431D01*
X89051459Y-63007953D01*
X88890553Y-63168859D01*
X88760032Y-63355264D01*
X88663861Y-63561502D01*
X88604964Y-63781310D01*
X88585131Y-64007999D01*
X88604964Y-64234689D01*
X88663861Y-64454497D01*
X88760032Y-64660735D01*
X88890553Y-64847140D01*
X89051459Y-65008046D01*
X89187069Y-65103000D01*
X89237866Y-65138568D01*
X89295875Y-65165618D01*
X89348050Y-65211375D01*
X89367469Y-65278000D01*
X89348050Y-65344625D01*
X89295875Y-65390382D01*
X89237863Y-65417433D01*
X89051459Y-65547953D01*
X88890553Y-65708859D01*
X88760032Y-65895264D01*
X88663861Y-66101502D01*
X88604964Y-66321310D01*
X88585131Y-66547999D01*
X88604964Y-66774689D01*
X88663861Y-66994497D01*
X88760032Y-67200735D01*
X88890553Y-67387140D01*
X89051459Y-67548046D01*
X89168137Y-67629744D01*
X89237866Y-67678568D01*
X89295875Y-67705618D01*
X89348050Y-67751375D01*
X89367469Y-67818000D01*
X89348050Y-67884625D01*
X89295875Y-67930382D01*
X89237863Y-67957433D01*
X89051459Y-68087953D01*
X88890553Y-68248859D01*
X88760032Y-68435264D01*
X88663861Y-68641502D01*
X88604964Y-68861310D01*
X88585131Y-69087999D01*
X88604964Y-69314689D01*
X88663861Y-69534497D01*
X88760032Y-69740735D01*
X88890553Y-69927140D01*
X89051459Y-70088046D01*
X89177909Y-70176586D01*
X89237866Y-70218568D01*
X89295875Y-70245618D01*
X89348050Y-70291375D01*
X89367469Y-70358000D01*
X89348050Y-70424625D01*
X89295875Y-70470381D01*
X89286589Y-70474712D01*
X89237863Y-70497433D01*
X89051459Y-70627953D01*
X88890553Y-70788859D01*
X88760032Y-70975264D01*
X88663861Y-71181502D01*
X88604964Y-71401310D01*
X88585131Y-71627999D01*
X88604964Y-71854689D01*
X88663861Y-72074497D01*
X88760032Y-72280735D01*
X88890553Y-72467140D01*
X89051459Y-72628046D01*
X89161348Y-72704990D01*
X89237866Y-72758568D01*
X89295873Y-72785617D01*
X89348049Y-72831373D01*
X89367469Y-72897997D01*
X89348051Y-72964622D01*
X89295876Y-73010380D01*
X89237866Y-73037431D01*
X89051459Y-73167953D01*
X88890553Y-73328859D01*
X88760032Y-73515264D01*
X88663861Y-73721502D01*
X88604964Y-73941310D01*
X88585131Y-74167999D01*
X88604964Y-74394689D01*
X88663861Y-74614497D01*
X88760032Y-74820735D01*
X88890553Y-75007140D01*
X89051459Y-75168046D01*
X89135858Y-75227142D01*
X89237866Y-75298568D01*
X89295873Y-75325617D01*
X89348049Y-75371373D01*
X89367469Y-75437997D01*
X89348051Y-75504622D01*
X89295876Y-75550380D01*
X89237866Y-75577431D01*
X89051459Y-75707953D01*
X88890553Y-75868859D01*
X88760032Y-76055264D01*
X88663861Y-76261502D01*
X88604964Y-76481310D01*
X88585131Y-76707999D01*
X88604964Y-76934689D01*
X88663861Y-77154497D01*
X88760032Y-77360735D01*
X88890553Y-77547140D01*
X89051459Y-77708046D01*
X89172133Y-77792542D01*
X89237866Y-77838568D01*
X89295875Y-77865618D01*
X89348050Y-77911375D01*
X89367469Y-77978000D01*
X89348050Y-78044625D01*
X89295875Y-78090382D01*
X89237863Y-78117433D01*
X89051459Y-78247953D01*
X88890553Y-78408859D01*
X88760032Y-78595264D01*
X88663861Y-78801502D01*
X88604964Y-79021310D01*
X88585131Y-79247999D01*
X88604964Y-79474689D01*
X88663861Y-79694497D01*
X88760032Y-79900735D01*
X88890553Y-80087140D01*
X89051459Y-80248046D01*
X89237863Y-80378566D01*
X89237866Y-80378568D01*
X89295875Y-80405618D01*
X89348050Y-80451375D01*
X89367469Y-80518000D01*
X89348050Y-80584625D01*
X89295875Y-80630382D01*
X89237863Y-80657433D01*
X89051459Y-80787953D01*
X88890553Y-80948859D01*
X88760032Y-81135264D01*
X88663861Y-81341502D01*
X88604964Y-81561310D01*
X88585131Y-81787999D01*
X88604964Y-82014689D01*
X88663861Y-82234497D01*
X88760032Y-82440735D01*
X88890553Y-82627140D01*
X89051459Y-82788046D01*
X89135858Y-82847142D01*
X89237866Y-82918568D01*
X89295875Y-82945618D01*
X89348050Y-82991375D01*
X89367469Y-83058000D01*
X89348050Y-83124625D01*
X89295875Y-83170382D01*
X89237863Y-83197433D01*
X89051459Y-83327953D01*
X88890553Y-83488859D01*
X88760032Y-83675264D01*
X88663861Y-83881502D01*
X88604964Y-84101310D01*
X88585131Y-84327999D01*
X88604964Y-84554689D01*
X88663861Y-84774497D01*
X88760032Y-84980735D01*
X88890553Y-85167140D01*
X89051459Y-85328046D01*
X89237863Y-85458566D01*
X89237866Y-85458568D01*
X89295873Y-85485617D01*
X89348049Y-85531373D01*
X89367469Y-85597997D01*
X89348051Y-85664622D01*
X89295876Y-85710380D01*
X89237866Y-85737431D01*
X89051459Y-85867953D01*
X88890553Y-86028859D01*
X88760032Y-86215264D01*
X88663861Y-86421502D01*
X88604964Y-86641310D01*
X88585131Y-86867999D01*
X88604964Y-87094689D01*
X88663861Y-87314497D01*
X88760032Y-87520735D01*
X88890553Y-87707140D01*
X89051459Y-87868046D01*
X89237862Y-87998565D01*
X89237866Y-87998568D01*
X89295873Y-88025617D01*
X89348049Y-88071373D01*
X89367469Y-88137997D01*
X89348051Y-88204622D01*
X89295876Y-88250380D01*
X89237866Y-88277431D01*
X89051459Y-88407953D01*
X88890553Y-88568859D01*
X88760032Y-88755264D01*
X88663861Y-88961502D01*
X88604964Y-89181310D01*
X88585131Y-89408000D01*
X88604964Y-89634689D01*
X88663861Y-89854497D01*
X88760032Y-90060735D01*
X88890553Y-90247140D01*
X89051459Y-90408046D01*
X89168137Y-90489744D01*
X89237866Y-90538568D01*
X89295875Y-90565618D01*
X89348050Y-90611375D01*
X89367469Y-90678000D01*
X89348050Y-90744625D01*
X89295875Y-90790382D01*
X89237863Y-90817433D01*
X89051459Y-90947953D01*
X88890553Y-91108859D01*
X88760032Y-91295264D01*
X88663861Y-91501502D01*
X88604964Y-91721310D01*
X88585131Y-91948000D01*
X88604964Y-92174689D01*
X88663861Y-92394497D01*
X88760032Y-92600735D01*
X88890553Y-92787140D01*
X89051459Y-92948046D01*
X89168137Y-93029744D01*
X89237866Y-93078568D01*
X89295875Y-93105618D01*
X89348050Y-93151375D01*
X89367469Y-93218000D01*
X89348050Y-93284625D01*
X89295875Y-93330382D01*
X89237863Y-93357433D01*
X89051459Y-93487953D01*
X88890553Y-93648859D01*
X88760032Y-93835264D01*
X88663861Y-94041502D01*
X88604964Y-94261310D01*
X88585131Y-94488000D01*
X88604964Y-94714689D01*
X88663861Y-94934497D01*
X88760032Y-95140735D01*
X88890553Y-95327140D01*
X89051459Y-95488046D01*
X89168137Y-95569744D01*
X89237866Y-95618568D01*
X89295873Y-95645617D01*
X89348049Y-95691373D01*
X89367469Y-95757997D01*
X89348051Y-95824622D01*
X89295876Y-95870380D01*
X89237866Y-95897431D01*
X89051459Y-96027953D01*
X88890553Y-96188859D01*
X88760032Y-96375264D01*
X88663861Y-96581502D01*
X88604964Y-96801310D01*
X88585131Y-97028000D01*
X87992500Y-97028000D01*
X87992500Y-61373731D01*
X87998240Y-49124442D01*
X88014872Y-49062466D01*
X88060257Y-49017103D01*
X88122240Y-49000500D01*
X159264300Y-49000500D01*
X159326300Y-49017113D01*
G37*
G04 #@! TD.AperFunction*
M02*
