M48
; DRILL file {KiCad 7.0.1-0} date 2023 November 21, Tuesday 08:43:10
; FORMAT={-:-/ absolute / metric / decimal}
; #@! TF.CreationDate,2023-11-21T08:43:10-06:00
; #@! TF.GenerationSoftware,Kicad,Pcbnew,7.0.1-0
; #@! TF.FileFunction,Plated,1,4,PTH
FMAT,2
METRIC
; #@! TA.AperFunction,Plated,PTH,ViaDrill
T1C0.400
; #@! TA.AperFunction,Plated,PTH,ComponentDrill
T2C0.800
%
G90
G05
T1
X98.171Y-92.075
X98.171Y-94.463
X98.171Y-98.298
X98.184Y-86.871
X98.196Y-53.848
X98.196Y-56.337
X98.196Y-58.801
X98.196Y-61.341
X98.196Y-64.059
X98.196Y-66.573
X98.196Y-69.012
X98.196Y-71.603
X98.196Y-74.143
X98.196Y-76.683
X98.196Y-79.248
X98.196Y-81.813
X99.162Y-102.083
X108.331Y-91.821
X108.433Y-51.308
X109.564Y-52.657
X110.884Y-53.851
X110.896Y-91.821
X112.231Y-55.146
X113.436Y-91.821
X113.501Y-56.416
X114.783Y-57.658
X116.027Y-91.821
X116.041Y-58.905
X117.323Y-60.198
X118.581Y-61.471
X118.643Y-91.821
X119.774Y-62.588
X121.006Y-91.821
X121.121Y-64.011
X122.289Y-65.103
X123.571Y-91.821
X123.686Y-66.525
X124.943Y-67.818
X126.213Y-91.821
X126.226Y-69.065
X127.471Y-70.259
X128.651Y-91.846
X128.741Y-71.631
X129.985Y-72.901
X131.191Y-91.846
X131.281Y-74.145
X132.5Y-75.415
X133.795Y-76.711
X133.883Y-91.846
X135.141Y-77.981
X136.361Y-79.276
X136.55Y-91.821
X137.707Y-80.419
X138.926Y-81.791
X139.04Y-91.821
X140.094Y-83.035
X140.945Y-101.625
X143.561Y-91.821
X144.006Y-86.871
X146.507Y-90.678
X146.521Y-89.411
X147.676Y-86.97
X149.047Y-93.218
X149.061Y-91.951
X150.292Y-86.893
X151.601Y-94.465
X151.601Y-95.758
X152.832Y-86.817
X154.166Y-97.031
X156.693Y-98.28
T2
X89.891Y-51.308
X89.891Y-53.848
X89.891Y-56.388
X89.891Y-58.928
X89.891Y-61.468
X89.891Y-64.008
X89.891Y-66.548
X89.891Y-69.088
X89.891Y-71.628
X89.891Y-74.168
X89.891Y-76.708
X89.891Y-79.248
X89.891Y-81.788
X89.891Y-84.328
X89.891Y-86.868
X89.891Y-89.408
X89.891Y-91.948
X89.891Y-94.488
X89.891Y-97.028
X89.891Y-99.568
X105.131Y-51.308
X105.131Y-53.848
X105.131Y-56.388
X105.131Y-58.928
X105.131Y-61.468
X105.131Y-64.008
X105.131Y-66.548
X105.131Y-69.088
X105.131Y-71.628
X105.131Y-74.168
X105.131Y-76.708
X105.131Y-79.248
X105.131Y-81.788
X105.131Y-84.328
X105.131Y-86.868
X105.131Y-89.408
X105.131Y-91.948
X105.131Y-94.488
X105.131Y-97.028
X105.131Y-99.568
X108.433Y-84.48
X108.433Y-99.72
X110.973Y-84.48
X110.973Y-99.72
X113.513Y-84.48
X113.513Y-99.72
X116.053Y-84.48
X116.053Y-99.72
X118.593Y-84.48
X118.593Y-99.72
X121.133Y-84.48
X121.133Y-99.72
X123.673Y-84.48
X123.673Y-99.72
X126.213Y-84.48
X126.213Y-99.72
X128.753Y-84.48
X128.753Y-99.72
X131.293Y-84.48
X131.293Y-99.72
X133.833Y-84.48
X133.833Y-99.72
X136.373Y-84.48
X136.373Y-99.72
X138.913Y-84.48
X138.913Y-99.72
X141.453Y-84.48
X141.453Y-99.72
X143.993Y-84.48
X143.993Y-99.72
X146.533Y-84.48
X146.533Y-99.72
X149.073Y-84.48
X149.073Y-99.72
X151.613Y-84.48
X151.613Y-99.72
X154.153Y-84.48
X154.153Y-99.72
X156.693Y-84.48
X156.693Y-99.72
T0
M30
