G04 #@! TF.GenerationSoftware,KiCad,Pcbnew,7.0.1-0*
G04 #@! TF.CreationDate,2023-11-21T08:42:51-06:00*
G04 #@! TF.ProjectId,kawari_twist,7669635f-7477-4697-9374-65722e6b6963,rev?*
G04 #@! TF.SameCoordinates,Original*
G04 #@! TF.FileFunction,Copper,L1,Top*
G04 #@! TF.FilePolarity,Positive*
%FSLAX46Y46*%
G04 Gerber Fmt 4.6, Leading zero omitted, Abs format (unit mm)*
G04 Created by KiCad (PCBNEW 7.0.1-0) date 2023-11-21 08:42:51*
%MOMM*%
%LPD*%
G01*
G04 APERTURE LIST*
G04 #@! TA.AperFunction,ComponentPad*
%ADD10R,1.600000X1.600000*%
G04 #@! TD*
G04 #@! TA.AperFunction,ComponentPad*
%ADD11O,1.600000X1.600000*%
G04 #@! TD*
G04 #@! TA.AperFunction,ViaPad*
%ADD12C,0.800000*%
G04 #@! TD*
G04 #@! TA.AperFunction,Conductor*
%ADD13C,0.250000*%
G04 #@! TD*
G04 APERTURE END LIST*
D10*
X108432600Y-99720400D03*
D11*
X110972600Y-99720400D03*
X113512600Y-99720400D03*
X116052600Y-99720400D03*
X118592600Y-99720400D03*
X121132600Y-99720400D03*
X123672600Y-99720400D03*
X126212600Y-99720400D03*
X128752600Y-99720400D03*
X131292600Y-99720400D03*
X133832600Y-99720400D03*
X136372600Y-99720400D03*
X138912600Y-99720400D03*
X141452600Y-99720400D03*
X143992600Y-99720400D03*
X146532600Y-99720400D03*
X149072600Y-99720400D03*
X151612600Y-99720400D03*
X154152600Y-99720400D03*
X156692600Y-99720400D03*
X156692600Y-84480400D03*
X154152600Y-84480400D03*
X151612600Y-84480400D03*
X149072600Y-84480400D03*
X146532600Y-84480400D03*
X143992600Y-84480400D03*
X141452600Y-84480400D03*
X138912600Y-84480400D03*
X136372600Y-84480400D03*
X133832600Y-84480400D03*
X131292600Y-84480400D03*
X128752600Y-84480400D03*
X126212600Y-84480400D03*
X123672600Y-84480400D03*
X121132600Y-84480400D03*
X118592600Y-84480400D03*
X116052600Y-84480400D03*
X113512600Y-84480400D03*
X110972600Y-84480400D03*
X108432600Y-84480400D03*
D10*
X89890600Y-51308000D03*
D11*
X89890600Y-53848000D03*
X89890600Y-56388000D03*
X89890600Y-58928000D03*
X89890600Y-61468000D03*
X89890600Y-64008000D03*
X89890600Y-66548000D03*
X89890600Y-69088000D03*
X89890600Y-71628000D03*
X89890600Y-74168000D03*
X89890600Y-76708000D03*
X89890600Y-79248000D03*
X89890600Y-81788000D03*
X89890600Y-84328000D03*
X89890600Y-86868000D03*
X89890600Y-89408000D03*
X89890600Y-91948000D03*
X89890600Y-94488000D03*
X89890600Y-97028000D03*
X89890600Y-99568000D03*
X105130600Y-99568000D03*
X105130600Y-97028000D03*
X105130600Y-94488000D03*
X105130600Y-91948000D03*
X105130600Y-89408000D03*
X105130600Y-86868000D03*
X105130600Y-84328000D03*
X105130600Y-81788000D03*
X105130600Y-79248000D03*
X105130600Y-76708000D03*
X105130600Y-74168000D03*
X105130600Y-71628000D03*
X105130600Y-69088000D03*
X105130600Y-66548000D03*
X105130600Y-64008000D03*
X105130600Y-61468000D03*
X105130600Y-58928000D03*
X105130600Y-56388000D03*
X105130600Y-53848000D03*
X105130600Y-51308000D03*
D12*
X109563600Y-52657000D03*
X112230600Y-55146200D03*
X114782600Y-57658000D03*
X117322600Y-60198000D03*
X119774400Y-62588400D03*
X122289000Y-65103000D03*
X124942600Y-67818000D03*
X127470600Y-70259200D03*
X129985200Y-72900800D03*
X132499800Y-75415400D03*
X135141400Y-77980800D03*
X137706800Y-80419200D03*
X140094400Y-83035400D03*
X146507200Y-90678000D03*
X149047200Y-93218000D03*
X151600600Y-95758000D03*
X156692600Y-98280400D03*
X154166000Y-97030800D03*
X151600600Y-94465400D03*
X149060600Y-91950800D03*
X146520600Y-89410800D03*
X144006000Y-86870800D03*
X138926000Y-81790800D03*
X136360600Y-79276200D03*
X133795200Y-76710800D03*
X131280600Y-74145400D03*
X128740600Y-71630800D03*
X126226000Y-69065400D03*
X123686000Y-66525400D03*
X121120600Y-64010800D03*
X118580600Y-61470800D03*
X116040600Y-58905400D03*
X113500600Y-56416200D03*
X110884400Y-53850800D03*
X108432600Y-51308000D03*
X98196400Y-71602600D03*
X98196400Y-58801000D03*
X98196400Y-64058800D03*
X98196400Y-74142600D03*
X152831800Y-86817200D03*
X108331000Y-91821000D03*
X98196400Y-81813400D03*
X98171000Y-98298000D03*
X140944600Y-101625400D03*
X98196400Y-66573400D03*
X98171000Y-94462600D03*
X98196400Y-53848000D03*
X98196400Y-69011800D03*
X113436400Y-91821000D03*
X110896400Y-91821000D03*
X150291800Y-86893400D03*
X98196400Y-79248000D03*
X98184400Y-86870800D03*
X139039600Y-91821000D03*
X118643400Y-91821000D03*
X121005600Y-91821000D03*
X136550400Y-91821000D03*
X147675600Y-86969600D03*
X131191000Y-91846400D03*
X98196400Y-61341000D03*
X116027200Y-91821000D03*
X133883400Y-91846400D03*
X98196400Y-76682600D03*
X98196400Y-56337200D03*
X98171000Y-92075000D03*
X123571000Y-91821000D03*
X128651000Y-91846400D03*
X99161600Y-102082600D03*
X143560800Y-91821000D03*
X126212600Y-91821000D03*
D13*
X91135200Y-52552600D02*
X89890600Y-51308000D01*
X109563600Y-52657000D02*
X109459200Y-52552600D01*
X109459200Y-52552600D02*
X91135200Y-52552600D01*
X89890600Y-53848000D02*
X91160600Y-55118000D01*
X91160600Y-55118000D02*
X112202400Y-55118000D01*
X112202400Y-55118000D02*
X112230600Y-55146200D01*
X91160600Y-57658000D02*
X114782600Y-57658000D01*
X89890600Y-56388000D02*
X91160600Y-57658000D01*
X91160600Y-60198000D02*
X117322600Y-60198000D01*
X89890600Y-58928000D02*
X91160600Y-60198000D01*
X89890600Y-61468000D02*
X91160600Y-62738000D01*
X91160600Y-62738000D02*
X119624800Y-62738000D01*
X119624800Y-62738000D02*
X119774400Y-62588400D01*
X89890600Y-64008000D02*
X91160600Y-65278000D01*
X122114000Y-65278000D02*
X122289000Y-65103000D01*
X91160600Y-65278000D02*
X122114000Y-65278000D01*
X91160600Y-67818000D02*
X124942600Y-67818000D01*
X89890600Y-66548000D02*
X91160600Y-67818000D01*
X127371800Y-70358000D02*
X127470600Y-70259200D01*
X91160600Y-70358000D02*
X127371800Y-70358000D01*
X89890600Y-69088000D02*
X91160600Y-70358000D01*
X91160600Y-72898000D02*
X129982400Y-72898000D01*
X129982400Y-72898000D02*
X129985200Y-72900800D01*
X89890600Y-71628000D02*
X91160600Y-72898000D01*
X91160600Y-75438000D02*
X132477200Y-75438000D01*
X132477200Y-75438000D02*
X132499800Y-75415400D01*
X89890600Y-74168000D02*
X91160600Y-75438000D01*
X91163400Y-77980800D02*
X135141400Y-77980800D01*
X89890600Y-76708000D02*
X91163400Y-77980800D01*
X137608000Y-80518000D02*
X137706800Y-80419200D01*
X91160600Y-80518000D02*
X137608000Y-80518000D01*
X89890600Y-79248000D02*
X91160600Y-80518000D01*
X89890600Y-81788000D02*
X91160600Y-83058000D01*
X140071800Y-83058000D02*
X140094400Y-83035400D01*
X91160600Y-83058000D02*
X140071800Y-83058000D01*
X89890600Y-89408000D02*
X91160600Y-90678000D01*
X91160600Y-90678000D02*
X146507200Y-90678000D01*
X89890600Y-91948000D02*
X91160600Y-93218000D01*
X91160600Y-93218000D02*
X148854600Y-93218000D01*
X148854600Y-93218000D02*
X149035200Y-93398600D01*
X151445400Y-95758000D02*
X151600600Y-95913200D01*
X91160600Y-95758000D02*
X151445400Y-95758000D01*
X89890600Y-94488000D02*
X91160600Y-95758000D01*
X153027600Y-100845400D02*
X154152600Y-99720400D01*
X93708000Y-100845400D02*
X153027600Y-100845400D01*
X89890600Y-97028000D02*
X93708000Y-100845400D01*
X156687600Y-98275400D02*
X156692600Y-98280400D01*
X105130600Y-99568000D02*
X106423200Y-98275400D01*
X106423200Y-98275400D02*
X156687600Y-98275400D01*
X105130600Y-97028000D02*
X105143000Y-97040400D01*
X154156400Y-97040400D02*
X154166000Y-97030800D01*
X105143000Y-97040400D02*
X154156400Y-97040400D01*
X105143000Y-94500400D02*
X151565600Y-94500400D01*
X151565600Y-94500400D02*
X151600600Y-94465400D01*
X105130600Y-94488000D02*
X105143000Y-94500400D01*
X148242901Y-92768499D02*
X149060600Y-91950800D01*
X105951099Y-92768499D02*
X148242901Y-92768499D01*
X105130600Y-91948000D02*
X105951099Y-92768499D01*
X105130600Y-89408000D02*
X105143000Y-89420400D01*
X146511000Y-89420400D02*
X146520600Y-89410800D01*
X105143000Y-89420400D02*
X146511000Y-89420400D01*
X105130600Y-86868000D02*
X105143000Y-86880400D01*
X143996400Y-86880400D02*
X144006000Y-86870800D01*
X105143000Y-86880400D02*
X143996400Y-86880400D01*
X106857800Y-86055200D02*
X139877800Y-86055200D01*
X105130600Y-84328000D02*
X106857800Y-86055200D01*
X139877800Y-86055200D02*
X141452600Y-84480400D01*
X105130600Y-81788000D02*
X105143000Y-81800400D01*
X105143000Y-81800400D02*
X138916400Y-81800400D01*
X138916400Y-81800400D02*
X138926000Y-81790800D01*
X105130600Y-79248000D02*
X105143000Y-79260400D01*
X136344800Y-79260400D02*
X136360600Y-79276200D01*
X105143000Y-79260400D02*
X136344800Y-79260400D01*
X133785600Y-76720400D02*
X133795200Y-76710800D01*
X105130600Y-76708000D02*
X105143000Y-76720400D01*
X105143000Y-76720400D02*
X133785600Y-76720400D01*
X131245600Y-74180400D02*
X131280600Y-74145400D01*
X105143000Y-74180400D02*
X131245600Y-74180400D01*
X105130600Y-74168000D02*
X105143000Y-74180400D01*
X128731000Y-71640400D02*
X128740600Y-71630800D01*
X105143000Y-71640400D02*
X128731000Y-71640400D01*
X105130600Y-71628000D02*
X105143000Y-71640400D01*
X105130600Y-69088000D02*
X105143000Y-69100400D01*
X105143000Y-69100400D02*
X126191000Y-69100400D01*
X126191000Y-69100400D02*
X126226000Y-69065400D01*
X105143000Y-66560400D02*
X123651000Y-66560400D01*
X105130600Y-66548000D02*
X105143000Y-66560400D01*
X123651000Y-66560400D02*
X123686000Y-66525400D01*
X121111000Y-64020400D02*
X121120600Y-64010800D01*
X105143000Y-64020400D02*
X121111000Y-64020400D01*
X105130600Y-64008000D02*
X105143000Y-64020400D01*
X105143000Y-61480400D02*
X118571000Y-61480400D01*
X105130600Y-61468000D02*
X105143000Y-61480400D01*
X118571000Y-61480400D02*
X118580600Y-61470800D01*
X105143000Y-58940400D02*
X116005600Y-58940400D01*
X116005600Y-58940400D02*
X116040600Y-58905400D01*
X105130600Y-58928000D02*
X105143000Y-58940400D01*
X105130600Y-56388000D02*
X105143000Y-56400400D01*
X113484800Y-56400400D02*
X113500600Y-56416200D01*
X105143000Y-56400400D02*
X113484800Y-56400400D01*
X105130600Y-53848000D02*
X105143000Y-53860400D01*
X110874800Y-53860400D02*
X110884400Y-53850800D01*
X105143000Y-53860400D02*
X110874800Y-53860400D01*
X105130600Y-51308000D02*
X108432600Y-51308000D01*
X143535400Y-91846400D02*
X143535400Y-91846400D01*
G04 #@! TA.AperFunction,Conductor*
G36*
X103861194Y-96398786D02*
G01*
X103906132Y-96440875D01*
X103925286Y-96499390D01*
X103913933Y-96559904D01*
X103912176Y-96563672D01*
X103903861Y-96581502D01*
X103844964Y-96801310D01*
X103825131Y-97028000D01*
X103844964Y-97254689D01*
X103903861Y-97474497D01*
X104000032Y-97680735D01*
X104130553Y-97867140D01*
X104291459Y-98028046D01*
X104477863Y-98158566D01*
X104477866Y-98158568D01*
X104535875Y-98185618D01*
X104588050Y-98231375D01*
X104607469Y-98298000D01*
X104588050Y-98364625D01*
X104535875Y-98410382D01*
X104477863Y-98437433D01*
X104291459Y-98567953D01*
X104130553Y-98728859D01*
X104000032Y-98915264D01*
X103903861Y-99121502D01*
X103844964Y-99341310D01*
X103825131Y-99568000D01*
X103844964Y-99794689D01*
X103903862Y-100014500D01*
X103917383Y-100043496D01*
X103928735Y-100104010D01*
X103909581Y-100162525D01*
X103864643Y-100204614D01*
X103805001Y-100219900D01*
X94018452Y-100219900D01*
X93970999Y-100210461D01*
X93930771Y-100183581D01*
X91190013Y-97442822D01*
X91157919Y-97387234D01*
X91157919Y-97323047D01*
X91176235Y-97254692D01*
X91196068Y-97028000D01*
X91176235Y-96801308D01*
X91117339Y-96581504D01*
X91107266Y-96559903D01*
X91095914Y-96499391D01*
X91115068Y-96440876D01*
X91160006Y-96398786D01*
X91219649Y-96383500D01*
X103801551Y-96383500D01*
X103861194Y-96398786D01*
G37*
G04 #@! TD.AperFunction*
G04 #@! TA.AperFunction,Conductor*
G36*
X103861194Y-93858786D02*
G01*
X103906132Y-93900875D01*
X103925286Y-93959390D01*
X103913933Y-94019904D01*
X103912176Y-94023672D01*
X103903861Y-94041502D01*
X103844964Y-94261310D01*
X103825131Y-94488000D01*
X103844964Y-94714689D01*
X103903861Y-94934497D01*
X103913933Y-94956095D01*
X103925286Y-95016610D01*
X103906132Y-95075125D01*
X103861194Y-95117214D01*
X103801551Y-95132500D01*
X91471053Y-95132500D01*
X91423600Y-95123061D01*
X91383372Y-95096181D01*
X91190013Y-94902822D01*
X91157919Y-94847234D01*
X91157919Y-94783047D01*
X91176235Y-94714692D01*
X91196068Y-94488000D01*
X91176235Y-94261308D01*
X91117339Y-94041504D01*
X91107266Y-94019903D01*
X91095914Y-93959391D01*
X91115068Y-93900876D01*
X91160006Y-93858786D01*
X91219649Y-93843500D01*
X103801551Y-93843500D01*
X103861194Y-93858786D01*
G37*
G04 #@! TD.AperFunction*
G04 #@! TA.AperFunction,Conductor*
G36*
X103861194Y-91318786D02*
G01*
X103906132Y-91360875D01*
X103925286Y-91419390D01*
X103913933Y-91479904D01*
X103912176Y-91483672D01*
X103903861Y-91501502D01*
X103844964Y-91721310D01*
X103825131Y-91948000D01*
X103844964Y-92174689D01*
X103903861Y-92394497D01*
X103913933Y-92416095D01*
X103925286Y-92476610D01*
X103906132Y-92535125D01*
X103861194Y-92577214D01*
X103801551Y-92592500D01*
X91471053Y-92592500D01*
X91423600Y-92583061D01*
X91383372Y-92556181D01*
X91190013Y-92362822D01*
X91157919Y-92307234D01*
X91157919Y-92243047D01*
X91176235Y-92174692D01*
X91196068Y-91948000D01*
X91176235Y-91721308D01*
X91117339Y-91501504D01*
X91107266Y-91479903D01*
X91095914Y-91419391D01*
X91115068Y-91360876D01*
X91160006Y-91318786D01*
X91219649Y-91303500D01*
X103801551Y-91303500D01*
X103861194Y-91318786D01*
G37*
G04 #@! TD.AperFunction*
G04 #@! TA.AperFunction,Conductor*
G36*
X103861194Y-83698786D02*
G01*
X103906132Y-83740875D01*
X103925286Y-83799390D01*
X103913933Y-83859904D01*
X103912176Y-83863672D01*
X103903861Y-83881502D01*
X103844964Y-84101310D01*
X103825131Y-84327999D01*
X103844964Y-84554689D01*
X103903861Y-84774497D01*
X104000032Y-84980735D01*
X104130553Y-85167140D01*
X104291459Y-85328046D01*
X104341318Y-85362957D01*
X104477866Y-85458568D01*
X104535873Y-85485617D01*
X104588049Y-85531373D01*
X104607469Y-85597997D01*
X104588051Y-85664622D01*
X104535876Y-85710380D01*
X104477866Y-85737431D01*
X104291459Y-85867953D01*
X104130553Y-86028859D01*
X104000032Y-86215264D01*
X103903861Y-86421502D01*
X103844964Y-86641310D01*
X103825131Y-86867999D01*
X103844964Y-87094689D01*
X103903861Y-87314497D01*
X104000032Y-87520735D01*
X104130553Y-87707140D01*
X104291459Y-87868046D01*
X104477862Y-87998565D01*
X104477866Y-87998568D01*
X104535873Y-88025617D01*
X104588049Y-88071373D01*
X104607469Y-88137997D01*
X104588051Y-88204622D01*
X104535876Y-88250380D01*
X104477866Y-88277431D01*
X104291459Y-88407953D01*
X104130553Y-88568859D01*
X104000032Y-88755264D01*
X103903861Y-88961502D01*
X103844964Y-89181310D01*
X103825131Y-89408000D01*
X103844964Y-89634689D01*
X103903861Y-89854497D01*
X103913933Y-89876095D01*
X103925286Y-89936610D01*
X103906132Y-89995125D01*
X103861194Y-90037214D01*
X103801551Y-90052500D01*
X91471053Y-90052500D01*
X91423600Y-90043061D01*
X91383372Y-90016181D01*
X91190013Y-89822822D01*
X91157919Y-89767234D01*
X91157919Y-89703047D01*
X91176235Y-89634692D01*
X91196068Y-89408000D01*
X91176235Y-89181308D01*
X91117339Y-88961504D01*
X91021168Y-88755266D01*
X91011895Y-88742023D01*
X90890646Y-88568859D01*
X90729740Y-88407953D01*
X90543332Y-88277430D01*
X90485324Y-88250380D01*
X90433149Y-88204623D01*
X90413730Y-88137997D01*
X90433150Y-88071373D01*
X90485321Y-88025619D01*
X90543334Y-87998568D01*
X90729739Y-87868047D01*
X90890647Y-87707139D01*
X91021168Y-87520734D01*
X91117339Y-87314496D01*
X91176235Y-87094692D01*
X91196068Y-86868000D01*
X91176235Y-86641308D01*
X91117339Y-86421504D01*
X91021168Y-86215266D01*
X91009015Y-86197910D01*
X90890646Y-86028859D01*
X90729740Y-85867953D01*
X90543336Y-85737433D01*
X90485323Y-85710381D01*
X90433148Y-85664623D01*
X90413729Y-85597997D01*
X90433149Y-85531372D01*
X90485321Y-85485619D01*
X90543334Y-85458568D01*
X90729739Y-85328047D01*
X90890647Y-85167139D01*
X91021168Y-84980734D01*
X91117339Y-84774496D01*
X91176235Y-84554692D01*
X91196068Y-84328000D01*
X91176235Y-84101308D01*
X91117339Y-83881504D01*
X91107266Y-83859903D01*
X91095914Y-83799391D01*
X91115068Y-83740876D01*
X91160006Y-83698786D01*
X91219649Y-83683500D01*
X103801551Y-83683500D01*
X103861194Y-83698786D01*
G37*
G04 #@! TD.AperFunction*
G04 #@! TA.AperFunction,Conductor*
G36*
X103861194Y-81158786D02*
G01*
X103906132Y-81200875D01*
X103925286Y-81259390D01*
X103913933Y-81319904D01*
X103912176Y-81323672D01*
X103903861Y-81341502D01*
X103844964Y-81561310D01*
X103825131Y-81787999D01*
X103844964Y-82014689D01*
X103903861Y-82234497D01*
X103913933Y-82256095D01*
X103925286Y-82316610D01*
X103906132Y-82375125D01*
X103861194Y-82417214D01*
X103801551Y-82432500D01*
X91471053Y-82432500D01*
X91423600Y-82423061D01*
X91383372Y-82396181D01*
X91190013Y-82202822D01*
X91157919Y-82147234D01*
X91157919Y-82083047D01*
X91166979Y-82049235D01*
X91176235Y-82014692D01*
X91196068Y-81788000D01*
X91176235Y-81561308D01*
X91117339Y-81341504D01*
X91107266Y-81319903D01*
X91095914Y-81259391D01*
X91115068Y-81200876D01*
X91160006Y-81158786D01*
X91219649Y-81143500D01*
X103801551Y-81143500D01*
X103861194Y-81158786D01*
G37*
G04 #@! TD.AperFunction*
G04 #@! TA.AperFunction,Conductor*
G36*
X103859888Y-78621586D02*
G01*
X103904826Y-78663675D01*
X103923980Y-78722190D01*
X103912627Y-78782705D01*
X103903861Y-78801502D01*
X103844964Y-79021310D01*
X103825131Y-79247999D01*
X103844964Y-79474689D01*
X103903861Y-79694497D01*
X103913933Y-79716095D01*
X103925286Y-79776610D01*
X103906132Y-79835125D01*
X103861194Y-79877214D01*
X103801551Y-79892500D01*
X91471053Y-79892500D01*
X91423600Y-79883061D01*
X91383372Y-79856181D01*
X91190013Y-79662822D01*
X91157919Y-79607234D01*
X91157919Y-79543047D01*
X91170294Y-79496863D01*
X91176235Y-79474692D01*
X91196068Y-79248000D01*
X91176235Y-79021308D01*
X91117339Y-78801504D01*
X91108573Y-78782705D01*
X91097220Y-78722190D01*
X91116374Y-78663675D01*
X91161312Y-78621586D01*
X91220955Y-78606300D01*
X103800245Y-78606300D01*
X103859888Y-78621586D01*
G37*
G04 #@! TD.AperFunction*
G04 #@! TA.AperFunction,Conductor*
G36*
X103861194Y-76078786D02*
G01*
X103906132Y-76120875D01*
X103925286Y-76179390D01*
X103913933Y-76239904D01*
X103912176Y-76243672D01*
X103903861Y-76261502D01*
X103844964Y-76481310D01*
X103825131Y-76707999D01*
X103844964Y-76934689D01*
X103903862Y-77154500D01*
X103915238Y-77178896D01*
X103926590Y-77239410D01*
X103907436Y-77297925D01*
X103862498Y-77340014D01*
X103802856Y-77355300D01*
X91473852Y-77355300D01*
X91426399Y-77345861D01*
X91386171Y-77318981D01*
X91190013Y-77122822D01*
X91157919Y-77067234D01*
X91157919Y-77003047D01*
X91162444Y-76986159D01*
X91176235Y-76934692D01*
X91196068Y-76708000D01*
X91176235Y-76481308D01*
X91117339Y-76261504D01*
X91107266Y-76239903D01*
X91095914Y-76179391D01*
X91115068Y-76120876D01*
X91160006Y-76078786D01*
X91219649Y-76063500D01*
X103801551Y-76063500D01*
X103861194Y-76078786D01*
G37*
G04 #@! TD.AperFunction*
G04 #@! TA.AperFunction,Conductor*
G36*
X103861194Y-73538786D02*
G01*
X103906132Y-73580875D01*
X103925286Y-73639390D01*
X103913933Y-73699904D01*
X103912176Y-73703672D01*
X103903861Y-73721502D01*
X103844964Y-73941310D01*
X103825131Y-74167999D01*
X103844964Y-74394689D01*
X103903861Y-74614497D01*
X103913933Y-74636095D01*
X103925286Y-74696610D01*
X103906132Y-74755125D01*
X103861194Y-74797214D01*
X103801551Y-74812500D01*
X91471053Y-74812500D01*
X91423600Y-74803061D01*
X91383372Y-74776181D01*
X91190013Y-74582822D01*
X91157919Y-74527234D01*
X91157919Y-74463047D01*
X91163365Y-74442722D01*
X91176235Y-74394692D01*
X91196068Y-74168000D01*
X91176235Y-73941308D01*
X91117339Y-73721504D01*
X91107266Y-73699903D01*
X91095914Y-73639391D01*
X91115068Y-73580876D01*
X91160006Y-73538786D01*
X91219649Y-73523500D01*
X103801551Y-73523500D01*
X103861194Y-73538786D01*
G37*
G04 #@! TD.AperFunction*
G04 #@! TA.AperFunction,Conductor*
G36*
X103861194Y-70998786D02*
G01*
X103906132Y-71040875D01*
X103925286Y-71099390D01*
X103913933Y-71159904D01*
X103912176Y-71163672D01*
X103903861Y-71181502D01*
X103844964Y-71401310D01*
X103825131Y-71627999D01*
X103844964Y-71854689D01*
X103903861Y-72074497D01*
X103913933Y-72096095D01*
X103925286Y-72156610D01*
X103906132Y-72215125D01*
X103861194Y-72257214D01*
X103801551Y-72272500D01*
X91471053Y-72272500D01*
X91423600Y-72263061D01*
X91383372Y-72236181D01*
X91190013Y-72042822D01*
X91157919Y-71987234D01*
X91157919Y-71923047D01*
X91172180Y-71869824D01*
X91176235Y-71854692D01*
X91196068Y-71628000D01*
X91176235Y-71401308D01*
X91117339Y-71181504D01*
X91107266Y-71159903D01*
X91095914Y-71099391D01*
X91115068Y-71040876D01*
X91160006Y-70998786D01*
X91219649Y-70983500D01*
X103801551Y-70983500D01*
X103861194Y-70998786D01*
G37*
G04 #@! TD.AperFunction*
G04 #@! TA.AperFunction,Conductor*
G36*
X103861194Y-68458786D02*
G01*
X103906132Y-68500875D01*
X103925286Y-68559390D01*
X103913933Y-68619904D01*
X103912176Y-68623672D01*
X103903861Y-68641502D01*
X103844964Y-68861310D01*
X103825131Y-69087999D01*
X103844964Y-69314689D01*
X103903861Y-69534497D01*
X103913933Y-69556095D01*
X103925286Y-69616610D01*
X103906132Y-69675125D01*
X103861194Y-69717214D01*
X103801551Y-69732500D01*
X91471053Y-69732500D01*
X91423600Y-69723061D01*
X91383372Y-69696181D01*
X91190013Y-69502822D01*
X91157919Y-69447234D01*
X91157919Y-69383047D01*
X91165720Y-69353933D01*
X91176235Y-69314692D01*
X91196068Y-69088000D01*
X91176235Y-68861308D01*
X91117339Y-68641504D01*
X91107266Y-68619903D01*
X91095914Y-68559391D01*
X91115068Y-68500876D01*
X91160006Y-68458786D01*
X91219649Y-68443500D01*
X103801551Y-68443500D01*
X103861194Y-68458786D01*
G37*
G04 #@! TD.AperFunction*
G04 #@! TA.AperFunction,Conductor*
G36*
X103861194Y-65918786D02*
G01*
X103906132Y-65960875D01*
X103925286Y-66019390D01*
X103913933Y-66079904D01*
X103912176Y-66083672D01*
X103903861Y-66101502D01*
X103844964Y-66321310D01*
X103825131Y-66547999D01*
X103844964Y-66774689D01*
X103903861Y-66994497D01*
X103913933Y-67016095D01*
X103925286Y-67076610D01*
X103906132Y-67135125D01*
X103861194Y-67177214D01*
X103801551Y-67192500D01*
X91471053Y-67192500D01*
X91423600Y-67183061D01*
X91383372Y-67156181D01*
X91190013Y-66962822D01*
X91157919Y-66907234D01*
X91157919Y-66843047D01*
X91171747Y-66791440D01*
X91176235Y-66774692D01*
X91196068Y-66548000D01*
X91176235Y-66321308D01*
X91117339Y-66101504D01*
X91107266Y-66079903D01*
X91095914Y-66019391D01*
X91115068Y-65960876D01*
X91160006Y-65918786D01*
X91219649Y-65903500D01*
X103801551Y-65903500D01*
X103861194Y-65918786D01*
G37*
G04 #@! TD.AperFunction*
G04 #@! TA.AperFunction,Conductor*
G36*
X103861194Y-63378786D02*
G01*
X103906132Y-63420875D01*
X103925286Y-63479390D01*
X103913933Y-63539904D01*
X103912176Y-63543672D01*
X103903861Y-63561502D01*
X103844964Y-63781310D01*
X103825131Y-64007999D01*
X103844964Y-64234689D01*
X103903861Y-64454497D01*
X103913933Y-64476095D01*
X103925286Y-64536610D01*
X103906132Y-64595125D01*
X103861194Y-64637214D01*
X103801551Y-64652500D01*
X91471053Y-64652500D01*
X91423600Y-64643061D01*
X91383372Y-64616181D01*
X91190013Y-64422822D01*
X91157919Y-64367234D01*
X91157919Y-64303047D01*
X91176235Y-64234692D01*
X91196068Y-64008000D01*
X91176235Y-63781308D01*
X91117339Y-63561504D01*
X91107266Y-63539903D01*
X91095914Y-63479391D01*
X91115068Y-63420876D01*
X91160006Y-63378786D01*
X91219649Y-63363500D01*
X103801551Y-63363500D01*
X103861194Y-63378786D01*
G37*
G04 #@! TD.AperFunction*
G04 #@! TA.AperFunction,Conductor*
G36*
X103861194Y-60838786D02*
G01*
X103906132Y-60880875D01*
X103925286Y-60939390D01*
X103913933Y-60999904D01*
X103912176Y-61003672D01*
X103903861Y-61021502D01*
X103844964Y-61241310D01*
X103825131Y-61467999D01*
X103844964Y-61694689D01*
X103903861Y-61914497D01*
X103913933Y-61936095D01*
X103925286Y-61996610D01*
X103906132Y-62055125D01*
X103861194Y-62097214D01*
X103801551Y-62112500D01*
X91471053Y-62112500D01*
X91423600Y-62103061D01*
X91383372Y-62076181D01*
X91190013Y-61882822D01*
X91157919Y-61827234D01*
X91157919Y-61763047D01*
X91167509Y-61727256D01*
X91176235Y-61694692D01*
X91196068Y-61468000D01*
X91176235Y-61241308D01*
X91117339Y-61021504D01*
X91107266Y-60999903D01*
X91095914Y-60939391D01*
X91115068Y-60880876D01*
X91160006Y-60838786D01*
X91219649Y-60823500D01*
X103801551Y-60823500D01*
X103861194Y-60838786D01*
G37*
G04 #@! TD.AperFunction*
G04 #@! TA.AperFunction,Conductor*
G36*
X103861194Y-58298786D02*
G01*
X103906132Y-58340875D01*
X103925286Y-58399390D01*
X103913933Y-58459904D01*
X103912176Y-58463672D01*
X103903861Y-58481502D01*
X103844964Y-58701310D01*
X103825131Y-58928000D01*
X103844964Y-59154689D01*
X103903861Y-59374497D01*
X103913933Y-59396095D01*
X103925286Y-59456610D01*
X103906132Y-59515125D01*
X103861194Y-59557214D01*
X103801551Y-59572500D01*
X91471053Y-59572500D01*
X91423600Y-59563061D01*
X91383372Y-59536181D01*
X91190013Y-59342822D01*
X91157919Y-59287234D01*
X91157919Y-59223047D01*
X91176235Y-59154692D01*
X91196068Y-58928000D01*
X91176235Y-58701308D01*
X91117339Y-58481504D01*
X91107266Y-58459903D01*
X91095914Y-58399391D01*
X91115068Y-58340876D01*
X91160006Y-58298786D01*
X91219649Y-58283500D01*
X103801551Y-58283500D01*
X103861194Y-58298786D01*
G37*
G04 #@! TD.AperFunction*
G04 #@! TA.AperFunction,Conductor*
G36*
X103861194Y-55758786D02*
G01*
X103906132Y-55800875D01*
X103925286Y-55859390D01*
X103913933Y-55919904D01*
X103912176Y-55923672D01*
X103903861Y-55941502D01*
X103844964Y-56161310D01*
X103825131Y-56388000D01*
X103844964Y-56614689D01*
X103903861Y-56834497D01*
X103913933Y-56856095D01*
X103925286Y-56916610D01*
X103906132Y-56975125D01*
X103861194Y-57017214D01*
X103801551Y-57032500D01*
X91471053Y-57032500D01*
X91423600Y-57023061D01*
X91383372Y-56996181D01*
X91190013Y-56802822D01*
X91157919Y-56747234D01*
X91157919Y-56683047D01*
X91171203Y-56633470D01*
X91176235Y-56614692D01*
X91196068Y-56388000D01*
X91176235Y-56161308D01*
X91117339Y-55941504D01*
X91107266Y-55919903D01*
X91095914Y-55859391D01*
X91115068Y-55800876D01*
X91160006Y-55758786D01*
X91219649Y-55743500D01*
X103801551Y-55743500D01*
X103861194Y-55758786D01*
G37*
G04 #@! TD.AperFunction*
G04 #@! TA.AperFunction,Conductor*
G36*
X103873038Y-53193386D02*
G01*
X103917976Y-53235475D01*
X103937130Y-53293990D01*
X103925777Y-53354505D01*
X103903861Y-53401502D01*
X103844964Y-53621310D01*
X103825131Y-53848000D01*
X103844964Y-54074689D01*
X103903861Y-54294497D01*
X103913933Y-54316095D01*
X103925286Y-54376610D01*
X103906132Y-54435125D01*
X103861194Y-54477214D01*
X103801551Y-54492500D01*
X91471053Y-54492500D01*
X91423600Y-54483061D01*
X91383372Y-54456181D01*
X91190013Y-54262822D01*
X91157919Y-54207234D01*
X91157919Y-54143047D01*
X91176235Y-54074692D01*
X91196068Y-53848000D01*
X91176235Y-53621308D01*
X91117339Y-53401504D01*
X91095423Y-53354505D01*
X91084070Y-53293990D01*
X91103224Y-53235475D01*
X91148162Y-53193386D01*
X91207805Y-53178100D01*
X103813395Y-53178100D01*
X103873038Y-53193386D01*
G37*
G04 #@! TD.AperFunction*
G04 #@! TA.AperFunction,Conductor*
G36*
X159323000Y-49017113D02*
G01*
X159368387Y-49062500D01*
X159385000Y-49124500D01*
X159385000Y-103050844D01*
X159368395Y-103112831D01*
X159323025Y-103158216D01*
X159261044Y-103174844D01*
X89953300Y-103199500D01*
X88116500Y-103199500D01*
X88054500Y-103182887D01*
X88009113Y-103137500D01*
X87992500Y-103075500D01*
X87992500Y-99818000D01*
X88611728Y-99818000D01*
X88664333Y-100014326D01*
X88760465Y-100220480D01*
X88890941Y-100406819D01*
X89051780Y-100567658D01*
X89238119Y-100698134D01*
X89444273Y-100794266D01*
X89640599Y-100846871D01*
X89640600Y-100846872D01*
X89640600Y-99818000D01*
X90140600Y-99818000D01*
X90140600Y-100846871D01*
X90336926Y-100794266D01*
X90543080Y-100698134D01*
X90729419Y-100567658D01*
X90890258Y-100406819D01*
X91020734Y-100220480D01*
X91116866Y-100014326D01*
X91169472Y-99818000D01*
X90140600Y-99818000D01*
X89640600Y-99818000D01*
X88611728Y-99818000D01*
X87992500Y-99818000D01*
X87992500Y-97028000D01*
X88585131Y-97028000D01*
X88604964Y-97254689D01*
X88663861Y-97474497D01*
X88760032Y-97680735D01*
X88890553Y-97867140D01*
X89051459Y-98028046D01*
X89237864Y-98158567D01*
X89237865Y-98158567D01*
X89237866Y-98158568D01*
X89296465Y-98185893D01*
X89348640Y-98231650D01*
X89368060Y-98298274D01*
X89348641Y-98364899D01*
X89296466Y-98410656D01*
X89238122Y-98437863D01*
X89051780Y-98568341D01*
X88890941Y-98729180D01*
X88760465Y-98915519D01*
X88664333Y-99121673D01*
X88611728Y-99317999D01*
X88611728Y-99318000D01*
X91193674Y-99318000D01*
X91194297Y-99317543D01*
X91263548Y-99313003D01*
X91324392Y-99346383D01*
X93207196Y-101229187D01*
X93220096Y-101245288D01*
X93271223Y-101293300D01*
X93274020Y-101296011D01*
X93293529Y-101315520D01*
X93296711Y-101317988D01*
X93305571Y-101325555D01*
X93337418Y-101355462D01*
X93354972Y-101365112D01*
X93371236Y-101375796D01*
X93382972Y-101384899D01*
X93387064Y-101388073D01*
X93411909Y-101398824D01*
X93427152Y-101405421D01*
X93437631Y-101410554D01*
X93475908Y-101431597D01*
X93495306Y-101436577D01*
X93513708Y-101442877D01*
X93532104Y-101450838D01*
X93575261Y-101457673D01*
X93586664Y-101460034D01*
X93628981Y-101470900D01*
X93649016Y-101470900D01*
X93668413Y-101472426D01*
X93688196Y-101475560D01*
X93731674Y-101471450D01*
X93743344Y-101470900D01*
X152944856Y-101470900D01*
X152965362Y-101473164D01*
X152968265Y-101473072D01*
X152968267Y-101473073D01*
X153035472Y-101470961D01*
X153039368Y-101470900D01*
X153066949Y-101470900D01*
X153066950Y-101470900D01*
X153070919Y-101470398D01*
X153082565Y-101469480D01*
X153126227Y-101468109D01*
X153145459Y-101462520D01*
X153164518Y-101458574D01*
X153171691Y-101457668D01*
X153184392Y-101456064D01*
X153225007Y-101439982D01*
X153236044Y-101436203D01*
X153277990Y-101424018D01*
X153295229Y-101413822D01*
X153312702Y-101405262D01*
X153331332Y-101397886D01*
X153366664Y-101372214D01*
X153376430Y-101365800D01*
X153414018Y-101343571D01*
X153414017Y-101343571D01*
X153414020Y-101343570D01*
X153428185Y-101329404D01*
X153442973Y-101316773D01*
X153459187Y-101304994D01*
X153487038Y-101271326D01*
X153494879Y-101262709D01*
X153737777Y-101019811D01*
X153793364Y-100987719D01*
X153857551Y-100987719D01*
X153925908Y-101006035D01*
X154152600Y-101025868D01*
X154379292Y-101006035D01*
X154599096Y-100947139D01*
X154805334Y-100850968D01*
X154991739Y-100720447D01*
X155152647Y-100559539D01*
X155283168Y-100373134D01*
X155310493Y-100314534D01*
X155356249Y-100262359D01*
X155422874Y-100242939D01*
X155489499Y-100262358D01*
X155535257Y-100314533D01*
X155562466Y-100372882D01*
X155692941Y-100559219D01*
X155853780Y-100720058D01*
X156040119Y-100850534D01*
X156246273Y-100946666D01*
X156442599Y-100999271D01*
X156442600Y-100999272D01*
X156442600Y-99970400D01*
X156942600Y-99970400D01*
X156942600Y-100999271D01*
X157138926Y-100946666D01*
X157345080Y-100850534D01*
X157531419Y-100720058D01*
X157692258Y-100559219D01*
X157822734Y-100372880D01*
X157918866Y-100166726D01*
X157971472Y-99970400D01*
X156942600Y-99970400D01*
X156442600Y-99970400D01*
X156442600Y-99594400D01*
X156459213Y-99532400D01*
X156504600Y-99487013D01*
X156566600Y-99470400D01*
X157971472Y-99470400D01*
X157971471Y-99470399D01*
X157918866Y-99274073D01*
X157822734Y-99067919D01*
X157692261Y-98881584D01*
X157558692Y-98748014D01*
X157525800Y-98689280D01*
X157528442Y-98622019D01*
X157578274Y-98468656D01*
X157598060Y-98280400D01*
X157578274Y-98092144D01*
X157519779Y-97912116D01*
X157519779Y-97912115D01*
X157425133Y-97748183D01*
X157298470Y-97607510D01*
X157145330Y-97496248D01*
X156972402Y-97419255D01*
X156787248Y-97379900D01*
X156787246Y-97379900D01*
X156597954Y-97379900D01*
X156597952Y-97379900D01*
X156412797Y-97419255D01*
X156239872Y-97496247D01*
X156086727Y-97607513D01*
X156085906Y-97608424D01*
X156085503Y-97608873D01*
X156043790Y-97639180D01*
X155993355Y-97649900D01*
X155063145Y-97649900D01*
X155001145Y-97633287D01*
X154955758Y-97587900D01*
X154939145Y-97525900D01*
X154955758Y-97463900D01*
X154993179Y-97399084D01*
X155040096Y-97254689D01*
X155051674Y-97219056D01*
X155071460Y-97030800D01*
X155051674Y-96842544D01*
X154993179Y-96662516D01*
X154993179Y-96662515D01*
X154898533Y-96498583D01*
X154771870Y-96357910D01*
X154618730Y-96246648D01*
X154445802Y-96169655D01*
X154260648Y-96130300D01*
X154260646Y-96130300D01*
X154071354Y-96130300D01*
X154071352Y-96130300D01*
X153886197Y-96169655D01*
X153713269Y-96246648D01*
X153560132Y-96357909D01*
X153560129Y-96357911D01*
X153560129Y-96357912D01*
X153548180Y-96371183D01*
X153545758Y-96373873D01*
X153504043Y-96404180D01*
X153453608Y-96414900D01*
X152475921Y-96414900D01*
X152413921Y-96398287D01*
X152368534Y-96352900D01*
X152351921Y-96290900D01*
X152368534Y-96228900D01*
X152427779Y-96126284D01*
X152459729Y-96027953D01*
X152486274Y-95946256D01*
X152506060Y-95758000D01*
X152486274Y-95569744D01*
X152427779Y-95389716D01*
X152427779Y-95389715D01*
X152333135Y-95225787D01*
X152333134Y-95225786D01*
X152333133Y-95225784D01*
X152305118Y-95194670D01*
X152276952Y-95141699D01*
X152276952Y-95081701D01*
X152305118Y-95028729D01*
X152333133Y-94997616D01*
X152427779Y-94833684D01*
X152486274Y-94653656D01*
X152506060Y-94465400D01*
X152486274Y-94277144D01*
X152427779Y-94097116D01*
X152427779Y-94097115D01*
X152333133Y-93933183D01*
X152206470Y-93792510D01*
X152053330Y-93681248D01*
X151880402Y-93604255D01*
X151695248Y-93564900D01*
X151695246Y-93564900D01*
X151505954Y-93564900D01*
X151505952Y-93564900D01*
X151320797Y-93604255D01*
X151147869Y-93681248D01*
X150994728Y-93792511D01*
X150957486Y-93833873D01*
X150915772Y-93864180D01*
X150865337Y-93874900D01*
X149922521Y-93874900D01*
X149860521Y-93858287D01*
X149815134Y-93812900D01*
X149798521Y-93750900D01*
X149815134Y-93688900D01*
X149874379Y-93586284D01*
X149906329Y-93487953D01*
X149932874Y-93406256D01*
X149952660Y-93218000D01*
X149932874Y-93029744D01*
X149874379Y-92849716D01*
X149874379Y-92849715D01*
X149779733Y-92685783D01*
X149769856Y-92674814D01*
X149741688Y-92621840D01*
X149741688Y-92561842D01*
X149769856Y-92508868D01*
X149793133Y-92483016D01*
X149887779Y-92319084D01*
X149934696Y-92174689D01*
X149946274Y-92139056D01*
X149966060Y-91950800D01*
X149946274Y-91762544D01*
X149887779Y-91582516D01*
X149887779Y-91582515D01*
X149793133Y-91418583D01*
X149666470Y-91277910D01*
X149513330Y-91166648D01*
X149340402Y-91089655D01*
X149155248Y-91050300D01*
X149155246Y-91050300D01*
X148965954Y-91050300D01*
X148965952Y-91050300D01*
X148780797Y-91089655D01*
X148607869Y-91166648D01*
X148454729Y-91277910D01*
X148328066Y-91418583D01*
X148233420Y-91582515D01*
X148174926Y-91762542D01*
X148157279Y-91930450D01*
X148145879Y-91970871D01*
X148121641Y-92005166D01*
X148020126Y-92106682D01*
X147979901Y-92133560D01*
X147932448Y-92142999D01*
X106554330Y-92142999D01*
X106489233Y-92124537D01*
X106443519Y-92074650D01*
X106430802Y-92008191D01*
X106436068Y-91947999D01*
X106419843Y-91762544D01*
X106416235Y-91721308D01*
X106357339Y-91501504D01*
X106347266Y-91479904D01*
X106335914Y-91419390D01*
X106355068Y-91360875D01*
X106400006Y-91318786D01*
X106459649Y-91303500D01*
X145803453Y-91303500D01*
X145853888Y-91314220D01*
X145895601Y-91344526D01*
X145901329Y-91350888D01*
X146054470Y-91462151D01*
X146054471Y-91462151D01*
X146054472Y-91462152D01*
X146227397Y-91539144D01*
X146412552Y-91578500D01*
X146412554Y-91578500D01*
X146601846Y-91578500D01*
X146601848Y-91578500D01*
X146725284Y-91552262D01*
X146787003Y-91539144D01*
X146959930Y-91462151D01*
X147019895Y-91418584D01*
X147113070Y-91350889D01*
X147118798Y-91344528D01*
X147239733Y-91210216D01*
X147334379Y-91046284D01*
X147392874Y-90866256D01*
X147412660Y-90678000D01*
X147392874Y-90489744D01*
X147334379Y-90309716D01*
X147334379Y-90309715D01*
X147239733Y-90145783D01*
X147229856Y-90134814D01*
X147201688Y-90081840D01*
X147201688Y-90021842D01*
X147229856Y-89968868D01*
X147253133Y-89943016D01*
X147347779Y-89779084D01*
X147394696Y-89634689D01*
X147406274Y-89599056D01*
X147426060Y-89410800D01*
X147406274Y-89222544D01*
X147347779Y-89042516D01*
X147347779Y-89042515D01*
X147253133Y-88878583D01*
X147126470Y-88737910D01*
X146973330Y-88626648D01*
X146800402Y-88549655D01*
X146615248Y-88510300D01*
X146615246Y-88510300D01*
X146425954Y-88510300D01*
X146425952Y-88510300D01*
X146240797Y-88549655D01*
X146067869Y-88626648D01*
X145914732Y-88737909D01*
X145914729Y-88737911D01*
X145914729Y-88737912D01*
X145900358Y-88753873D01*
X145858643Y-88784180D01*
X145808208Y-88794900D01*
X106353470Y-88794900D01*
X106296213Y-88780889D01*
X106251895Y-88742023D01*
X106249016Y-88737912D01*
X106130647Y-88568861D01*
X106130646Y-88568859D01*
X105969740Y-88407953D01*
X105783332Y-88277430D01*
X105725324Y-88250380D01*
X105673149Y-88204623D01*
X105653730Y-88137997D01*
X105673150Y-88071373D01*
X105725321Y-88025619D01*
X105783334Y-87998568D01*
X105969739Y-87868047D01*
X106130647Y-87707139D01*
X106167189Y-87654951D01*
X106234531Y-87558777D01*
X106278849Y-87519911D01*
X106336106Y-87505900D01*
X143310896Y-87505900D01*
X143361331Y-87516620D01*
X143389052Y-87536760D01*
X143389585Y-87536028D01*
X143553269Y-87654951D01*
X143726197Y-87731944D01*
X143911352Y-87771300D01*
X143911354Y-87771300D01*
X144100646Y-87771300D01*
X144100648Y-87771300D01*
X144224084Y-87745062D01*
X144285803Y-87731944D01*
X144458730Y-87654951D01*
X144611871Y-87543688D01*
X144738533Y-87403016D01*
X144833179Y-87239084D01*
X144891674Y-87059056D01*
X144911460Y-86870800D01*
X144891674Y-86682544D01*
X144833179Y-86502516D01*
X144833179Y-86502515D01*
X144738533Y-86338583D01*
X144611870Y-86197910D01*
X144458730Y-86086648D01*
X144285803Y-86009655D01*
X144246915Y-86001389D01*
X144188763Y-85971374D01*
X144153989Y-85915938D01*
X144152277Y-85850520D01*
X144184103Y-85793340D01*
X144240602Y-85760324D01*
X144439096Y-85707139D01*
X144645334Y-85610968D01*
X144831739Y-85480447D01*
X144992647Y-85319539D01*
X145123168Y-85133134D01*
X145150218Y-85075124D01*
X145195975Y-85022949D01*
X145262600Y-85003529D01*
X145329225Y-85022949D01*
X145374982Y-85075125D01*
X145402031Y-85133133D01*
X145532553Y-85319540D01*
X145693459Y-85480446D01*
X145879864Y-85610967D01*
X145879865Y-85610967D01*
X145879866Y-85610968D01*
X146086104Y-85707139D01*
X146305908Y-85766035D01*
X146532600Y-85785868D01*
X146759292Y-85766035D01*
X146979096Y-85707139D01*
X147185334Y-85610968D01*
X147371739Y-85480447D01*
X147532647Y-85319539D01*
X147663168Y-85133134D01*
X147690218Y-85075124D01*
X147735975Y-85022949D01*
X147802600Y-85003529D01*
X147869225Y-85022949D01*
X147914982Y-85075125D01*
X147942031Y-85133133D01*
X148072553Y-85319540D01*
X148233459Y-85480446D01*
X148419864Y-85610967D01*
X148419865Y-85610967D01*
X148419866Y-85610968D01*
X148626104Y-85707139D01*
X148845908Y-85766035D01*
X149072600Y-85785868D01*
X149299292Y-85766035D01*
X149519096Y-85707139D01*
X149725334Y-85610968D01*
X149911739Y-85480447D01*
X150072647Y-85319539D01*
X150203168Y-85133134D01*
X150230218Y-85075124D01*
X150275975Y-85022949D01*
X150342600Y-85003529D01*
X150409225Y-85022949D01*
X150454982Y-85075125D01*
X150482031Y-85133133D01*
X150612553Y-85319540D01*
X150773459Y-85480446D01*
X150959864Y-85610967D01*
X150959865Y-85610967D01*
X150959866Y-85610968D01*
X151166104Y-85707139D01*
X151385908Y-85766035D01*
X151612600Y-85785868D01*
X151839292Y-85766035D01*
X152059096Y-85707139D01*
X152265334Y-85610968D01*
X152451739Y-85480447D01*
X152612647Y-85319539D01*
X152743168Y-85133134D01*
X152770218Y-85075124D01*
X152815975Y-85022949D01*
X152882600Y-85003529D01*
X152949225Y-85022949D01*
X152994982Y-85075125D01*
X153022031Y-85133133D01*
X153152553Y-85319540D01*
X153313459Y-85480446D01*
X153499864Y-85610967D01*
X153499865Y-85610967D01*
X153499866Y-85610968D01*
X153706104Y-85707139D01*
X153925908Y-85766035D01*
X154152600Y-85785868D01*
X154379292Y-85766035D01*
X154599096Y-85707139D01*
X154805334Y-85610968D01*
X154991739Y-85480447D01*
X155152647Y-85319539D01*
X155283168Y-85133134D01*
X155310218Y-85075124D01*
X155355975Y-85022949D01*
X155422600Y-85003529D01*
X155489225Y-85022949D01*
X155534982Y-85075125D01*
X155562031Y-85133133D01*
X155692553Y-85319540D01*
X155853459Y-85480446D01*
X156039864Y-85610967D01*
X156039865Y-85610967D01*
X156039866Y-85610968D01*
X156246104Y-85707139D01*
X156465908Y-85766035D01*
X156692600Y-85785868D01*
X156919292Y-85766035D01*
X157139096Y-85707139D01*
X157345334Y-85610968D01*
X157531739Y-85480447D01*
X157692647Y-85319539D01*
X157823168Y-85133134D01*
X157919339Y-84926896D01*
X157978235Y-84707092D01*
X157998068Y-84480400D01*
X157978235Y-84253708D01*
X157919339Y-84033904D01*
X157823168Y-83827666D01*
X157803369Y-83799390D01*
X157692646Y-83641259D01*
X157531740Y-83480353D01*
X157345335Y-83349832D01*
X157139097Y-83253661D01*
X156919289Y-83194764D01*
X156692600Y-83174931D01*
X156465910Y-83194764D01*
X156246102Y-83253661D01*
X156039864Y-83349832D01*
X155853459Y-83480353D01*
X155692553Y-83641259D01*
X155562033Y-83827663D01*
X155534982Y-83885675D01*
X155489225Y-83937850D01*
X155422600Y-83957269D01*
X155355975Y-83937850D01*
X155310218Y-83885675D01*
X155308272Y-83881502D01*
X155283168Y-83827666D01*
X155182223Y-83683500D01*
X155152646Y-83641259D01*
X154991740Y-83480353D01*
X154805335Y-83349832D01*
X154599097Y-83253661D01*
X154379289Y-83194764D01*
X154152600Y-83174931D01*
X153925910Y-83194764D01*
X153706102Y-83253661D01*
X153499864Y-83349832D01*
X153313459Y-83480353D01*
X153152553Y-83641259D01*
X153022033Y-83827663D01*
X152994982Y-83885675D01*
X152949225Y-83937850D01*
X152882600Y-83957269D01*
X152815975Y-83937850D01*
X152770218Y-83885675D01*
X152768272Y-83881502D01*
X152743168Y-83827666D01*
X152642223Y-83683500D01*
X152612646Y-83641259D01*
X152451740Y-83480353D01*
X152265335Y-83349832D01*
X152059097Y-83253661D01*
X151839289Y-83194764D01*
X151612600Y-83174931D01*
X151385910Y-83194764D01*
X151166102Y-83253661D01*
X150959864Y-83349832D01*
X150773459Y-83480353D01*
X150612553Y-83641259D01*
X150482033Y-83827663D01*
X150454982Y-83885675D01*
X150409225Y-83937850D01*
X150342600Y-83957269D01*
X150275975Y-83937850D01*
X150230218Y-83885675D01*
X150228272Y-83881502D01*
X150203168Y-83827666D01*
X150102223Y-83683500D01*
X150072646Y-83641259D01*
X149911740Y-83480353D01*
X149725335Y-83349832D01*
X149519097Y-83253661D01*
X149299289Y-83194764D01*
X149072600Y-83174931D01*
X148845910Y-83194764D01*
X148626102Y-83253661D01*
X148419864Y-83349832D01*
X148233459Y-83480353D01*
X148072553Y-83641259D01*
X147942033Y-83827663D01*
X147914982Y-83885675D01*
X147869225Y-83937850D01*
X147802600Y-83957269D01*
X147735975Y-83937850D01*
X147690218Y-83885675D01*
X147688272Y-83881502D01*
X147663168Y-83827666D01*
X147562223Y-83683500D01*
X147532646Y-83641259D01*
X147371740Y-83480353D01*
X147185335Y-83349832D01*
X146979097Y-83253661D01*
X146759289Y-83194764D01*
X146532600Y-83174931D01*
X146305910Y-83194764D01*
X146086102Y-83253661D01*
X145879864Y-83349832D01*
X145693459Y-83480353D01*
X145532553Y-83641259D01*
X145402033Y-83827663D01*
X145374982Y-83885675D01*
X145329225Y-83937850D01*
X145262600Y-83957269D01*
X145195975Y-83937850D01*
X145150218Y-83885675D01*
X145148272Y-83881502D01*
X145123168Y-83827666D01*
X145022223Y-83683500D01*
X144992646Y-83641259D01*
X144831740Y-83480353D01*
X144645335Y-83349832D01*
X144439097Y-83253661D01*
X144219289Y-83194764D01*
X143992600Y-83174931D01*
X143765910Y-83194764D01*
X143546102Y-83253661D01*
X143339864Y-83349832D01*
X143153459Y-83480353D01*
X142992553Y-83641259D01*
X142862033Y-83827663D01*
X142834982Y-83885675D01*
X142789225Y-83937850D01*
X142722600Y-83957269D01*
X142655975Y-83937850D01*
X142610218Y-83885675D01*
X142608272Y-83881502D01*
X142583168Y-83827666D01*
X142482223Y-83683500D01*
X142452646Y-83641259D01*
X142291740Y-83480353D01*
X142105335Y-83349832D01*
X141899097Y-83253661D01*
X141679289Y-83194764D01*
X141452600Y-83174931D01*
X141225908Y-83194764D01*
X141150347Y-83215011D01*
X141090887Y-83216178D01*
X141037722Y-83189526D01*
X141003082Y-83141185D01*
X140994933Y-83082275D01*
X140999860Y-83035400D01*
X140980074Y-82847144D01*
X140921579Y-82667116D01*
X140921579Y-82667115D01*
X140826933Y-82503183D01*
X140700270Y-82362510D01*
X140547130Y-82251248D01*
X140374202Y-82174255D01*
X140189048Y-82134900D01*
X140189046Y-82134900D01*
X139999754Y-82134900D01*
X139953405Y-82144751D01*
X139889305Y-82141390D01*
X139835473Y-82106429D01*
X139806334Y-82049235D01*
X139809696Y-81985141D01*
X139811674Y-81979056D01*
X139831460Y-81790800D01*
X139811674Y-81602544D01*
X139753179Y-81422516D01*
X139753179Y-81422515D01*
X139658533Y-81258583D01*
X139531870Y-81117910D01*
X139378730Y-81006648D01*
X139205802Y-80929655D01*
X139020648Y-80890300D01*
X139020646Y-80890300D01*
X138831354Y-80890300D01*
X138783941Y-80900377D01*
X138686112Y-80921171D01*
X138622013Y-80917811D01*
X138568182Y-80882852D01*
X138539042Y-80825660D01*
X138542400Y-80761564D01*
X138592474Y-80607456D01*
X138612260Y-80419200D01*
X138592474Y-80230944D01*
X138533979Y-80050916D01*
X138533979Y-80050915D01*
X138439333Y-79886983D01*
X138312670Y-79746310D01*
X138159530Y-79635048D01*
X137986602Y-79558055D01*
X137801448Y-79518700D01*
X137801446Y-79518700D01*
X137612154Y-79518700D01*
X137612152Y-79518700D01*
X137426998Y-79558054D01*
X137423286Y-79559708D01*
X137359889Y-79569749D01*
X137299965Y-79546746D01*
X137259571Y-79496863D01*
X137249530Y-79433470D01*
X137266060Y-79276200D01*
X137246274Y-79087944D01*
X137187779Y-78907916D01*
X137187779Y-78907915D01*
X137093133Y-78743983D01*
X136966470Y-78603310D01*
X136813330Y-78492048D01*
X136640402Y-78415055D01*
X136455248Y-78375700D01*
X136455246Y-78375700D01*
X136265954Y-78375700D01*
X136265952Y-78375700D01*
X136147309Y-78400918D01*
X136083210Y-78397559D01*
X136029378Y-78362600D01*
X136000238Y-78305409D01*
X136003597Y-78241310D01*
X136027074Y-78169056D01*
X136046860Y-77980800D01*
X136027074Y-77792544D01*
X135968579Y-77612516D01*
X135968579Y-77612515D01*
X135873933Y-77448583D01*
X135747270Y-77307910D01*
X135594130Y-77196648D01*
X135421202Y-77119655D01*
X135236048Y-77080300D01*
X135236046Y-77080300D01*
X135046754Y-77080300D01*
X135046752Y-77080300D01*
X134861596Y-77119655D01*
X134820936Y-77137758D01*
X134765308Y-77148369D01*
X134710763Y-77133139D01*
X134668679Y-77095245D01*
X134647832Y-77042591D01*
X134652570Y-76986164D01*
X134680874Y-76899056D01*
X134700660Y-76710800D01*
X134680874Y-76522544D01*
X134622379Y-76342516D01*
X134622379Y-76342515D01*
X134527733Y-76178583D01*
X134401070Y-76037910D01*
X134247930Y-75926648D01*
X134075002Y-75849655D01*
X133889848Y-75810300D01*
X133889846Y-75810300D01*
X133700554Y-75810300D01*
X133700552Y-75810300D01*
X133502649Y-75852365D01*
X133502120Y-75849878D01*
X133468826Y-75856221D01*
X133414290Y-75840984D01*
X133372215Y-75803088D01*
X133351374Y-75750438D01*
X133356113Y-75694017D01*
X133385474Y-75603656D01*
X133405260Y-75415400D01*
X133385474Y-75227144D01*
X133326979Y-75047116D01*
X133326979Y-75047115D01*
X133232333Y-74883183D01*
X133105670Y-74742510D01*
X132952530Y-74631248D01*
X132779602Y-74554255D01*
X132594448Y-74514900D01*
X132594446Y-74514900D01*
X132405154Y-74514900D01*
X132379175Y-74520421D01*
X132295372Y-74538234D01*
X132231272Y-74534874D01*
X132177441Y-74499914D01*
X132148301Y-74442722D01*
X132151661Y-74378627D01*
X132166274Y-74333656D01*
X132186060Y-74145400D01*
X132166274Y-73957144D01*
X132107779Y-73777116D01*
X132107779Y-73777115D01*
X132013133Y-73613183D01*
X131886470Y-73472510D01*
X131733330Y-73361248D01*
X131560402Y-73284255D01*
X131375248Y-73244900D01*
X131375246Y-73244900D01*
X131185954Y-73244900D01*
X131185951Y-73244900D01*
X131003185Y-73283747D01*
X130939086Y-73280388D01*
X130885254Y-73245429D01*
X130856114Y-73188237D01*
X130859473Y-73124142D01*
X130870874Y-73089056D01*
X130890660Y-72900800D01*
X130870874Y-72712544D01*
X130812379Y-72532516D01*
X130812379Y-72532515D01*
X130717733Y-72368583D01*
X130591070Y-72227910D01*
X130437930Y-72116648D01*
X130265002Y-72039655D01*
X130079848Y-72000300D01*
X130079846Y-72000300D01*
X129890554Y-72000300D01*
X129890551Y-72000300D01*
X129753488Y-72029433D01*
X129689389Y-72026074D01*
X129635557Y-71991114D01*
X129606417Y-71933923D01*
X129606918Y-71924364D01*
X143027387Y-71924364D01*
X143057013Y-72193616D01*
X143075911Y-72265900D01*
X143125528Y-72455688D01*
X143198773Y-72628047D01*
X143231471Y-72704992D01*
X143372582Y-72936211D01*
X143528976Y-73124138D01*
X143545855Y-73144420D01*
X143747598Y-73325182D01*
X143973510Y-73474644D01*
X144045640Y-73508457D01*
X144218777Y-73589621D01*
X144478162Y-73667658D01*
X144478169Y-73667660D01*
X144746161Y-73707100D01*
X144949231Y-73707100D01*
X144949234Y-73707100D01*
X145151756Y-73692277D01*
X145151755Y-73692277D01*
X145416153Y-73633380D01*
X145669158Y-73536614D01*
X145905377Y-73404041D01*
X146119777Y-73238488D01*
X146307786Y-73043481D01*
X146465399Y-72823179D01*
X146589256Y-72582275D01*
X146676718Y-72325905D01*
X146725919Y-72059533D01*
X146735812Y-71788835D01*
X146706186Y-71519582D01*
X146637672Y-71257512D01*
X146531730Y-71008210D01*
X146459599Y-70890020D01*
X146390617Y-70776988D01*
X146217346Y-70568781D01*
X146112358Y-70474712D01*
X146015602Y-70388018D01*
X145789690Y-70238556D01*
X145747052Y-70218568D01*
X145544422Y-70123578D01*
X145285037Y-70045541D01*
X145285031Y-70045540D01*
X145017039Y-70006100D01*
X144813969Y-70006100D01*
X144813966Y-70006100D01*
X144611443Y-70020922D01*
X144347049Y-70079819D01*
X144094041Y-70176586D01*
X143857823Y-70309159D01*
X143643425Y-70474709D01*
X143455413Y-70669720D01*
X143297801Y-70890020D01*
X143173942Y-71130929D01*
X143086481Y-71387295D01*
X143037280Y-71653666D01*
X143027387Y-71924364D01*
X129606918Y-71924364D01*
X129609776Y-71869829D01*
X129626274Y-71819056D01*
X129646060Y-71630800D01*
X129626274Y-71442544D01*
X129567779Y-71262516D01*
X129567779Y-71262515D01*
X129473133Y-71098583D01*
X129346470Y-70957910D01*
X129193330Y-70846648D01*
X129020402Y-70769655D01*
X128835248Y-70730300D01*
X128835246Y-70730300D01*
X128645954Y-70730300D01*
X128645952Y-70730300D01*
X128448049Y-70772365D01*
X128447481Y-70769695D01*
X128414964Y-70775887D01*
X128360432Y-70760645D01*
X128318361Y-70722750D01*
X128297524Y-70670102D01*
X128302263Y-70613681D01*
X128356274Y-70447456D01*
X128376060Y-70259200D01*
X128356274Y-70070944D01*
X128297779Y-69890916D01*
X128297779Y-69890915D01*
X128203133Y-69726983D01*
X128076470Y-69586310D01*
X127923330Y-69475048D01*
X127750402Y-69398055D01*
X127565248Y-69358700D01*
X127565246Y-69358700D01*
X127375954Y-69358700D01*
X127375951Y-69358700D01*
X127261282Y-69383073D01*
X127203408Y-69381558D01*
X127152529Y-69353933D01*
X127119738Y-69306220D01*
X127112181Y-69248825D01*
X127131460Y-69065400D01*
X127111674Y-68877144D01*
X127053179Y-68697116D01*
X127053179Y-68697115D01*
X126958533Y-68533183D01*
X126831870Y-68392510D01*
X126678730Y-68281248D01*
X126505802Y-68204255D01*
X126320648Y-68164900D01*
X126320646Y-68164900D01*
X126131354Y-68164900D01*
X126131351Y-68164900D01*
X125960498Y-68201215D01*
X125896399Y-68197856D01*
X125842568Y-68162897D01*
X125813428Y-68105705D01*
X125816786Y-68041609D01*
X125828274Y-68006256D01*
X125848060Y-67818000D01*
X125828274Y-67629744D01*
X125769779Y-67449716D01*
X125769779Y-67449715D01*
X125675133Y-67285783D01*
X125548470Y-67145110D01*
X125395330Y-67033848D01*
X125222402Y-66956855D01*
X125037248Y-66917500D01*
X125037246Y-66917500D01*
X124847954Y-66917500D01*
X124847951Y-66917500D01*
X124690110Y-66951049D01*
X124626011Y-66947690D01*
X124572179Y-66912731D01*
X124543040Y-66855539D01*
X124546398Y-66791444D01*
X124571674Y-66713656D01*
X124591460Y-66525400D01*
X124571674Y-66337144D01*
X124513179Y-66157116D01*
X124513179Y-66157115D01*
X124418533Y-65993183D01*
X124291870Y-65852510D01*
X124138730Y-65741248D01*
X123965802Y-65664255D01*
X123780648Y-65624900D01*
X123780646Y-65624900D01*
X123591354Y-65624900D01*
X123591352Y-65624900D01*
X123406197Y-65664255D01*
X123221364Y-65746549D01*
X123220789Y-65745259D01*
X123172538Y-65763203D01*
X123107028Y-65750706D01*
X123057466Y-65706080D01*
X123038190Y-65642235D01*
X123054776Y-65577638D01*
X123116179Y-65471284D01*
X123133676Y-65417433D01*
X123174674Y-65291256D01*
X123194460Y-65103000D01*
X123174674Y-64914744D01*
X123116179Y-64734716D01*
X123116179Y-64734715D01*
X123021533Y-64570783D01*
X122894870Y-64430110D01*
X122741730Y-64318848D01*
X122568802Y-64241855D01*
X122383648Y-64202500D01*
X122383646Y-64202500D01*
X122194354Y-64202500D01*
X122194352Y-64202500D01*
X122168547Y-64207985D01*
X122110672Y-64206470D01*
X122059794Y-64178845D01*
X122027002Y-64131132D01*
X122019445Y-64073735D01*
X122026060Y-64010800D01*
X122006274Y-63822544D01*
X121947779Y-63642516D01*
X121947779Y-63642515D01*
X121853133Y-63478583D01*
X121726470Y-63337910D01*
X121573330Y-63226648D01*
X121400402Y-63149655D01*
X121215248Y-63110300D01*
X121215246Y-63110300D01*
X121025954Y-63110300D01*
X121025952Y-63110300D01*
X120840798Y-63149654D01*
X120717490Y-63204555D01*
X120656678Y-63214840D01*
X120598434Y-63194557D01*
X120557165Y-63148723D01*
X120543082Y-63088677D01*
X120559666Y-63029278D01*
X120601579Y-62956684D01*
X120660074Y-62776656D01*
X120679860Y-62588400D01*
X120660074Y-62400144D01*
X120601579Y-62220116D01*
X120601579Y-62220115D01*
X120506933Y-62056183D01*
X120380270Y-61915510D01*
X120227130Y-61804248D01*
X120054202Y-61727255D01*
X119869048Y-61687900D01*
X119869046Y-61687900D01*
X119679754Y-61687900D01*
X119655861Y-61692978D01*
X119625235Y-61699488D01*
X119567360Y-61697972D01*
X119516482Y-61670346D01*
X119483691Y-61622634D01*
X119476134Y-61565238D01*
X119486060Y-61470800D01*
X119466274Y-61282544D01*
X119407779Y-61102516D01*
X119407779Y-61102515D01*
X119313133Y-60938583D01*
X119186470Y-60797910D01*
X119033330Y-60686648D01*
X118860402Y-60609655D01*
X118675248Y-60570300D01*
X118675246Y-60570300D01*
X118485954Y-60570300D01*
X118485951Y-60570300D01*
X118333517Y-60602700D01*
X118269418Y-60599341D01*
X118215587Y-60564382D01*
X118186447Y-60507190D01*
X118189805Y-60443094D01*
X118208274Y-60386256D01*
X118228060Y-60198000D01*
X118208274Y-60009744D01*
X118149779Y-59829716D01*
X118149779Y-59829715D01*
X118055133Y-59665783D01*
X117928470Y-59525110D01*
X117775330Y-59413848D01*
X117602402Y-59336855D01*
X117417248Y-59297500D01*
X117417246Y-59297500D01*
X117227954Y-59297500D01*
X117165545Y-59310765D01*
X117042826Y-59336849D01*
X116978727Y-59333489D01*
X116924896Y-59298530D01*
X116895756Y-59241338D01*
X116899114Y-59177242D01*
X116926274Y-59093656D01*
X116946060Y-58905400D01*
X116926274Y-58717144D01*
X116867779Y-58537116D01*
X116867779Y-58537115D01*
X116773133Y-58373183D01*
X116646470Y-58232510D01*
X116493330Y-58121248D01*
X116320402Y-58044255D01*
X116135248Y-58004900D01*
X116135246Y-58004900D01*
X115945954Y-58004900D01*
X115900264Y-58014611D01*
X115802382Y-58035416D01*
X115738282Y-58032056D01*
X115684451Y-57997096D01*
X115655311Y-57939904D01*
X115658671Y-57875808D01*
X115668274Y-57846256D01*
X115688060Y-57658000D01*
X115668274Y-57469744D01*
X115609779Y-57289716D01*
X115609779Y-57289715D01*
X115515133Y-57125783D01*
X115388470Y-56985110D01*
X115235330Y-56873848D01*
X115062402Y-56796855D01*
X114877248Y-56757500D01*
X114877246Y-56757500D01*
X114687954Y-56757500D01*
X114687951Y-56757500D01*
X114520556Y-56793080D01*
X114456457Y-56789721D01*
X114402625Y-56754761D01*
X114373485Y-56697569D01*
X114376845Y-56633472D01*
X114386274Y-56604456D01*
X114406060Y-56416200D01*
X114386274Y-56227944D01*
X114327779Y-56047916D01*
X114327779Y-56047915D01*
X114233133Y-55883983D01*
X114106470Y-55743310D01*
X113953330Y-55632048D01*
X113780402Y-55555055D01*
X113595248Y-55515700D01*
X113595246Y-55515700D01*
X113405954Y-55515700D01*
X113405951Y-55515700D01*
X113241604Y-55550632D01*
X113177505Y-55547273D01*
X113123673Y-55512314D01*
X113094534Y-55455122D01*
X113097892Y-55391027D01*
X113116274Y-55334456D01*
X113136060Y-55146200D01*
X113116274Y-54957944D01*
X113057779Y-54777916D01*
X113057779Y-54777915D01*
X112963133Y-54613983D01*
X112836470Y-54473310D01*
X112683330Y-54362048D01*
X112510402Y-54285055D01*
X112325248Y-54245700D01*
X112325246Y-54245700D01*
X112135954Y-54245700D01*
X112135952Y-54245700D01*
X111950798Y-54285054D01*
X111900489Y-54307454D01*
X111844861Y-54318065D01*
X111790316Y-54302836D01*
X111748231Y-54264942D01*
X111727384Y-54212288D01*
X111732123Y-54155856D01*
X111758496Y-54074689D01*
X111770074Y-54039056D01*
X111789860Y-53850800D01*
X111770074Y-53662544D01*
X111711579Y-53482516D01*
X111711579Y-53482515D01*
X111616933Y-53318583D01*
X111490270Y-53177910D01*
X111337130Y-53066648D01*
X111164202Y-52989655D01*
X110979048Y-52950300D01*
X110979046Y-52950300D01*
X110789754Y-52950300D01*
X110789751Y-52950300D01*
X110597141Y-52991239D01*
X110539267Y-52989724D01*
X110488388Y-52962099D01*
X110455597Y-52914386D01*
X110448040Y-52856987D01*
X110449272Y-52845260D01*
X110449274Y-52845256D01*
X110469060Y-52657000D01*
X110449274Y-52468744D01*
X110390779Y-52288716D01*
X110390779Y-52288715D01*
X110296133Y-52124783D01*
X110169470Y-51984110D01*
X110016330Y-51872848D01*
X109843402Y-51795855D01*
X109658248Y-51756500D01*
X109658246Y-51756500D01*
X109468954Y-51756500D01*
X109451420Y-51760227D01*
X109426343Y-51765557D01*
X109362244Y-51762197D01*
X109308412Y-51727237D01*
X109279273Y-51670046D01*
X109282631Y-51605950D01*
X109318274Y-51496256D01*
X109338060Y-51308000D01*
X109318274Y-51119744D01*
X109259779Y-50939716D01*
X109259779Y-50939715D01*
X109165133Y-50775783D01*
X109038470Y-50635110D01*
X108885330Y-50523848D01*
X108712402Y-50446855D01*
X108527248Y-50407500D01*
X108527246Y-50407500D01*
X108337954Y-50407500D01*
X108337952Y-50407500D01*
X108152797Y-50446855D01*
X107979872Y-50523847D01*
X107877776Y-50598024D01*
X107826729Y-50635112D01*
X107821001Y-50641473D01*
X107779288Y-50671780D01*
X107728853Y-50682500D01*
X106344788Y-50682500D01*
X106287531Y-50668489D01*
X106243213Y-50629623D01*
X106130646Y-50468859D01*
X105969740Y-50307953D01*
X105783335Y-50177432D01*
X105577097Y-50081261D01*
X105357289Y-50022364D01*
X105130600Y-50002531D01*
X104903910Y-50022364D01*
X104684102Y-50081261D01*
X104477864Y-50177432D01*
X104291459Y-50307953D01*
X104130553Y-50468859D01*
X104000032Y-50655264D01*
X103903861Y-50861502D01*
X103844964Y-51081310D01*
X103825131Y-51308000D01*
X103844964Y-51534689D01*
X103906669Y-51764975D01*
X103904858Y-51765460D01*
X103913440Y-51811214D01*
X103894285Y-51869727D01*
X103849347Y-51911815D01*
X103789706Y-51927100D01*
X91445653Y-51927100D01*
X91398200Y-51917661D01*
X91357972Y-51890781D01*
X91227418Y-51760227D01*
X91200538Y-51719999D01*
X91191099Y-51672546D01*
X91191099Y-50460130D01*
X91189672Y-50446855D01*
X91184691Y-50400517D01*
X91134396Y-50265669D01*
X91048146Y-50150454D01*
X90932931Y-50064204D01*
X90798083Y-50013909D01*
X90738473Y-50007500D01*
X90738469Y-50007500D01*
X89042730Y-50007500D01*
X88983115Y-50013909D01*
X88848269Y-50064204D01*
X88733054Y-50150454D01*
X88646804Y-50265668D01*
X88596509Y-50400516D01*
X88590100Y-50460130D01*
X88590100Y-52155869D01*
X88596509Y-52215483D01*
X88646804Y-52350331D01*
X88733054Y-52465546D01*
X88848269Y-52551796D01*
X88983117Y-52602091D01*
X89018194Y-52605862D01*
X89074113Y-52626239D01*
X89114097Y-52670327D01*
X89128932Y-52727968D01*
X89115200Y-52785881D01*
X89076064Y-52830724D01*
X89051460Y-52847952D01*
X88890553Y-53008859D01*
X88760032Y-53195264D01*
X88663861Y-53401502D01*
X88604964Y-53621310D01*
X88585131Y-53848000D01*
X88604964Y-54074689D01*
X88663861Y-54294497D01*
X88760032Y-54500735D01*
X88890553Y-54687140D01*
X89051459Y-54848046D01*
X89208409Y-54957942D01*
X89237866Y-54978568D01*
X89295873Y-55005617D01*
X89348049Y-55051373D01*
X89367469Y-55117997D01*
X89348051Y-55184622D01*
X89295876Y-55230380D01*
X89237866Y-55257431D01*
X89051459Y-55387953D01*
X88890553Y-55548859D01*
X88760032Y-55735264D01*
X88663861Y-55941502D01*
X88604964Y-56161310D01*
X88585131Y-56388000D01*
X88604964Y-56614689D01*
X88663861Y-56834497D01*
X88760032Y-57040735D01*
X88890553Y-57227140D01*
X89051459Y-57388046D01*
X89168137Y-57469744D01*
X89237866Y-57518568D01*
X89295875Y-57545618D01*
X89348050Y-57591375D01*
X89367469Y-57658000D01*
X89348050Y-57724625D01*
X89295875Y-57770382D01*
X89237863Y-57797433D01*
X89051459Y-57927953D01*
X88890553Y-58088859D01*
X88760032Y-58275264D01*
X88663861Y-58481502D01*
X88604964Y-58701310D01*
X88585131Y-58928000D01*
X88604964Y-59154689D01*
X88663861Y-59374497D01*
X88760032Y-59580735D01*
X88890553Y-59767140D01*
X89051459Y-59928046D01*
X89168137Y-60009744D01*
X89237866Y-60058568D01*
X89295875Y-60085618D01*
X89348050Y-60131375D01*
X89367469Y-60198000D01*
X89348050Y-60264625D01*
X89295875Y-60310382D01*
X89237863Y-60337433D01*
X89051459Y-60467953D01*
X88890553Y-60628859D01*
X88760032Y-60815264D01*
X88663861Y-61021502D01*
X88604964Y-61241310D01*
X88585131Y-61467999D01*
X88604964Y-61694689D01*
X88663861Y-61914497D01*
X88760032Y-62120735D01*
X88890553Y-62307140D01*
X89051459Y-62468046D01*
X89223344Y-62588400D01*
X89237866Y-62598568D01*
X89295873Y-62625617D01*
X89348049Y-62671373D01*
X89367469Y-62737997D01*
X89348051Y-62804622D01*
X89295876Y-62850380D01*
X89237866Y-62877431D01*
X89051459Y-63007953D01*
X88890553Y-63168859D01*
X88760032Y-63355264D01*
X88663861Y-63561502D01*
X88604964Y-63781310D01*
X88585131Y-64007999D01*
X88604964Y-64234689D01*
X88663861Y-64454497D01*
X88760032Y-64660735D01*
X88890553Y-64847140D01*
X89051459Y-65008046D01*
X89187069Y-65103000D01*
X89237866Y-65138568D01*
X89295875Y-65165618D01*
X89348050Y-65211375D01*
X89367469Y-65278000D01*
X89348050Y-65344625D01*
X89295875Y-65390382D01*
X89237863Y-65417433D01*
X89051459Y-65547953D01*
X88890553Y-65708859D01*
X88760032Y-65895264D01*
X88663861Y-66101502D01*
X88604964Y-66321310D01*
X88585131Y-66547999D01*
X88604964Y-66774689D01*
X88663861Y-66994497D01*
X88760032Y-67200735D01*
X88890553Y-67387140D01*
X89051459Y-67548046D01*
X89168137Y-67629744D01*
X89237866Y-67678568D01*
X89295875Y-67705618D01*
X89348050Y-67751375D01*
X89367469Y-67818000D01*
X89348050Y-67884625D01*
X89295875Y-67930382D01*
X89237863Y-67957433D01*
X89051459Y-68087953D01*
X88890553Y-68248859D01*
X88760032Y-68435264D01*
X88663861Y-68641502D01*
X88604964Y-68861310D01*
X88585131Y-69087999D01*
X88604964Y-69314689D01*
X88663861Y-69534497D01*
X88760032Y-69740735D01*
X88890553Y-69927140D01*
X89051459Y-70088046D01*
X89177909Y-70176586D01*
X89237866Y-70218568D01*
X89295875Y-70245618D01*
X89348050Y-70291375D01*
X89367469Y-70358000D01*
X89348050Y-70424625D01*
X89295875Y-70470381D01*
X89286589Y-70474712D01*
X89237863Y-70497433D01*
X89051459Y-70627953D01*
X88890553Y-70788859D01*
X88760032Y-70975264D01*
X88663861Y-71181502D01*
X88604964Y-71401310D01*
X88585131Y-71627999D01*
X88604964Y-71854689D01*
X88663861Y-72074497D01*
X88760032Y-72280735D01*
X88890553Y-72467140D01*
X89051459Y-72628046D01*
X89161348Y-72704990D01*
X89237866Y-72758568D01*
X89295873Y-72785617D01*
X89348049Y-72831373D01*
X89367469Y-72897997D01*
X89348051Y-72964622D01*
X89295876Y-73010380D01*
X89237866Y-73037431D01*
X89051459Y-73167953D01*
X88890553Y-73328859D01*
X88760032Y-73515264D01*
X88663861Y-73721502D01*
X88604964Y-73941310D01*
X88585131Y-74167999D01*
X88604964Y-74394689D01*
X88663861Y-74614497D01*
X88760032Y-74820735D01*
X88890553Y-75007140D01*
X89051459Y-75168046D01*
X89135858Y-75227142D01*
X89237866Y-75298568D01*
X89295873Y-75325617D01*
X89348049Y-75371373D01*
X89367469Y-75437997D01*
X89348051Y-75504622D01*
X89295876Y-75550380D01*
X89237866Y-75577431D01*
X89051459Y-75707953D01*
X88890553Y-75868859D01*
X88760032Y-76055264D01*
X88663861Y-76261502D01*
X88604964Y-76481310D01*
X88585131Y-76707999D01*
X88604964Y-76934689D01*
X88663861Y-77154497D01*
X88760032Y-77360735D01*
X88890553Y-77547140D01*
X89051459Y-77708046D01*
X89172133Y-77792542D01*
X89237866Y-77838568D01*
X89295875Y-77865618D01*
X89348050Y-77911375D01*
X89367469Y-77978000D01*
X89348050Y-78044625D01*
X89295875Y-78090382D01*
X89237863Y-78117433D01*
X89051459Y-78247953D01*
X88890553Y-78408859D01*
X88760032Y-78595264D01*
X88663861Y-78801502D01*
X88604964Y-79021310D01*
X88585131Y-79247999D01*
X88604964Y-79474689D01*
X88663861Y-79694497D01*
X88760032Y-79900735D01*
X88890553Y-80087140D01*
X89051459Y-80248046D01*
X89237863Y-80378566D01*
X89237866Y-80378568D01*
X89295875Y-80405618D01*
X89348050Y-80451375D01*
X89367469Y-80518000D01*
X89348050Y-80584625D01*
X89295875Y-80630382D01*
X89237863Y-80657433D01*
X89051459Y-80787953D01*
X88890553Y-80948859D01*
X88760032Y-81135264D01*
X88663861Y-81341502D01*
X88604964Y-81561310D01*
X88585131Y-81787999D01*
X88604964Y-82014689D01*
X88663861Y-82234497D01*
X88760032Y-82440735D01*
X88890553Y-82627140D01*
X89051459Y-82788046D01*
X89135858Y-82847142D01*
X89237866Y-82918568D01*
X89295875Y-82945618D01*
X89348050Y-82991375D01*
X89367469Y-83058000D01*
X89348050Y-83124625D01*
X89295875Y-83170382D01*
X89237863Y-83197433D01*
X89051459Y-83327953D01*
X88890553Y-83488859D01*
X88760032Y-83675264D01*
X88663861Y-83881502D01*
X88604964Y-84101310D01*
X88585131Y-84327999D01*
X88604964Y-84554689D01*
X88663861Y-84774497D01*
X88760032Y-84980735D01*
X88890553Y-85167140D01*
X89051459Y-85328046D01*
X89101318Y-85362957D01*
X89237866Y-85458568D01*
X89295873Y-85485617D01*
X89348049Y-85531373D01*
X89367469Y-85597997D01*
X89348051Y-85664622D01*
X89295876Y-85710380D01*
X89237866Y-85737431D01*
X89051459Y-85867953D01*
X88890553Y-86028859D01*
X88760032Y-86215264D01*
X88663861Y-86421502D01*
X88604964Y-86641310D01*
X88585131Y-86867999D01*
X88604964Y-87094689D01*
X88663861Y-87314497D01*
X88760032Y-87520735D01*
X88890553Y-87707140D01*
X89051459Y-87868046D01*
X89237862Y-87998565D01*
X89237866Y-87998568D01*
X89295873Y-88025617D01*
X89348049Y-88071373D01*
X89367469Y-88137997D01*
X89348051Y-88204622D01*
X89295876Y-88250380D01*
X89237866Y-88277431D01*
X89051459Y-88407953D01*
X88890553Y-88568859D01*
X88760032Y-88755264D01*
X88663861Y-88961502D01*
X88604964Y-89181310D01*
X88585131Y-89408000D01*
X88604964Y-89634689D01*
X88663861Y-89854497D01*
X88760032Y-90060735D01*
X88890553Y-90247140D01*
X89051459Y-90408046D01*
X89168137Y-90489744D01*
X89237866Y-90538568D01*
X89295875Y-90565618D01*
X89348050Y-90611375D01*
X89367469Y-90678000D01*
X89348050Y-90744625D01*
X89295875Y-90790382D01*
X89237863Y-90817433D01*
X89051459Y-90947953D01*
X88890553Y-91108859D01*
X88760032Y-91295264D01*
X88663861Y-91501502D01*
X88604964Y-91721310D01*
X88585131Y-91948000D01*
X88604964Y-92174689D01*
X88663861Y-92394497D01*
X88760032Y-92600735D01*
X88890553Y-92787140D01*
X89051459Y-92948046D01*
X89168137Y-93029744D01*
X89237866Y-93078568D01*
X89295875Y-93105618D01*
X89348050Y-93151375D01*
X89367469Y-93218000D01*
X89348050Y-93284625D01*
X89295875Y-93330382D01*
X89237863Y-93357433D01*
X89051459Y-93487953D01*
X88890553Y-93648859D01*
X88760032Y-93835264D01*
X88663861Y-94041502D01*
X88604964Y-94261310D01*
X88585131Y-94488000D01*
X88604964Y-94714689D01*
X88663861Y-94934497D01*
X88760032Y-95140735D01*
X88890553Y-95327140D01*
X89051459Y-95488046D01*
X89168137Y-95569744D01*
X89237866Y-95618568D01*
X89295873Y-95645617D01*
X89348049Y-95691373D01*
X89367469Y-95757997D01*
X89348051Y-95824622D01*
X89295876Y-95870380D01*
X89237866Y-95897431D01*
X89051459Y-96027953D01*
X88890553Y-96188859D01*
X88760032Y-96375264D01*
X88663861Y-96581502D01*
X88604964Y-96801310D01*
X88585131Y-97028000D01*
X87992500Y-97028000D01*
X87992500Y-49124500D01*
X88009113Y-49062500D01*
X88054500Y-49017113D01*
X88116500Y-49000500D01*
X159261000Y-49000500D01*
X159323000Y-49017113D01*
G37*
G04 #@! TD.AperFunction*
M02*
