G04 #@! TF.GenerationSoftware,KiCad,Pcbnew,7.0.1-0*
G04 #@! TF.CreationDate,2023-11-21T08:42:52-06:00*
G04 #@! TF.ProjectId,kawari_twist,7669635f-7477-4697-9374-65722e6b6963,rev?*
G04 #@! TF.SameCoordinates,Original*
G04 #@! TF.FileFunction,Legend,Top*
G04 #@! TF.FilePolarity,Positive*
%FSLAX46Y46*%
G04 Gerber Fmt 4.6, Leading zero omitted, Abs format (unit mm)*
G04 Created by KiCad (PCBNEW 7.0.1-0) date 2023-11-21 08:42:52*
%MOMM*%
%LPD*%
G01*
G04 APERTURE LIST*
%ADD10C,0.150000*%
%ADD11C,0.635000*%
%ADD12C,0.120000*%
%ADD13R,1.600000X1.600000*%
%ADD14O,1.600000X1.600000*%
%ADD15C,3.200000*%
G04 APERTURE END LIST*
D10*
X108447104Y-98276724D02*
X107818591Y-95816026D01*
X109012391Y-95816026D01*
X108447104Y-98276724D01*
G36*
X108447104Y-98276724D02*
G01*
X107818591Y-95816026D01*
X109012391Y-95816026D01*
X108447104Y-98276724D01*
G37*
X93765030Y-51858913D02*
X91304332Y-51293626D01*
X93765030Y-50665113D01*
X93765030Y-51858913D01*
G36*
X93765030Y-51858913D02*
G01*
X91304332Y-51293626D01*
X93765030Y-50665113D01*
X93765030Y-51858913D01*
G37*
X92943380Y-74761797D02*
X92229095Y-74761797D01*
X92229095Y-74761797D02*
X92086238Y-74714178D01*
X92086238Y-74714178D02*
X91991000Y-74618940D01*
X91991000Y-74618940D02*
X91943380Y-74476083D01*
X91943380Y-74476083D02*
X91943380Y-74380845D01*
X91943380Y-75380845D02*
X91991000Y-75285607D01*
X91991000Y-75285607D02*
X92038619Y-75237988D01*
X92038619Y-75237988D02*
X92133857Y-75190369D01*
X92133857Y-75190369D02*
X92419571Y-75190369D01*
X92419571Y-75190369D02*
X92514809Y-75237988D01*
X92514809Y-75237988D02*
X92562428Y-75285607D01*
X92562428Y-75285607D02*
X92610047Y-75380845D01*
X92610047Y-75380845D02*
X92610047Y-75523702D01*
X92610047Y-75523702D02*
X92562428Y-75618940D01*
X92562428Y-75618940D02*
X92514809Y-75666559D01*
X92514809Y-75666559D02*
X92419571Y-75714178D01*
X92419571Y-75714178D02*
X92133857Y-75714178D01*
X92133857Y-75714178D02*
X92038619Y-75666559D01*
X92038619Y-75666559D02*
X91991000Y-75618940D01*
X91991000Y-75618940D02*
X91943380Y-75523702D01*
X91943380Y-75523702D02*
X91943380Y-75380845D01*
X92610047Y-76142750D02*
X91943380Y-76142750D01*
X92514809Y-76142750D02*
X92562428Y-76190369D01*
X92562428Y-76190369D02*
X92610047Y-76285607D01*
X92610047Y-76285607D02*
X92610047Y-76428464D01*
X92610047Y-76428464D02*
X92562428Y-76523702D01*
X92562428Y-76523702D02*
X92467190Y-76571321D01*
X92467190Y-76571321D02*
X91943380Y-76571321D01*
X92467190Y-78142750D02*
X92419571Y-78285607D01*
X92419571Y-78285607D02*
X92371952Y-78333226D01*
X92371952Y-78333226D02*
X92276714Y-78380845D01*
X92276714Y-78380845D02*
X92133857Y-78380845D01*
X92133857Y-78380845D02*
X92038619Y-78333226D01*
X92038619Y-78333226D02*
X91991000Y-78285607D01*
X91991000Y-78285607D02*
X91943380Y-78190369D01*
X91943380Y-78190369D02*
X91943380Y-77809417D01*
X91943380Y-77809417D02*
X92943380Y-77809417D01*
X92943380Y-77809417D02*
X92943380Y-78142750D01*
X92943380Y-78142750D02*
X92895761Y-78237988D01*
X92895761Y-78237988D02*
X92848142Y-78285607D01*
X92848142Y-78285607D02*
X92752904Y-78333226D01*
X92752904Y-78333226D02*
X92657666Y-78333226D01*
X92657666Y-78333226D02*
X92562428Y-78285607D01*
X92562428Y-78285607D02*
X92514809Y-78237988D01*
X92514809Y-78237988D02*
X92467190Y-78142750D01*
X92467190Y-78142750D02*
X92467190Y-77809417D01*
X91943380Y-78809417D02*
X92610047Y-78809417D01*
X92419571Y-78809417D02*
X92514809Y-78857036D01*
X92514809Y-78857036D02*
X92562428Y-78904655D01*
X92562428Y-78904655D02*
X92610047Y-78999893D01*
X92610047Y-78999893D02*
X92610047Y-79095131D01*
X91943380Y-79857036D02*
X92467190Y-79857036D01*
X92467190Y-79857036D02*
X92562428Y-79809417D01*
X92562428Y-79809417D02*
X92610047Y-79714179D01*
X92610047Y-79714179D02*
X92610047Y-79523703D01*
X92610047Y-79523703D02*
X92562428Y-79428465D01*
X91991000Y-79857036D02*
X91943380Y-79761798D01*
X91943380Y-79761798D02*
X91943380Y-79523703D01*
X91943380Y-79523703D02*
X91991000Y-79428465D01*
X91991000Y-79428465D02*
X92086238Y-79380846D01*
X92086238Y-79380846D02*
X92181476Y-79380846D01*
X92181476Y-79380846D02*
X92276714Y-79428465D01*
X92276714Y-79428465D02*
X92324333Y-79523703D01*
X92324333Y-79523703D02*
X92324333Y-79761798D01*
X92324333Y-79761798D02*
X92371952Y-79857036D01*
X92610047Y-80237989D02*
X91943380Y-80428465D01*
X91943380Y-80428465D02*
X92419571Y-80618941D01*
X92419571Y-80618941D02*
X91943380Y-80809417D01*
X91943380Y-80809417D02*
X92610047Y-80999893D01*
X92610047Y-81380846D02*
X91943380Y-81380846D01*
X92514809Y-81380846D02*
X92562428Y-81428465D01*
X92562428Y-81428465D02*
X92610047Y-81523703D01*
X92610047Y-81523703D02*
X92610047Y-81666560D01*
X92610047Y-81666560D02*
X92562428Y-81761798D01*
X92562428Y-81761798D02*
X92467190Y-81809417D01*
X92467190Y-81809417D02*
X91943380Y-81809417D01*
X92610047Y-82952275D02*
X91943380Y-83190370D01*
X92610047Y-83428465D02*
X91943380Y-83190370D01*
X91943380Y-83190370D02*
X91705285Y-83095132D01*
X91705285Y-83095132D02*
X91657666Y-83047513D01*
X91657666Y-83047513D02*
X91610047Y-82952275D01*
X91943380Y-83952275D02*
X91991000Y-83857037D01*
X91991000Y-83857037D02*
X92038619Y-83809418D01*
X92038619Y-83809418D02*
X92133857Y-83761799D01*
X92133857Y-83761799D02*
X92419571Y-83761799D01*
X92419571Y-83761799D02*
X92514809Y-83809418D01*
X92514809Y-83809418D02*
X92562428Y-83857037D01*
X92562428Y-83857037D02*
X92610047Y-83952275D01*
X92610047Y-83952275D02*
X92610047Y-84095132D01*
X92610047Y-84095132D02*
X92562428Y-84190370D01*
X92562428Y-84190370D02*
X92514809Y-84237989D01*
X92514809Y-84237989D02*
X92419571Y-84285608D01*
X92419571Y-84285608D02*
X92133857Y-84285608D01*
X92133857Y-84285608D02*
X92038619Y-84237989D01*
X92038619Y-84237989D02*
X91991000Y-84190370D01*
X91991000Y-84190370D02*
X91943380Y-84095132D01*
X91943380Y-84095132D02*
X91943380Y-83952275D01*
X92610047Y-85142751D02*
X91943380Y-85142751D01*
X92610047Y-84714180D02*
X92086238Y-84714180D01*
X92086238Y-84714180D02*
X91991000Y-84761799D01*
X91991000Y-84761799D02*
X91943380Y-84857037D01*
X91943380Y-84857037D02*
X91943380Y-84999894D01*
X91943380Y-84999894D02*
X91991000Y-85095132D01*
X91991000Y-85095132D02*
X92038619Y-85142751D01*
X92610047Y-85476085D02*
X92610047Y-85857037D01*
X92943380Y-85618942D02*
X92086238Y-85618942D01*
X92086238Y-85618942D02*
X91991000Y-85666561D01*
X91991000Y-85666561D02*
X91943380Y-85761799D01*
X91943380Y-85761799D02*
X91943380Y-85857037D01*
X92610047Y-86618942D02*
X91943380Y-86618942D01*
X92610047Y-86190371D02*
X92086238Y-86190371D01*
X92086238Y-86190371D02*
X91991000Y-86237990D01*
X91991000Y-86237990D02*
X91943380Y-86333228D01*
X91943380Y-86333228D02*
X91943380Y-86476085D01*
X91943380Y-86476085D02*
X91991000Y-86571323D01*
X91991000Y-86571323D02*
X92038619Y-86618942D01*
X91943380Y-87095133D02*
X92943380Y-87095133D01*
X92562428Y-87095133D02*
X92610047Y-87190371D01*
X92610047Y-87190371D02*
X92610047Y-87380847D01*
X92610047Y-87380847D02*
X92562428Y-87476085D01*
X92562428Y-87476085D02*
X92514809Y-87523704D01*
X92514809Y-87523704D02*
X92419571Y-87571323D01*
X92419571Y-87571323D02*
X92133857Y-87571323D01*
X92133857Y-87571323D02*
X92038619Y-87523704D01*
X92038619Y-87523704D02*
X91991000Y-87476085D01*
X91991000Y-87476085D02*
X91943380Y-87380847D01*
X91943380Y-87380847D02*
X91943380Y-87190371D01*
X91943380Y-87190371D02*
X91991000Y-87095133D01*
X91991000Y-88380847D02*
X91943380Y-88285609D01*
X91943380Y-88285609D02*
X91943380Y-88095133D01*
X91943380Y-88095133D02*
X91991000Y-87999895D01*
X91991000Y-87999895D02*
X92086238Y-87952276D01*
X92086238Y-87952276D02*
X92467190Y-87952276D01*
X92467190Y-87952276D02*
X92562428Y-87999895D01*
X92562428Y-87999895D02*
X92610047Y-88095133D01*
X92610047Y-88095133D02*
X92610047Y-88285609D01*
X92610047Y-88285609D02*
X92562428Y-88380847D01*
X92562428Y-88380847D02*
X92467190Y-88428466D01*
X92467190Y-88428466D02*
X92371952Y-88428466D01*
X92371952Y-88428466D02*
X92276714Y-87952276D01*
X92038619Y-88857038D02*
X91991000Y-88904657D01*
X91991000Y-88904657D02*
X91943380Y-88857038D01*
X91943380Y-88857038D02*
X91991000Y-88809419D01*
X91991000Y-88809419D02*
X92038619Y-88857038D01*
X92038619Y-88857038D02*
X91943380Y-88857038D01*
X91991000Y-89761799D02*
X91943380Y-89666561D01*
X91943380Y-89666561D02*
X91943380Y-89476085D01*
X91943380Y-89476085D02*
X91991000Y-89380847D01*
X91991000Y-89380847D02*
X92038619Y-89333228D01*
X92038619Y-89333228D02*
X92133857Y-89285609D01*
X92133857Y-89285609D02*
X92419571Y-89285609D01*
X92419571Y-89285609D02*
X92514809Y-89333228D01*
X92514809Y-89333228D02*
X92562428Y-89380847D01*
X92562428Y-89380847D02*
X92610047Y-89476085D01*
X92610047Y-89476085D02*
X92610047Y-89666561D01*
X92610047Y-89666561D02*
X92562428Y-89761799D01*
X91943380Y-90333228D02*
X91991000Y-90237990D01*
X91991000Y-90237990D02*
X92038619Y-90190371D01*
X92038619Y-90190371D02*
X92133857Y-90142752D01*
X92133857Y-90142752D02*
X92419571Y-90142752D01*
X92419571Y-90142752D02*
X92514809Y-90190371D01*
X92514809Y-90190371D02*
X92562428Y-90237990D01*
X92562428Y-90237990D02*
X92610047Y-90333228D01*
X92610047Y-90333228D02*
X92610047Y-90476085D01*
X92610047Y-90476085D02*
X92562428Y-90571323D01*
X92562428Y-90571323D02*
X92514809Y-90618942D01*
X92514809Y-90618942D02*
X92419571Y-90666561D01*
X92419571Y-90666561D02*
X92133857Y-90666561D01*
X92133857Y-90666561D02*
X92038619Y-90618942D01*
X92038619Y-90618942D02*
X91991000Y-90571323D01*
X91991000Y-90571323D02*
X91943380Y-90476085D01*
X91943380Y-90476085D02*
X91943380Y-90333228D01*
X91943380Y-91095133D02*
X92610047Y-91095133D01*
X92514809Y-91095133D02*
X92562428Y-91142752D01*
X92562428Y-91142752D02*
X92610047Y-91237990D01*
X92610047Y-91237990D02*
X92610047Y-91380847D01*
X92610047Y-91380847D02*
X92562428Y-91476085D01*
X92562428Y-91476085D02*
X92467190Y-91523704D01*
X92467190Y-91523704D02*
X91943380Y-91523704D01*
X92467190Y-91523704D02*
X92562428Y-91571323D01*
X92562428Y-91571323D02*
X92610047Y-91666561D01*
X92610047Y-91666561D02*
X92610047Y-91809418D01*
X92610047Y-91809418D02*
X92562428Y-91904657D01*
X92562428Y-91904657D02*
X92467190Y-91952276D01*
X92467190Y-91952276D02*
X91943380Y-91952276D01*
X92991000Y-93142751D02*
X91705285Y-92285609D01*
X92419571Y-94095132D02*
X92467190Y-94047513D01*
X92467190Y-94047513D02*
X92514809Y-93952275D01*
X92514809Y-93952275D02*
X92514809Y-93857037D01*
X92514809Y-93857037D02*
X92467190Y-93761799D01*
X92467190Y-93761799D02*
X92419571Y-93714180D01*
X92419571Y-93714180D02*
X92324333Y-93666561D01*
X92324333Y-93666561D02*
X92229095Y-93666561D01*
X92229095Y-93666561D02*
X92133857Y-93714180D01*
X92133857Y-93714180D02*
X92086238Y-93761799D01*
X92086238Y-93761799D02*
X92038619Y-93857037D01*
X92038619Y-93857037D02*
X92038619Y-93952275D01*
X92038619Y-93952275D02*
X92086238Y-94047513D01*
X92086238Y-94047513D02*
X92133857Y-94095132D01*
X92514809Y-94095132D02*
X92133857Y-94095132D01*
X92133857Y-94095132D02*
X92086238Y-94142751D01*
X92086238Y-94142751D02*
X92086238Y-94190370D01*
X92086238Y-94190370D02*
X92133857Y-94285609D01*
X92133857Y-94285609D02*
X92229095Y-94333228D01*
X92229095Y-94333228D02*
X92467190Y-94333228D01*
X92467190Y-94333228D02*
X92610047Y-94237990D01*
X92610047Y-94237990D02*
X92705285Y-94095132D01*
X92705285Y-94095132D02*
X92752904Y-93904656D01*
X92752904Y-93904656D02*
X92705285Y-93714180D01*
X92705285Y-93714180D02*
X92610047Y-93571323D01*
X92610047Y-93571323D02*
X92467190Y-93476085D01*
X92467190Y-93476085D02*
X92276714Y-93428466D01*
X92276714Y-93428466D02*
X92086238Y-93476085D01*
X92086238Y-93476085D02*
X91943380Y-93571323D01*
X91943380Y-93571323D02*
X91848142Y-93714180D01*
X91848142Y-93714180D02*
X91800523Y-93904656D01*
X91800523Y-93904656D02*
X91848142Y-94095132D01*
X91848142Y-94095132D02*
X91943380Y-94237990D01*
X92943380Y-94618942D02*
X91943380Y-94952275D01*
X91943380Y-94952275D02*
X92943380Y-95285608D01*
X91943380Y-95618942D02*
X92610047Y-95618942D01*
X92943380Y-95618942D02*
X92895761Y-95571323D01*
X92895761Y-95571323D02*
X92848142Y-95618942D01*
X92848142Y-95618942D02*
X92895761Y-95666561D01*
X92895761Y-95666561D02*
X92943380Y-95618942D01*
X92943380Y-95618942D02*
X92848142Y-95618942D01*
X91991000Y-96523703D02*
X91943380Y-96428465D01*
X91943380Y-96428465D02*
X91943380Y-96237989D01*
X91943380Y-96237989D02*
X91991000Y-96142751D01*
X91991000Y-96142751D02*
X92038619Y-96095132D01*
X92038619Y-96095132D02*
X92133857Y-96047513D01*
X92133857Y-96047513D02*
X92419571Y-96047513D01*
X92419571Y-96047513D02*
X92514809Y-96095132D01*
X92514809Y-96095132D02*
X92562428Y-96142751D01*
X92562428Y-96142751D02*
X92610047Y-96237989D01*
X92610047Y-96237989D02*
X92610047Y-96428465D01*
X92610047Y-96428465D02*
X92562428Y-96523703D01*
X91991000Y-97333227D02*
X91943380Y-97237989D01*
X91943380Y-97237989D02*
X91943380Y-97047513D01*
X91943380Y-97047513D02*
X91991000Y-96952275D01*
X91991000Y-96952275D02*
X92086238Y-96904656D01*
X92086238Y-96904656D02*
X92467190Y-96904656D01*
X92467190Y-96904656D02*
X92562428Y-96952275D01*
X92562428Y-96952275D02*
X92610047Y-97047513D01*
X92610047Y-97047513D02*
X92610047Y-97237989D01*
X92610047Y-97237989D02*
X92562428Y-97333227D01*
X92562428Y-97333227D02*
X92467190Y-97380846D01*
X92467190Y-97380846D02*
X92371952Y-97380846D01*
X92371952Y-97380846D02*
X92276714Y-96904656D01*
X92610047Y-97809418D02*
X91943380Y-97809418D01*
X92514809Y-97809418D02*
X92562428Y-97857037D01*
X92562428Y-97857037D02*
X92610047Y-97952275D01*
X92610047Y-97952275D02*
X92610047Y-98095132D01*
X92610047Y-98095132D02*
X92562428Y-98190370D01*
X92562428Y-98190370D02*
X92467190Y-98237989D01*
X92467190Y-98237989D02*
X91943380Y-98237989D01*
X91943380Y-99142751D02*
X92467190Y-99142751D01*
X92467190Y-99142751D02*
X92562428Y-99095132D01*
X92562428Y-99095132D02*
X92610047Y-98999894D01*
X92610047Y-98999894D02*
X92610047Y-98809418D01*
X92610047Y-98809418D02*
X92562428Y-98714180D01*
X91991000Y-99142751D02*
X91943380Y-99047513D01*
X91943380Y-99047513D02*
X91943380Y-98809418D01*
X91943380Y-98809418D02*
X91991000Y-98714180D01*
X91991000Y-98714180D02*
X92086238Y-98666561D01*
X92086238Y-98666561D02*
X92181476Y-98666561D01*
X92181476Y-98666561D02*
X92276714Y-98714180D01*
X92276714Y-98714180D02*
X92324333Y-98809418D01*
X92324333Y-98809418D02*
X92324333Y-99047513D01*
X92324333Y-99047513D02*
X92371952Y-99142751D01*
X91943380Y-99618942D02*
X92610047Y-99618942D01*
X92419571Y-99618942D02*
X92514809Y-99666561D01*
X92514809Y-99666561D02*
X92562428Y-99714180D01*
X92562428Y-99714180D02*
X92610047Y-99809418D01*
X92610047Y-99809418D02*
X92610047Y-99904656D01*
X92610047Y-100142752D02*
X91943380Y-100380847D01*
X92610047Y-100618942D02*
X91943380Y-100380847D01*
X91943380Y-100380847D02*
X91705285Y-100285609D01*
X91705285Y-100285609D02*
X91657666Y-100237990D01*
X91657666Y-100237990D02*
X91610047Y-100142752D01*
D11*
G36*
X97878058Y-55495898D02*
G01*
X97257681Y-54858151D01*
X97321090Y-54840190D01*
X97383365Y-54823996D01*
X97444506Y-54809569D01*
X97504513Y-54796908D01*
X97563386Y-54786014D01*
X97621125Y-54776886D01*
X97677729Y-54769525D01*
X97733200Y-54763931D01*
X97787536Y-54760103D01*
X97840738Y-54758042D01*
X97875576Y-54757650D01*
X97932914Y-54758316D01*
X97989536Y-54760315D01*
X98045444Y-54763648D01*
X98100637Y-54768312D01*
X98155115Y-54774310D01*
X98208878Y-54781641D01*
X98261927Y-54790304D01*
X98314260Y-54800301D01*
X98365879Y-54811630D01*
X98416782Y-54824292D01*
X98466971Y-54838287D01*
X98516445Y-54853614D01*
X98565204Y-54870275D01*
X98613248Y-54888268D01*
X98660577Y-54907594D01*
X98707191Y-54928253D01*
X98753091Y-54950245D01*
X98798275Y-54973570D01*
X98842745Y-54998228D01*
X98886499Y-55024218D01*
X98929539Y-55051541D01*
X98971864Y-55080197D01*
X99013474Y-55110186D01*
X99054370Y-55141508D01*
X99094550Y-55174163D01*
X99134015Y-55208150D01*
X99172766Y-55243470D01*
X99210801Y-55280123D01*
X99248122Y-55318109D01*
X99284728Y-55357428D01*
X99320619Y-55398080D01*
X99355795Y-55440064D01*
X99390070Y-55483223D01*
X99423256Y-55527242D01*
X99455355Y-55572121D01*
X99486365Y-55617860D01*
X99516287Y-55664460D01*
X99545122Y-55711920D01*
X99572868Y-55760241D01*
X99599526Y-55809421D01*
X99625096Y-55859462D01*
X99649578Y-55910363D01*
X99672971Y-55962125D01*
X99695277Y-56014746D01*
X99716495Y-56068229D01*
X99736624Y-56122571D01*
X99755666Y-56177773D01*
X99773619Y-56233836D01*
X99790484Y-56290760D01*
X99806261Y-56348543D01*
X99820951Y-56407187D01*
X99834552Y-56466691D01*
X99847065Y-56527055D01*
X99858489Y-56588280D01*
X99868826Y-56650365D01*
X99878075Y-56713310D01*
X99886236Y-56777116D01*
X99893308Y-56841781D01*
X99899293Y-56907308D01*
X99904189Y-56973694D01*
X99907997Y-57040941D01*
X99910717Y-57109048D01*
X99912350Y-57178015D01*
X99912894Y-57247842D01*
X99912894Y-57571679D01*
X99860718Y-57561420D01*
X99809654Y-57551425D01*
X99759703Y-57541694D01*
X99710864Y-57532227D01*
X99616523Y-57514086D01*
X99526631Y-57497001D01*
X99441189Y-57480973D01*
X99360196Y-57466002D01*
X99283652Y-57452087D01*
X99211558Y-57439229D01*
X99143912Y-57427427D01*
X99080716Y-57416682D01*
X99021969Y-57406993D01*
X98967672Y-57398361D01*
X98917824Y-57390786D01*
X98851394Y-57381404D01*
X98794975Y-57374399D01*
X97895428Y-57273898D01*
X98019550Y-57370668D01*
X98139731Y-57466491D01*
X98255971Y-57561367D01*
X98368272Y-57655294D01*
X98476632Y-57748274D01*
X98581051Y-57840307D01*
X98681530Y-57931392D01*
X98778069Y-58021530D01*
X98870668Y-58110720D01*
X98959326Y-58198962D01*
X99044044Y-58286257D01*
X99124821Y-58372605D01*
X99201658Y-58458005D01*
X99274555Y-58542457D01*
X99343511Y-58625962D01*
X99408527Y-58708520D01*
X99469603Y-58790129D01*
X99526738Y-58870792D01*
X99579933Y-58950507D01*
X99629187Y-59029274D01*
X99674502Y-59107094D01*
X99715875Y-59183966D01*
X99753309Y-59259890D01*
X99786802Y-59334868D01*
X99816355Y-59408897D01*
X99841967Y-59481979D01*
X99863639Y-59554114D01*
X99881371Y-59625301D01*
X99895162Y-59695540D01*
X99905013Y-59764832D01*
X99910923Y-59833177D01*
X99912894Y-59900574D01*
X99912196Y-59950962D01*
X99910102Y-60002093D01*
X99906612Y-60053964D01*
X99901727Y-60106578D01*
X99895445Y-60159932D01*
X99887768Y-60214029D01*
X99878695Y-60268867D01*
X99868226Y-60324446D01*
X99856362Y-60380767D01*
X99843101Y-60437830D01*
X99833485Y-60476283D01*
X99350832Y-59953926D01*
X99370897Y-59900554D01*
X99388287Y-59846523D01*
X99403002Y-59791833D01*
X99415041Y-59736484D01*
X99424405Y-59680476D01*
X99431093Y-59623808D01*
X99435106Y-59566481D01*
X99436444Y-59508496D01*
X99434748Y-59453883D01*
X99429659Y-59398921D01*
X99421177Y-59343611D01*
X99409303Y-59287952D01*
X99394036Y-59231943D01*
X99375376Y-59175586D01*
X99353323Y-59118879D01*
X99327878Y-59061824D01*
X99299040Y-59004420D01*
X99266810Y-58946667D01*
X99231187Y-58888565D01*
X99192171Y-58830113D01*
X99149762Y-58771313D01*
X99103961Y-58712164D01*
X99054767Y-58652666D01*
X99002180Y-58592819D01*
X98947170Y-58533670D01*
X98890396Y-58475956D01*
X98831858Y-58419676D01*
X98771555Y-58364831D01*
X98709489Y-58311420D01*
X98645658Y-58259444D01*
X98580062Y-58208903D01*
X98512703Y-58159796D01*
X98443580Y-58112124D01*
X98372692Y-58065887D01*
X98300040Y-58021084D01*
X98225624Y-57977716D01*
X98149443Y-57935782D01*
X98071499Y-57895283D01*
X97991790Y-57856219D01*
X97910317Y-57818589D01*
X97833793Y-57858603D01*
X97757452Y-57899548D01*
X97681296Y-57941424D01*
X97605324Y-57984230D01*
X97529537Y-58027966D01*
X97453933Y-58072633D01*
X97378514Y-58118231D01*
X97303278Y-58164759D01*
X97228227Y-58212218D01*
X97153360Y-58260608D01*
X97078678Y-58309927D01*
X97004179Y-58360178D01*
X96929865Y-58411359D01*
X96855735Y-58463471D01*
X96781789Y-58516513D01*
X96708027Y-58570486D01*
X96199318Y-58947675D01*
X96139369Y-58992589D01*
X96083288Y-59036137D01*
X96031075Y-59078318D01*
X95982729Y-59119132D01*
X95938251Y-59158579D01*
X95897640Y-59196659D01*
X95860897Y-59233373D01*
X95813035Y-59285881D01*
X95773875Y-59335313D01*
X95743417Y-59381671D01*
X95716344Y-59438697D01*
X95704741Y-59490256D01*
X95704257Y-59502292D01*
X95710810Y-59567199D01*
X95724325Y-59615574D01*
X95745212Y-59663687D01*
X95773470Y-59711538D01*
X95809101Y-59759128D01*
X95852103Y-59806456D01*
X95902477Y-59853522D01*
X95960223Y-59900327D01*
X96002816Y-59931384D01*
X96048685Y-59962325D01*
X96097831Y-59993150D01*
X96123632Y-60008519D01*
X96085089Y-60049983D01*
X96049332Y-60084418D01*
X96010103Y-60116465D01*
X95964040Y-60143451D01*
X95925111Y-60152447D01*
X95866699Y-60147484D01*
X95805611Y-60132595D01*
X95758040Y-60114914D01*
X95708963Y-60091650D01*
X95658382Y-60062802D01*
X95606296Y-60028371D01*
X95552705Y-59988357D01*
X95497609Y-59942759D01*
X95460042Y-59909259D01*
X95421806Y-59873277D01*
X95382902Y-59834814D01*
X95344889Y-59795604D01*
X95309329Y-59757073D01*
X95276221Y-59719220D01*
X95231158Y-59663713D01*
X95191613Y-59609733D01*
X95157585Y-59557280D01*
X95129076Y-59506353D01*
X95106084Y-59456953D01*
X95088611Y-59409080D01*
X95073896Y-59347624D01*
X95068991Y-59288882D01*
X95072980Y-59237129D01*
X95084947Y-59182992D01*
X95104891Y-59126469D01*
X95132813Y-59067563D01*
X95168712Y-59006271D01*
X95212589Y-58942596D01*
X95264444Y-58876535D01*
X95324276Y-58808090D01*
X95392086Y-58737260D01*
X95428983Y-58700951D01*
X95467874Y-58664046D01*
X95508760Y-58626545D01*
X95551640Y-58588448D01*
X95596514Y-58549754D01*
X95643383Y-58510464D01*
X95692246Y-58470578D01*
X95743103Y-58430096D01*
X95795955Y-58389018D01*
X95850802Y-58347344D01*
X95907643Y-58305074D01*
X95966478Y-58262207D01*
X96027307Y-58218744D01*
X96090132Y-58174685D01*
X96146762Y-58135614D01*
X96202812Y-58097187D01*
X96258284Y-58059404D01*
X96313176Y-58022267D01*
X96367490Y-57985773D01*
X96421224Y-57949925D01*
X96474379Y-57914721D01*
X96526954Y-57880161D01*
X96578951Y-57846247D01*
X96630368Y-57812977D01*
X96681206Y-57780351D01*
X96731465Y-57748370D01*
X96781145Y-57717034D01*
X96830246Y-57686342D01*
X96878767Y-57656295D01*
X96926710Y-57626893D01*
X96974073Y-57598135D01*
X97020857Y-57570021D01*
X97067061Y-57542553D01*
X97112687Y-57515729D01*
X97157733Y-57489549D01*
X97202201Y-57464015D01*
X97246089Y-57439124D01*
X97289397Y-57414879D01*
X97374278Y-57368321D01*
X97456841Y-57324343D01*
X97537088Y-57282942D01*
X97615018Y-57244120D01*
X97085216Y-57185805D01*
X96694379Y-57139897D01*
X96631730Y-57132050D01*
X96571273Y-57123399D01*
X96513006Y-57113943D01*
X96456929Y-57103682D01*
X96403044Y-57092617D01*
X96351349Y-57080748D01*
X96301845Y-57068074D01*
X96231696Y-57047554D01*
X96166477Y-57025224D01*
X96106186Y-57001084D01*
X96050825Y-56975133D01*
X96000393Y-56947373D01*
X95954889Y-56917802D01*
X95912570Y-56886283D01*
X95871691Y-56852212D01*
X95832251Y-56815589D01*
X95794251Y-56776414D01*
X95757690Y-56734688D01*
X95722568Y-56690410D01*
X95688886Y-56643580D01*
X95656643Y-56594198D01*
X95625840Y-56542264D01*
X95596476Y-56487779D01*
X95577700Y-56450038D01*
X95540478Y-57209379D01*
X95067751Y-56710596D01*
X95153363Y-55086449D01*
X95626090Y-55618733D01*
X95593830Y-56002126D01*
X95627839Y-56050728D01*
X95666278Y-56096966D01*
X95709147Y-56140838D01*
X95756446Y-56182345D01*
X95808175Y-56221487D01*
X95864334Y-56258264D01*
X95924922Y-56292675D01*
X95989941Y-56324722D01*
X96059389Y-56354403D01*
X96133267Y-56381719D01*
X96211575Y-56406670D01*
X96294313Y-56429255D01*
X96381481Y-56449476D01*
X96473079Y-56467331D01*
X96569106Y-56482821D01*
X96618781Y-56489679D01*
X96669563Y-56495946D01*
X97020697Y-56534409D01*
X99436444Y-56797449D01*
X99436444Y-56734170D01*
X99435529Y-56647301D01*
X99432785Y-56563189D01*
X99428211Y-56481834D01*
X99421807Y-56403238D01*
X99413574Y-56327399D01*
X99403511Y-56254319D01*
X99391618Y-56183995D01*
X99377896Y-56116430D01*
X99362344Y-56051623D01*
X99344963Y-55989573D01*
X99325752Y-55930281D01*
X99304711Y-55873746D01*
X99281841Y-55819970D01*
X99257141Y-55768951D01*
X99230611Y-55720690D01*
X99202252Y-55675187D01*
X99172063Y-55632442D01*
X99140045Y-55592454D01*
X99106196Y-55555224D01*
X99033011Y-55489038D01*
X98952508Y-55433882D01*
X98864686Y-55389758D01*
X98818030Y-55371833D01*
X98769545Y-55356665D01*
X98719230Y-55344255D01*
X98667086Y-55334603D01*
X98613112Y-55327708D01*
X98557308Y-55323572D01*
X98499675Y-55322193D01*
X98444034Y-55323719D01*
X98387847Y-55328299D01*
X98331116Y-55335933D01*
X98273839Y-55346620D01*
X98216016Y-55360360D01*
X98157649Y-55377154D01*
X98098736Y-55397001D01*
X98039278Y-55419902D01*
X97979275Y-55445856D01*
X97918726Y-55474864D01*
X97878058Y-55495898D01*
G37*
G36*
X95934062Y-60407492D02*
G01*
X95999532Y-60409564D01*
X96064448Y-60413017D01*
X96128808Y-60417852D01*
X96192614Y-60424068D01*
X96255864Y-60431665D01*
X96318560Y-60440643D01*
X96380701Y-60451003D01*
X96442286Y-60462744D01*
X96503317Y-60475867D01*
X96563793Y-60490370D01*
X96623714Y-60506255D01*
X96683080Y-60523522D01*
X96741891Y-60542169D01*
X96800147Y-60562198D01*
X96857848Y-60583609D01*
X96914994Y-60606400D01*
X96971585Y-60630573D01*
X97027621Y-60656127D01*
X97083103Y-60683063D01*
X97138029Y-60711380D01*
X97192401Y-60741078D01*
X97246217Y-60772157D01*
X97299479Y-60804618D01*
X97352185Y-60838460D01*
X97404337Y-60873683D01*
X97455934Y-60910288D01*
X97506975Y-60948274D01*
X97557462Y-60987641D01*
X97607394Y-61028390D01*
X97656771Y-61070520D01*
X97705593Y-61114031D01*
X97753455Y-61158489D01*
X97799798Y-61203462D01*
X97844621Y-61248948D01*
X97887925Y-61294948D01*
X97929710Y-61341462D01*
X97969975Y-61388489D01*
X98008721Y-61436031D01*
X98045947Y-61484086D01*
X98081654Y-61532654D01*
X98115841Y-61581737D01*
X98148509Y-61631333D01*
X98179658Y-61681443D01*
X98209287Y-61732067D01*
X98237396Y-61783204D01*
X98263986Y-61834855D01*
X98289057Y-61887020D01*
X98312609Y-61939699D01*
X98334640Y-61992891D01*
X98355153Y-62046598D01*
X98374146Y-62100818D01*
X98391619Y-62155551D01*
X98407573Y-62210799D01*
X98422008Y-62266560D01*
X98434923Y-62322835D01*
X98446319Y-62379624D01*
X98456195Y-62436926D01*
X98464552Y-62494742D01*
X98471390Y-62553072D01*
X98476708Y-62611916D01*
X98480506Y-62671274D01*
X98482786Y-62731145D01*
X98483545Y-62791530D01*
X98482640Y-62860213D01*
X98479925Y-62927610D01*
X98475399Y-62993720D01*
X98469063Y-63058544D01*
X98460917Y-63122080D01*
X98450961Y-63184330D01*
X98439194Y-63245293D01*
X98425618Y-63304969D01*
X98410231Y-63363358D01*
X98393033Y-63420461D01*
X98380563Y-63457814D01*
X98332199Y-63444325D01*
X98283887Y-63430754D01*
X98270136Y-63426796D01*
X98091467Y-63384610D01*
X98037839Y-63373081D01*
X97983400Y-63361565D01*
X97933562Y-63351328D01*
X97882381Y-63341789D01*
X97878058Y-63341184D01*
X96374264Y-63117848D01*
X96157132Y-63086829D01*
X96098997Y-63078625D01*
X96044636Y-63071228D01*
X95994047Y-63064637D01*
X95932465Y-63057106D01*
X95877591Y-63051008D01*
X95818431Y-63045404D01*
X95761274Y-63041639D01*
X95731554Y-63040921D01*
X95679973Y-63044651D01*
X95633289Y-63065278D01*
X95624849Y-63088070D01*
X95630574Y-63138946D01*
X95647750Y-63190607D01*
X95676375Y-63243053D01*
X95716451Y-63296284D01*
X95767978Y-63350300D01*
X95808690Y-63386747D01*
X95854491Y-63423543D01*
X95905382Y-63460689D01*
X95961361Y-63498183D01*
X96022429Y-63536026D01*
X96088587Y-63574217D01*
X96159833Y-63612758D01*
X96236168Y-63651648D01*
X96276245Y-63671224D01*
X96248600Y-63714832D01*
X96216147Y-63757406D01*
X96179277Y-63793622D01*
X96133443Y-63818900D01*
X96108743Y-63822596D01*
X96048881Y-63811735D01*
X95999329Y-63792425D01*
X95942060Y-63763461D01*
X95894045Y-63735403D01*
X95841690Y-63701913D01*
X95784995Y-63662993D01*
X95723959Y-63618642D01*
X95680857Y-63586058D01*
X95635827Y-63551060D01*
X95588867Y-63513648D01*
X95525913Y-63461275D01*
X95467021Y-63409309D01*
X95412191Y-63357750D01*
X95361421Y-63306598D01*
X95314714Y-63255853D01*
X95272068Y-63205515D01*
X95233483Y-63155584D01*
X95198960Y-63106061D01*
X95168499Y-63056944D01*
X95142099Y-63008235D01*
X95119760Y-62959933D01*
X95101484Y-62912038D01*
X95081684Y-62840959D01*
X95071022Y-62770796D01*
X95068991Y-62724529D01*
X95072306Y-62671978D01*
X95087040Y-62609950D01*
X95113561Y-62557111D01*
X95151870Y-62513462D01*
X95201965Y-62479002D01*
X95263848Y-62453731D01*
X95317995Y-62440808D01*
X95378773Y-62433055D01*
X95446180Y-62430470D01*
X95496061Y-62431658D01*
X95553423Y-62435220D01*
X95608545Y-62440164D01*
X95658678Y-62445616D01*
X95712627Y-62452281D01*
X95735276Y-62455285D01*
X96010723Y-62490027D01*
X96314708Y-62535934D01*
X96376746Y-62545860D01*
X96317131Y-62508221D01*
X96258021Y-62469128D01*
X96199415Y-62428580D01*
X96141313Y-62386579D01*
X96083715Y-62343123D01*
X96026620Y-62298214D01*
X95970030Y-62251850D01*
X95913945Y-62204033D01*
X95858363Y-62154761D01*
X95803285Y-62104036D01*
X95748711Y-62051856D01*
X95694641Y-61998223D01*
X95641076Y-61943135D01*
X95588014Y-61886594D01*
X95535456Y-61828598D01*
X95483403Y-61769149D01*
X95433220Y-61709578D01*
X95386275Y-61650909D01*
X95342568Y-61593141D01*
X95302098Y-61536275D01*
X95264866Y-61480310D01*
X95230871Y-61425247D01*
X95200114Y-61371085D01*
X95172594Y-61317825D01*
X95158640Y-61287736D01*
X95704257Y-61287736D01*
X95708205Y-61343828D01*
X95720048Y-61402298D01*
X95739786Y-61463144D01*
X95767419Y-61526368D01*
X95802948Y-61591969D01*
X95831020Y-61637024D01*
X95862601Y-61683136D01*
X95897691Y-61730304D01*
X95936290Y-61778528D01*
X95978398Y-61827809D01*
X96024015Y-61878147D01*
X96073141Y-61929542D01*
X96125777Y-61981992D01*
X96153410Y-62008614D01*
X96191927Y-62044764D01*
X96230860Y-62080011D01*
X96270210Y-62114353D01*
X96309978Y-62147792D01*
X96350162Y-62180326D01*
X96390762Y-62211957D01*
X96431780Y-62242684D01*
X96473214Y-62272507D01*
X96515065Y-62301426D01*
X96557333Y-62329441D01*
X96600018Y-62356552D01*
X96643120Y-62382760D01*
X96686638Y-62408063D01*
X96730574Y-62432462D01*
X96774926Y-62455958D01*
X96819695Y-62478550D01*
X96864880Y-62500237D01*
X96910483Y-62521021D01*
X96956502Y-62540901D01*
X97002938Y-62559877D01*
X97049791Y-62577949D01*
X97097061Y-62595117D01*
X97144748Y-62611382D01*
X97192851Y-62626742D01*
X97241372Y-62641199D01*
X97290309Y-62654751D01*
X97339663Y-62667400D01*
X97389433Y-62679145D01*
X97439621Y-62689985D01*
X97490225Y-62699922D01*
X97541246Y-62708955D01*
X97592684Y-62717084D01*
X97931410Y-62769196D01*
X97959127Y-62715649D01*
X97984118Y-62661556D01*
X98006382Y-62606918D01*
X98025921Y-62551735D01*
X98042732Y-62496006D01*
X98056818Y-62439732D01*
X98068178Y-62382913D01*
X98076811Y-62325549D01*
X98082718Y-62267640D01*
X98085898Y-62209185D01*
X98086504Y-62169912D01*
X98084294Y-62112455D01*
X98077664Y-62056092D01*
X98066613Y-62000826D01*
X98051143Y-61946654D01*
X98031252Y-61893578D01*
X98006941Y-61841597D01*
X97978210Y-61790712D01*
X97945058Y-61740922D01*
X97907487Y-61692227D01*
X97865495Y-61644627D01*
X97819083Y-61598123D01*
X97768251Y-61552715D01*
X97712999Y-61508401D01*
X97653326Y-61465183D01*
X97589233Y-61423061D01*
X97520721Y-61382034D01*
X97448892Y-61342819D01*
X97374854Y-61306134D01*
X97298606Y-61271980D01*
X97220148Y-61240355D01*
X97139480Y-61211260D01*
X97056601Y-61184696D01*
X96971513Y-61160661D01*
X96884214Y-61139156D01*
X96794705Y-61120181D01*
X96702986Y-61103736D01*
X96609057Y-61089822D01*
X96512918Y-61078437D01*
X96414569Y-61069582D01*
X96364566Y-61066103D01*
X96314010Y-61063257D01*
X96262902Y-61061043D01*
X96211241Y-61059462D01*
X96159027Y-61058513D01*
X96106261Y-61058197D01*
X96034419Y-61060214D01*
X95969643Y-61066267D01*
X95911933Y-61076354D01*
X95861290Y-61090476D01*
X95804758Y-61115582D01*
X95760789Y-61147861D01*
X95729382Y-61187313D01*
X95710538Y-61233938D01*
X95704257Y-61287736D01*
X95158640Y-61287736D01*
X95148312Y-61265466D01*
X95127268Y-61214008D01*
X95109461Y-61163453D01*
X95094892Y-61113798D01*
X95083560Y-61065045D01*
X95072634Y-60993606D01*
X95068991Y-60924195D01*
X95072113Y-60861542D01*
X95081476Y-60802931D01*
X95097083Y-60748362D01*
X95118932Y-60697835D01*
X95147023Y-60651351D01*
X95181357Y-60608908D01*
X95221934Y-60570508D01*
X95268753Y-60536150D01*
X95321814Y-60505834D01*
X95381118Y-60479560D01*
X95446665Y-60457328D01*
X95518454Y-60439138D01*
X95596486Y-60424991D01*
X95680760Y-60414885D01*
X95771277Y-60408822D01*
X95868037Y-60406801D01*
X95934062Y-60407492D01*
G37*
G36*
X95019361Y-64822643D02*
G01*
X95075340Y-64822531D01*
X95130990Y-64822193D01*
X95186310Y-64821629D01*
X95241301Y-64820840D01*
X95295962Y-64819826D01*
X95350293Y-64818587D01*
X95404295Y-64817122D01*
X95457968Y-64815432D01*
X95511310Y-64813516D01*
X95564323Y-64811375D01*
X95617007Y-64809009D01*
X95669361Y-64806417D01*
X95721385Y-64803600D01*
X95773080Y-64800557D01*
X95824445Y-64797289D01*
X95875481Y-64793796D01*
X95926187Y-64790077D01*
X95976564Y-64786133D01*
X96026611Y-64781964D01*
X96076328Y-64777569D01*
X96174774Y-64768104D01*
X96271902Y-64757737D01*
X96367711Y-64746468D01*
X96462203Y-64734298D01*
X96555375Y-64721226D01*
X96647230Y-64707253D01*
X97389201Y-64591863D01*
X97462279Y-64579795D01*
X97530763Y-64566854D01*
X97594652Y-64553041D01*
X97653946Y-64538356D01*
X97708646Y-64522798D01*
X97758751Y-64506368D01*
X97825294Y-64480086D01*
X97881499Y-64451842D01*
X97927365Y-64421635D01*
X97972440Y-64378306D01*
X97999135Y-64331487D01*
X98007096Y-64294082D01*
X98002307Y-64238345D01*
X97978636Y-64186525D01*
X97936082Y-64138620D01*
X97891775Y-64105261D01*
X97836846Y-64074106D01*
X97771296Y-64045153D01*
X97721695Y-64027074D01*
X97667373Y-64009975D01*
X97608331Y-63993855D01*
X97544567Y-63978714D01*
X97476084Y-63964552D01*
X97440072Y-63957838D01*
X97458834Y-63905294D01*
X97486868Y-63853997D01*
X97520920Y-63815523D01*
X97568257Y-63786847D01*
X97623787Y-63775625D01*
X97632388Y-63775447D01*
X97685790Y-63777727D01*
X97739912Y-63784564D01*
X97794754Y-63795960D01*
X97850315Y-63811914D01*
X97906596Y-63832426D01*
X97963597Y-63857497D01*
X98021317Y-63887126D01*
X98079758Y-63921313D01*
X98138918Y-63960059D01*
X98198797Y-64003363D01*
X98239117Y-64034765D01*
X98278331Y-64067209D01*
X98332410Y-64115402D01*
X98380795Y-64163028D01*
X98423489Y-64210087D01*
X98460490Y-64256579D01*
X98491798Y-64302504D01*
X98517414Y-64347861D01*
X98542714Y-64407456D01*
X98557894Y-64466043D01*
X98562954Y-64523622D01*
X98558384Y-64585083D01*
X98544677Y-64643839D01*
X98521831Y-64699891D01*
X98489846Y-64753239D01*
X98448723Y-64803882D01*
X98398462Y-64851821D01*
X98339062Y-64897055D01*
X98294385Y-64925708D01*
X98245647Y-64953160D01*
X98192847Y-64979410D01*
X98135985Y-65004457D01*
X98075062Y-65028303D01*
X98043078Y-65039775D01*
X97975466Y-65062211D01*
X97902291Y-65084229D01*
X97823552Y-65105831D01*
X97739248Y-65127016D01*
X97649381Y-65147784D01*
X97553949Y-65168135D01*
X97504147Y-65178155D01*
X97452954Y-65188070D01*
X97400370Y-65197881D01*
X97346395Y-65207587D01*
X97291028Y-65217190D01*
X97234271Y-65226688D01*
X97176123Y-65236082D01*
X97116584Y-65245372D01*
X97055654Y-65254558D01*
X96993332Y-65263639D01*
X96929620Y-65272617D01*
X96864517Y-65281490D01*
X96798023Y-65290259D01*
X96730137Y-65298923D01*
X96660861Y-65307484D01*
X96590194Y-65315940D01*
X96518136Y-65324292D01*
X96444687Y-65332540D01*
X96369846Y-65340684D01*
X96293615Y-65348723D01*
X96209244Y-65357408D01*
X96272064Y-65391598D01*
X96334744Y-65425306D01*
X96397283Y-65458531D01*
X96459682Y-65491274D01*
X96521940Y-65523535D01*
X96584058Y-65555313D01*
X96646035Y-65586610D01*
X96707872Y-65617424D01*
X96769568Y-65647756D01*
X96831123Y-65677605D01*
X96892538Y-65706972D01*
X96953812Y-65735858D01*
X97014946Y-65764260D01*
X97075939Y-65792181D01*
X97136792Y-65819619D01*
X97197504Y-65846575D01*
X97258076Y-65873049D01*
X97318507Y-65899041D01*
X97378797Y-65924550D01*
X97438947Y-65949577D01*
X97498956Y-65974122D01*
X97558825Y-65998185D01*
X97618553Y-66021765D01*
X97678141Y-66044863D01*
X97737588Y-66067479D01*
X97796895Y-66089613D01*
X97856061Y-66111264D01*
X97915086Y-66132433D01*
X97973971Y-66153120D01*
X98032716Y-66173325D01*
X98091319Y-66193047D01*
X98149783Y-66212288D01*
X98608861Y-66694941D01*
X98541303Y-66701101D01*
X98476043Y-66707174D01*
X98413079Y-66713159D01*
X98352413Y-66719058D01*
X98294044Y-66724869D01*
X98237973Y-66730593D01*
X98184199Y-66736230D01*
X98132722Y-66741779D01*
X98059815Y-66749940D01*
X97992076Y-66757904D01*
X97929506Y-66765672D01*
X97872106Y-66773244D01*
X97819874Y-66780619D01*
X97803612Y-66783034D01*
X97247755Y-66866165D01*
X96859399Y-66925721D01*
X96074002Y-67060963D01*
X96119910Y-67089500D01*
X96200414Y-67138737D01*
X96279080Y-67186410D01*
X96355906Y-67232520D01*
X96430893Y-67277067D01*
X96504040Y-67320052D01*
X96575349Y-67361473D01*
X96644817Y-67401331D01*
X96712447Y-67439626D01*
X96778237Y-67476357D01*
X96842188Y-67511526D01*
X96904300Y-67545132D01*
X96964572Y-67577175D01*
X97023005Y-67607654D01*
X97079599Y-67636571D01*
X97134353Y-67663925D01*
X97187268Y-67689715D01*
X97238344Y-67713942D01*
X97287580Y-67736607D01*
X97334977Y-67757708D01*
X97424253Y-67795221D01*
X97506172Y-67826483D01*
X97580733Y-67851492D01*
X97647938Y-67870248D01*
X97707785Y-67882753D01*
X97760274Y-67889005D01*
X97783760Y-67889787D01*
X97839467Y-67884001D01*
X97894144Y-67866644D01*
X97947791Y-67837715D01*
X97989967Y-67806240D01*
X98031483Y-67767360D01*
X98072341Y-67721074D01*
X98102552Y-67681500D01*
X98122486Y-67652803D01*
X98571639Y-68132974D01*
X98539425Y-68187300D01*
X98505598Y-68236282D01*
X98470156Y-68279920D01*
X98433101Y-68318215D01*
X98394432Y-68351166D01*
X98340362Y-68386790D01*
X98283423Y-68412913D01*
X98223615Y-68429537D01*
X98160937Y-68436662D01*
X98144820Y-68436959D01*
X98085969Y-68433404D01*
X98020618Y-68422739D01*
X97948768Y-68404963D01*
X97897258Y-68389163D01*
X97842858Y-68370203D01*
X97785571Y-68348083D01*
X97725394Y-68322802D01*
X97662329Y-68294362D01*
X97596375Y-68262761D01*
X97527533Y-68228001D01*
X97455801Y-68190080D01*
X97381182Y-68149000D01*
X97303673Y-68104759D01*
X97223276Y-68057359D01*
X97181995Y-68032473D01*
X96832102Y-67821545D01*
X96377986Y-67559746D01*
X96317577Y-67525131D01*
X96257943Y-67491698D01*
X96199085Y-67459449D01*
X96141002Y-67428381D01*
X96083695Y-67398497D01*
X96027163Y-67369794D01*
X95971407Y-67342275D01*
X95916426Y-67315938D01*
X95862221Y-67290784D01*
X95808791Y-67266812D01*
X95756136Y-67244023D01*
X95704257Y-67222416D01*
X95653154Y-67201992D01*
X95602826Y-67182751D01*
X95553273Y-67164692D01*
X95504496Y-67147816D01*
X95019361Y-66660200D01*
X95107993Y-66653109D01*
X95196459Y-66645485D01*
X95284761Y-66637328D01*
X95372898Y-66628638D01*
X95460871Y-66619415D01*
X95548678Y-66609658D01*
X95636321Y-66599369D01*
X95723799Y-66588546D01*
X95811112Y-66577190D01*
X95898261Y-66565301D01*
X95985244Y-66552879D01*
X96072063Y-66539924D01*
X96158717Y-66526436D01*
X96245206Y-66512414D01*
X96331531Y-66497860D01*
X96417690Y-66482772D01*
X96744009Y-66425697D01*
X97447516Y-66295418D01*
X97245273Y-66184991D01*
X97194357Y-66157284D01*
X97143352Y-66129840D01*
X97092257Y-66102661D01*
X97041072Y-66075747D01*
X96989798Y-66049096D01*
X96938434Y-66022709D01*
X96886980Y-65996587D01*
X96835437Y-65970728D01*
X96783804Y-65945134D01*
X96732081Y-65919804D01*
X96680269Y-65894738D01*
X96628367Y-65869936D01*
X96576375Y-65845399D01*
X96524294Y-65821125D01*
X96472123Y-65797116D01*
X96419862Y-65773371D01*
X96367511Y-65749890D01*
X96315071Y-65726673D01*
X96262542Y-65703720D01*
X96209922Y-65681032D01*
X96157213Y-65658607D01*
X96104415Y-65636447D01*
X96051526Y-65614551D01*
X95998548Y-65592919D01*
X95945481Y-65571551D01*
X95892323Y-65550447D01*
X95839076Y-65529608D01*
X95785740Y-65509032D01*
X95732313Y-65488721D01*
X95678797Y-65468674D01*
X95625192Y-65448891D01*
X95571496Y-65429372D01*
X95019361Y-64822643D01*
G37*
G36*
X95934062Y-68517058D02*
G01*
X95999532Y-68519130D01*
X96064448Y-68522583D01*
X96128808Y-68527418D01*
X96192614Y-68533633D01*
X96255864Y-68541231D01*
X96318560Y-68550209D01*
X96380701Y-68560569D01*
X96442286Y-68572310D01*
X96503317Y-68585433D01*
X96563793Y-68599936D01*
X96623714Y-68615821D01*
X96683080Y-68633088D01*
X96741891Y-68651735D01*
X96800147Y-68671764D01*
X96857848Y-68693175D01*
X96914994Y-68715966D01*
X96971585Y-68740139D01*
X97027621Y-68765693D01*
X97083103Y-68792629D01*
X97138029Y-68820945D01*
X97192401Y-68850644D01*
X97246217Y-68881723D01*
X97299479Y-68914184D01*
X97352185Y-68948026D01*
X97404337Y-68983249D01*
X97455934Y-69019854D01*
X97506975Y-69057840D01*
X97557462Y-69097207D01*
X97607394Y-69137956D01*
X97656771Y-69180086D01*
X97705593Y-69223597D01*
X97753455Y-69268055D01*
X97799798Y-69313028D01*
X97844621Y-69358514D01*
X97887925Y-69404514D01*
X97929710Y-69451028D01*
X97969975Y-69498055D01*
X98008721Y-69545597D01*
X98045947Y-69593651D01*
X98081654Y-69642220D01*
X98115841Y-69691303D01*
X98148509Y-69740899D01*
X98179658Y-69791009D01*
X98209287Y-69841633D01*
X98237396Y-69892770D01*
X98263986Y-69944421D01*
X98289057Y-69996586D01*
X98312609Y-70049265D01*
X98334640Y-70102457D01*
X98355153Y-70156164D01*
X98374146Y-70210384D01*
X98391619Y-70265117D01*
X98407573Y-70320365D01*
X98422008Y-70376126D01*
X98434923Y-70432401D01*
X98446319Y-70489190D01*
X98456195Y-70546492D01*
X98464552Y-70604308D01*
X98471390Y-70662638D01*
X98476708Y-70721482D01*
X98480506Y-70780839D01*
X98482786Y-70840711D01*
X98483545Y-70901096D01*
X98482640Y-70969779D01*
X98479925Y-71037176D01*
X98475399Y-71103286D01*
X98469063Y-71168110D01*
X98460917Y-71231646D01*
X98450961Y-71293896D01*
X98439194Y-71354859D01*
X98425618Y-71414535D01*
X98410231Y-71472924D01*
X98393033Y-71530027D01*
X98380563Y-71567380D01*
X98332199Y-71553891D01*
X98283887Y-71540320D01*
X98270136Y-71536362D01*
X98091467Y-71494176D01*
X98037839Y-71482647D01*
X97983400Y-71471131D01*
X97933562Y-71460894D01*
X97882381Y-71451355D01*
X97878058Y-71450750D01*
X96374264Y-71227414D01*
X96157132Y-71196395D01*
X96098997Y-71188191D01*
X96044636Y-71180794D01*
X95994047Y-71174203D01*
X95932465Y-71166671D01*
X95877591Y-71160574D01*
X95818431Y-71154970D01*
X95761274Y-71151204D01*
X95731554Y-71150487D01*
X95679973Y-71154217D01*
X95633289Y-71174844D01*
X95624849Y-71197636D01*
X95630574Y-71248512D01*
X95647750Y-71300172D01*
X95676375Y-71352619D01*
X95716451Y-71405850D01*
X95767978Y-71459866D01*
X95808690Y-71496313D01*
X95854491Y-71533109D01*
X95905382Y-71570254D01*
X95961361Y-71607748D01*
X96022429Y-71645591D01*
X96088587Y-71683783D01*
X96159833Y-71722324D01*
X96236168Y-71761214D01*
X96276245Y-71780790D01*
X96248600Y-71824398D01*
X96216147Y-71866972D01*
X96179277Y-71903188D01*
X96133443Y-71928466D01*
X96108743Y-71932162D01*
X96048881Y-71921301D01*
X95999329Y-71901991D01*
X95942060Y-71873027D01*
X95894045Y-71844969D01*
X95841690Y-71811479D01*
X95784995Y-71772559D01*
X95723959Y-71728208D01*
X95680857Y-71695624D01*
X95635827Y-71660626D01*
X95588867Y-71623214D01*
X95525913Y-71570841D01*
X95467021Y-71518875D01*
X95412191Y-71467316D01*
X95361421Y-71416164D01*
X95314714Y-71365419D01*
X95272068Y-71315081D01*
X95233483Y-71265150D01*
X95198960Y-71215627D01*
X95168499Y-71166510D01*
X95142099Y-71117801D01*
X95119760Y-71069499D01*
X95101484Y-71021604D01*
X95081684Y-70950525D01*
X95071022Y-70880362D01*
X95068991Y-70834095D01*
X95072306Y-70781543D01*
X95087040Y-70719515D01*
X95113561Y-70666677D01*
X95151870Y-70623028D01*
X95201965Y-70588568D01*
X95263848Y-70563297D01*
X95317995Y-70550374D01*
X95378773Y-70542621D01*
X95446180Y-70540036D01*
X95496061Y-70541224D01*
X95553423Y-70544786D01*
X95608545Y-70549730D01*
X95658678Y-70555182D01*
X95712627Y-70561846D01*
X95735276Y-70564851D01*
X96010723Y-70599593D01*
X96314708Y-70645500D01*
X96376746Y-70655426D01*
X96317131Y-70617787D01*
X96258021Y-70578694D01*
X96199415Y-70538146D01*
X96141313Y-70496145D01*
X96083715Y-70452689D01*
X96026620Y-70407780D01*
X95970030Y-70361416D01*
X95913945Y-70313599D01*
X95858363Y-70264327D01*
X95803285Y-70213602D01*
X95748711Y-70161422D01*
X95694641Y-70107789D01*
X95641076Y-70052701D01*
X95588014Y-69996160D01*
X95535456Y-69938164D01*
X95483403Y-69878715D01*
X95433220Y-69819144D01*
X95386275Y-69760475D01*
X95342568Y-69702707D01*
X95302098Y-69645841D01*
X95264866Y-69589876D01*
X95230871Y-69534813D01*
X95200114Y-69480651D01*
X95172594Y-69427390D01*
X95158640Y-69397302D01*
X95704257Y-69397302D01*
X95708205Y-69453394D01*
X95720048Y-69511864D01*
X95739786Y-69572710D01*
X95767419Y-69635934D01*
X95802948Y-69701535D01*
X95831020Y-69746590D01*
X95862601Y-69792702D01*
X95897691Y-69839870D01*
X95936290Y-69888094D01*
X95978398Y-69937375D01*
X96024015Y-69987713D01*
X96073141Y-70039108D01*
X96125777Y-70091558D01*
X96153410Y-70118180D01*
X96191927Y-70154330D01*
X96230860Y-70189577D01*
X96270210Y-70223919D01*
X96309978Y-70257358D01*
X96350162Y-70289892D01*
X96390762Y-70321523D01*
X96431780Y-70352250D01*
X96473214Y-70382073D01*
X96515065Y-70410992D01*
X96557333Y-70439007D01*
X96600018Y-70466118D01*
X96643120Y-70492325D01*
X96686638Y-70517629D01*
X96730574Y-70542028D01*
X96774926Y-70565524D01*
X96819695Y-70588116D01*
X96864880Y-70609803D01*
X96910483Y-70630587D01*
X96956502Y-70650467D01*
X97002938Y-70669443D01*
X97049791Y-70687515D01*
X97097061Y-70704683D01*
X97144748Y-70720948D01*
X97192851Y-70736308D01*
X97241372Y-70750765D01*
X97290309Y-70764317D01*
X97339663Y-70776966D01*
X97389433Y-70788711D01*
X97439621Y-70799551D01*
X97490225Y-70809488D01*
X97541246Y-70818521D01*
X97592684Y-70826650D01*
X97931410Y-70878762D01*
X97959127Y-70825215D01*
X97984118Y-70771122D01*
X98006382Y-70716484D01*
X98025921Y-70661301D01*
X98042732Y-70605572D01*
X98056818Y-70549298D01*
X98068178Y-70492479D01*
X98076811Y-70435115D01*
X98082718Y-70377206D01*
X98085898Y-70318751D01*
X98086504Y-70279478D01*
X98084294Y-70222021D01*
X98077664Y-70165658D01*
X98066613Y-70110391D01*
X98051143Y-70056220D01*
X98031252Y-70003144D01*
X98006941Y-69951163D01*
X97978210Y-69900278D01*
X97945058Y-69850487D01*
X97907487Y-69801793D01*
X97865495Y-69754193D01*
X97819083Y-69707689D01*
X97768251Y-69662281D01*
X97712999Y-69617967D01*
X97653326Y-69574749D01*
X97589233Y-69532627D01*
X97520721Y-69491600D01*
X97448892Y-69452385D01*
X97374854Y-69415700D01*
X97298606Y-69381546D01*
X97220148Y-69349921D01*
X97139480Y-69320826D01*
X97056601Y-69294262D01*
X96971513Y-69270227D01*
X96884214Y-69248722D01*
X96794705Y-69229747D01*
X96702986Y-69213302D01*
X96609057Y-69199387D01*
X96512918Y-69188003D01*
X96414569Y-69179148D01*
X96364566Y-69175669D01*
X96314010Y-69172823D01*
X96262902Y-69170609D01*
X96211241Y-69169028D01*
X96159027Y-69168079D01*
X96106261Y-69167763D01*
X96034419Y-69169780D01*
X95969643Y-69175833D01*
X95911933Y-69185920D01*
X95861290Y-69200042D01*
X95804758Y-69225148D01*
X95760789Y-69257427D01*
X95729382Y-69296879D01*
X95710538Y-69343504D01*
X95704257Y-69397302D01*
X95158640Y-69397302D01*
X95148312Y-69375032D01*
X95127268Y-69323574D01*
X95109461Y-69273018D01*
X95094892Y-69223364D01*
X95083560Y-69174611D01*
X95072634Y-69103172D01*
X95068991Y-69033761D01*
X95072113Y-68971108D01*
X95081476Y-68912497D01*
X95097083Y-68857928D01*
X95118932Y-68807401D01*
X95147023Y-68760917D01*
X95181357Y-68718474D01*
X95221934Y-68680074D01*
X95268753Y-68645716D01*
X95321814Y-68615400D01*
X95381118Y-68589126D01*
X95446665Y-68566894D01*
X95518454Y-68548704D01*
X95596486Y-68534557D01*
X95680760Y-68524451D01*
X95771277Y-68518388D01*
X95868037Y-68516367D01*
X95934062Y-68517058D01*
G37*
G36*
X97252718Y-73403696D02*
G01*
X97333328Y-73446818D01*
X97411379Y-73490108D01*
X97486871Y-73533564D01*
X97559804Y-73577188D01*
X97630178Y-73620979D01*
X97697993Y-73664937D01*
X97763249Y-73709063D01*
X97825946Y-73753356D01*
X97886084Y-73797816D01*
X97943662Y-73842443D01*
X97998682Y-73887237D01*
X98051143Y-73932199D01*
X98101044Y-73977327D01*
X98148387Y-74022623D01*
X98193170Y-74068087D01*
X98235395Y-74113717D01*
X98275060Y-74159515D01*
X98312166Y-74205480D01*
X98346713Y-74251612D01*
X98378702Y-74297911D01*
X98408131Y-74344377D01*
X98435001Y-74391011D01*
X98459312Y-74437812D01*
X98481064Y-74484780D01*
X98500257Y-74531915D01*
X98516891Y-74579218D01*
X98542481Y-74674324D01*
X98557835Y-74770100D01*
X98562954Y-74866544D01*
X98561151Y-74918482D01*
X98555742Y-74971931D01*
X98546727Y-75026892D01*
X98534106Y-75083366D01*
X98517879Y-75141352D01*
X98498047Y-75200850D01*
X98474608Y-75261860D01*
X98454663Y-75308610D01*
X98447563Y-75324382D01*
X97854483Y-74772247D01*
X97879361Y-74722636D01*
X97899092Y-74670583D01*
X97913676Y-74616087D01*
X97923112Y-74559148D01*
X97927402Y-74499766D01*
X97927688Y-74479429D01*
X97922584Y-74414762D01*
X97907273Y-74349179D01*
X97881756Y-74282680D01*
X97859073Y-74237838D01*
X97831854Y-74192590D01*
X97800098Y-74146934D01*
X97763806Y-74100871D01*
X97722978Y-74054401D01*
X97677613Y-74007524D01*
X97627711Y-73960239D01*
X97573273Y-73912548D01*
X97514299Y-73864449D01*
X97450788Y-73815943D01*
X97382740Y-73767031D01*
X97347015Y-73742422D01*
X97274232Y-73694376D01*
X97201052Y-73648880D01*
X97127474Y-73605934D01*
X97053499Y-73565537D01*
X96979127Y-73527689D01*
X96904357Y-73492390D01*
X96829189Y-73459641D01*
X96753625Y-73429441D01*
X96677662Y-73401791D01*
X96601303Y-73376690D01*
X96524546Y-73354138D01*
X96447391Y-73334136D01*
X96369839Y-73316683D01*
X96291890Y-73301780D01*
X96213543Y-73289425D01*
X96134799Y-73279620D01*
X95253864Y-73182842D01*
X95051621Y-72583558D01*
X95216641Y-72600928D01*
X95443699Y-72624503D01*
X95688127Y-72653040D01*
X97324681Y-72834190D01*
X97505831Y-72855283D01*
X97555210Y-72861099D01*
X97613606Y-72867278D01*
X97668307Y-72872246D01*
X97719313Y-72876002D01*
X97775641Y-72878910D01*
X97826647Y-72880074D01*
X97834631Y-72880098D01*
X97884316Y-72878159D01*
X97939727Y-72868931D01*
X97986717Y-72845899D01*
X98007096Y-72800690D01*
X97998081Y-72736616D01*
X97979488Y-72687925D01*
X97950753Y-72638689D01*
X97911877Y-72588907D01*
X97862858Y-72538580D01*
X97824545Y-72504726D01*
X97781725Y-72470630D01*
X97734397Y-72436291D01*
X97682561Y-72401710D01*
X97626218Y-72366886D01*
X97565368Y-72331820D01*
X97500011Y-72296512D01*
X97430145Y-72260962D01*
X97463424Y-72219619D01*
X97502159Y-72179605D01*
X97545696Y-72146153D01*
X97593271Y-72125371D01*
X97627425Y-72121997D01*
X97685605Y-72130721D01*
X97747856Y-72151310D01*
X97797216Y-72174538D01*
X97848866Y-72204440D01*
X97902806Y-72241015D01*
X97959036Y-72284265D01*
X97997795Y-72316805D01*
X98037572Y-72352312D01*
X98078367Y-72390785D01*
X98120179Y-72432224D01*
X98163009Y-72476630D01*
X98206857Y-72524001D01*
X98249978Y-72572245D01*
X98290317Y-72619268D01*
X98327874Y-72665069D01*
X98362649Y-72709649D01*
X98394642Y-72753008D01*
X98423853Y-72795145D01*
X98462454Y-72856061D01*
X98494795Y-72914228D01*
X98520876Y-72969648D01*
X98540698Y-73022319D01*
X98554260Y-73072243D01*
X98562606Y-73134532D01*
X98562954Y-73149341D01*
X98559159Y-73209432D01*
X98547774Y-73263612D01*
X98528799Y-73311881D01*
X98502234Y-73354240D01*
X98468080Y-73390688D01*
X98426335Y-73421226D01*
X98377000Y-73445854D01*
X98320076Y-73464570D01*
X98255562Y-73477376D01*
X98183457Y-73484272D01*
X98131171Y-73485586D01*
X98078672Y-73484500D01*
X98025992Y-73481769D01*
X97975829Y-73478105D01*
X97921042Y-73473219D01*
X97871854Y-73468215D01*
X97626185Y-73443400D01*
X97332126Y-73412381D01*
X97252718Y-73403696D01*
G37*
G36*
X96276245Y-76833139D02*
G01*
X96248661Y-76876747D01*
X96216440Y-76919320D01*
X96180062Y-76955537D01*
X96135209Y-76980815D01*
X96111224Y-76984511D01*
X96061830Y-76976877D01*
X96013722Y-76959778D01*
X95957976Y-76932908D01*
X95911153Y-76906343D01*
X95860034Y-76874283D01*
X95804618Y-76836725D01*
X95744905Y-76793672D01*
X95702710Y-76761917D01*
X95658605Y-76727718D01*
X95612590Y-76691077D01*
X95588867Y-76671841D01*
X95525913Y-76619472D01*
X95467021Y-76567521D01*
X95412191Y-76515986D01*
X95361421Y-76464868D01*
X95314714Y-76414166D01*
X95272068Y-76363882D01*
X95233483Y-76314014D01*
X95198960Y-76264564D01*
X95168499Y-76215530D01*
X95142099Y-76166912D01*
X95119760Y-76118712D01*
X95101484Y-76070928D01*
X95081684Y-76000035D01*
X95071022Y-75930079D01*
X95068991Y-75883962D01*
X95072274Y-75831411D01*
X95086862Y-75769383D01*
X95113122Y-75716544D01*
X95151052Y-75672895D01*
X95200653Y-75638435D01*
X95261925Y-75613164D01*
X95315538Y-75600242D01*
X95375716Y-75592488D01*
X95442458Y-75589904D01*
X95501733Y-75592448D01*
X95569742Y-75598148D01*
X95632759Y-75604560D01*
X95706070Y-75612804D01*
X95760663Y-75619318D01*
X95819831Y-75626647D01*
X95883575Y-75634789D01*
X95951894Y-75643746D01*
X96024788Y-75653517D01*
X96102258Y-75664102D01*
X96184303Y-75675501D01*
X96270923Y-75687715D01*
X96315949Y-75694127D01*
X97251477Y-75830610D01*
X97488461Y-75865351D01*
X97678296Y-75893888D01*
X97727541Y-75900657D01*
X97779459Y-75906357D01*
X97832305Y-75910173D01*
X97874335Y-75911259D01*
X97926065Y-75908468D01*
X97977925Y-75894801D01*
X98007096Y-75852944D01*
X97998062Y-75789646D01*
X97979429Y-75740518D01*
X97950632Y-75689973D01*
X97911672Y-75638011D01*
X97862548Y-75584631D01*
X97824153Y-75548256D01*
X97781240Y-75511252D01*
X97733810Y-75473617D01*
X97681863Y-75435352D01*
X97625399Y-75396458D01*
X97564418Y-75356933D01*
X97498920Y-75316778D01*
X97428905Y-75275993D01*
X97466564Y-75236778D01*
X97508073Y-75201283D01*
X97552314Y-75174238D01*
X97602816Y-75160716D01*
X97607573Y-75160603D01*
X97666470Y-75166923D01*
X97729632Y-75185883D01*
X97779803Y-75208399D01*
X97832373Y-75238024D01*
X97887341Y-75274760D01*
X97944709Y-75318605D01*
X97984287Y-75351786D01*
X98024932Y-75388126D01*
X98066642Y-75427627D01*
X98109419Y-75470287D01*
X98153263Y-75516108D01*
X98198172Y-75565089D01*
X98242345Y-75615189D01*
X98283668Y-75664058D01*
X98322141Y-75711696D01*
X98357764Y-75758103D01*
X98390537Y-75803279D01*
X98420461Y-75847224D01*
X98447534Y-75889938D01*
X98482801Y-75951701D01*
X98511656Y-76010694D01*
X98534099Y-76066917D01*
X98550129Y-76120370D01*
X98559747Y-76171053D01*
X98562954Y-76218966D01*
X98559464Y-76272848D01*
X98548995Y-76321430D01*
X98524180Y-76377962D01*
X98486957Y-76425072D01*
X98437327Y-76462759D01*
X98391962Y-76484842D01*
X98339618Y-76501625D01*
X98280294Y-76513108D01*
X98213992Y-76519291D01*
X98165912Y-76520469D01*
X98114048Y-76518212D01*
X98057967Y-76513335D01*
X97998934Y-76506981D01*
X97942010Y-76500153D01*
X97891410Y-76493687D01*
X97878058Y-76491932D01*
X97647277Y-76460913D01*
X97595398Y-76453759D01*
X97545904Y-76446911D01*
X97492663Y-76439538D01*
X97442219Y-76432549D01*
X97384795Y-76424590D01*
X97369349Y-76422449D01*
X96384190Y-76279763D01*
X96163336Y-76245022D01*
X96104736Y-76236817D01*
X96049909Y-76229420D01*
X95998855Y-76222830D01*
X95936652Y-76215298D01*
X95881158Y-76209201D01*
X95821222Y-76203597D01*
X95763135Y-76199831D01*
X95732794Y-76199114D01*
X95680614Y-76202843D01*
X95633388Y-76223471D01*
X95624849Y-76246262D01*
X95630574Y-76297171D01*
X95647750Y-76348930D01*
X95676375Y-76401540D01*
X95716451Y-76455000D01*
X95767978Y-76509311D01*
X95808690Y-76545990D01*
X95854491Y-76583048D01*
X95905382Y-76620484D01*
X95961361Y-76658298D01*
X96022429Y-76696490D01*
X96088587Y-76735060D01*
X96159833Y-76774008D01*
X96236168Y-76813334D01*
X96276245Y-76833139D01*
G37*
G36*
X98822271Y-76067594D02*
G01*
X99688317Y-76411283D01*
X99709851Y-76460603D01*
X99732577Y-76508992D01*
X99756496Y-76556451D01*
X99781606Y-76602979D01*
X99807909Y-76648577D01*
X99835405Y-76693244D01*
X99864092Y-76736981D01*
X99893972Y-76779787D01*
X99925044Y-76821662D01*
X99957309Y-76862607D01*
X99990765Y-76902621D01*
X100025414Y-76941705D01*
X100061256Y-76979858D01*
X100098289Y-77017081D01*
X100136515Y-77053373D01*
X100175933Y-77088734D01*
X100133143Y-77116291D01*
X100088457Y-77139497D01*
X100038923Y-77156073D01*
X100008432Y-77159457D01*
X99945056Y-77155192D01*
X99880246Y-77142397D01*
X99814002Y-77121071D01*
X99746322Y-77091216D01*
X99677209Y-77052830D01*
X99606660Y-77005914D01*
X99534677Y-76950468D01*
X99461259Y-76886491D01*
X99424012Y-76851304D01*
X99386407Y-76813985D01*
X99348443Y-76774533D01*
X99310120Y-76732948D01*
X99271438Y-76689231D01*
X99232398Y-76643381D01*
X99193000Y-76595399D01*
X99153242Y-76545284D01*
X99113126Y-76493037D01*
X99072651Y-76438657D01*
X99031818Y-76382144D01*
X98990626Y-76323499D01*
X98949075Y-76262722D01*
X98907166Y-76199812D01*
X98864898Y-76134769D01*
X98822271Y-76067594D01*
G37*
G36*
X97878058Y-79988375D02*
G01*
X97257681Y-79350628D01*
X97321025Y-79332667D01*
X97383103Y-79316473D01*
X97443917Y-79302046D01*
X97503466Y-79289385D01*
X97561750Y-79278491D01*
X97618769Y-79269364D01*
X97674523Y-79262003D01*
X97729012Y-79256408D01*
X97782236Y-79252581D01*
X97834195Y-79250520D01*
X97868132Y-79250127D01*
X97929259Y-79250923D01*
X97989653Y-79253311D01*
X98049312Y-79257292D01*
X98108237Y-79262864D01*
X98166427Y-79270029D01*
X98223884Y-79278786D01*
X98280606Y-79289134D01*
X98336594Y-79301076D01*
X98391847Y-79314609D01*
X98446366Y-79329734D01*
X98500151Y-79346451D01*
X98553202Y-79364761D01*
X98605518Y-79384663D01*
X98657101Y-79406157D01*
X98707948Y-79429243D01*
X98758062Y-79453921D01*
X98807441Y-79480191D01*
X98856086Y-79508054D01*
X98903997Y-79537508D01*
X98951174Y-79568555D01*
X98997616Y-79601194D01*
X99043324Y-79635425D01*
X99088298Y-79671248D01*
X99132537Y-79708663D01*
X99176042Y-79747670D01*
X99218813Y-79788270D01*
X99260850Y-79830462D01*
X99302152Y-79874246D01*
X99342720Y-79919622D01*
X99382554Y-79966590D01*
X99421653Y-80015150D01*
X99460018Y-80065302D01*
X99514859Y-80142917D01*
X99566161Y-80224080D01*
X99613925Y-80308790D01*
X99658151Y-80397049D01*
X99678938Y-80442508D01*
X99698839Y-80488855D01*
X99717857Y-80536088D01*
X99735989Y-80584209D01*
X99753237Y-80633216D01*
X99769601Y-80683110D01*
X99785080Y-80733892D01*
X99799675Y-80785560D01*
X99813385Y-80838115D01*
X99826210Y-80891557D01*
X99838151Y-80945886D01*
X99849208Y-81001102D01*
X99859380Y-81057205D01*
X99868667Y-81114195D01*
X99877070Y-81172071D01*
X99884589Y-81230835D01*
X99891223Y-81290486D01*
X99896972Y-81351024D01*
X99901837Y-81412448D01*
X99905817Y-81474760D01*
X99908913Y-81537958D01*
X99911125Y-81602043D01*
X99912451Y-81667016D01*
X99912894Y-81732875D01*
X99912894Y-83816101D01*
X99913641Y-83893352D01*
X99915884Y-83968151D01*
X99919622Y-84040498D01*
X99924855Y-84110392D01*
X99931584Y-84177834D01*
X99939807Y-84242823D01*
X99949526Y-84305360D01*
X99960740Y-84365444D01*
X99973449Y-84423076D01*
X99987654Y-84478256D01*
X100003353Y-84530983D01*
X100020548Y-84581258D01*
X100039238Y-84629080D01*
X100059424Y-84674450D01*
X100104280Y-84757833D01*
X100155117Y-84831405D01*
X100211935Y-84895169D01*
X100274733Y-84949122D01*
X100343513Y-84993266D01*
X100418273Y-85027600D01*
X100499014Y-85052124D01*
X100585736Y-85066838D01*
X100678439Y-85071743D01*
X100728369Y-85069933D01*
X100778125Y-85064502D01*
X100827707Y-85055451D01*
X100877114Y-85042779D01*
X100926347Y-85026487D01*
X100975405Y-85006575D01*
X101024289Y-84983041D01*
X101072998Y-84955888D01*
X101121533Y-84925114D01*
X101169893Y-84890719D01*
X101202037Y-84865778D01*
X101679727Y-85363320D01*
X101631283Y-85397024D01*
X101581334Y-85427413D01*
X101529880Y-85454487D01*
X101476922Y-85478245D01*
X101422458Y-85498689D01*
X101366490Y-85515817D01*
X101309016Y-85529630D01*
X101250038Y-85540128D01*
X101189555Y-85547311D01*
X101127567Y-85551178D01*
X101085406Y-85551915D01*
X100998514Y-85549443D01*
X100913406Y-85542028D01*
X100830082Y-85529669D01*
X100748541Y-85512366D01*
X100668784Y-85490120D01*
X100590810Y-85462930D01*
X100514620Y-85430796D01*
X100440214Y-85393719D01*
X100367591Y-85351698D01*
X100296752Y-85304734D01*
X100227696Y-85252825D01*
X100160424Y-85195974D01*
X100094935Y-85134178D01*
X100031230Y-85067439D01*
X99969309Y-84995757D01*
X99909171Y-84919131D01*
X99851927Y-84839044D01*
X99798376Y-84756669D01*
X99748518Y-84672007D01*
X99702353Y-84585058D01*
X99659882Y-84495820D01*
X99621103Y-84404295D01*
X99603099Y-84357675D01*
X99586018Y-84310483D01*
X99569860Y-84262719D01*
X99554626Y-84214382D01*
X99540315Y-84165474D01*
X99526927Y-84115995D01*
X99514463Y-84065943D01*
X99502921Y-84015319D01*
X99492304Y-83964123D01*
X99482609Y-83912356D01*
X99473838Y-83860016D01*
X99465990Y-83807105D01*
X99459065Y-83753622D01*
X99453063Y-83699567D01*
X99447985Y-83644940D01*
X99443831Y-83589741D01*
X99440599Y-83533970D01*
X99438291Y-83477627D01*
X99436906Y-83420712D01*
X99436444Y-83363225D01*
X99436444Y-82428938D01*
X97088938Y-82170861D01*
X96696860Y-82128676D01*
X96634057Y-82120683D01*
X96573444Y-82111906D01*
X96515022Y-82102343D01*
X96458790Y-82091996D01*
X96404750Y-82080863D01*
X96352900Y-82068945D01*
X96303241Y-82056242D01*
X96232859Y-82035715D01*
X96167407Y-82013421D01*
X96106884Y-81989361D01*
X96051290Y-81963534D01*
X96000625Y-81935941D01*
X95954889Y-81906581D01*
X95912581Y-81875061D01*
X95871735Y-81840990D01*
X95832349Y-81804368D01*
X95794425Y-81765193D01*
X95757962Y-81723467D01*
X95722961Y-81679188D01*
X95689420Y-81632358D01*
X95657341Y-81582977D01*
X95626723Y-81531043D01*
X95597567Y-81476558D01*
X95578941Y-81438817D01*
X95541718Y-82386752D01*
X95067751Y-81887969D01*
X95153363Y-80070265D01*
X95626090Y-80606271D01*
X95593830Y-80989664D01*
X95627834Y-81037976D01*
X95666259Y-81083961D01*
X95709104Y-81127620D01*
X95756369Y-81168953D01*
X95808054Y-81207959D01*
X95864159Y-81244639D01*
X95924685Y-81278992D01*
X95989630Y-81311019D01*
X96058996Y-81340719D01*
X96132782Y-81368094D01*
X96210989Y-81393141D01*
X96293615Y-81415863D01*
X96380662Y-81436257D01*
X96472129Y-81454326D01*
X96568016Y-81470068D01*
X96617617Y-81477067D01*
X96668323Y-81483484D01*
X97020697Y-81518225D01*
X99436444Y-81786228D01*
X99436444Y-81237814D01*
X99435523Y-81150258D01*
X99432761Y-81065481D01*
X99428156Y-80983483D01*
X99421710Y-80904265D01*
X99413422Y-80827827D01*
X99403293Y-80754168D01*
X99391321Y-80683288D01*
X99377508Y-80615189D01*
X99361854Y-80549869D01*
X99344357Y-80487328D01*
X99325019Y-80427567D01*
X99303839Y-80370586D01*
X99280817Y-80316384D01*
X99255953Y-80264962D01*
X99229248Y-80216319D01*
X99200701Y-80170456D01*
X99170312Y-80127373D01*
X99138082Y-80087069D01*
X99104009Y-80049544D01*
X99068095Y-80014800D01*
X98990742Y-79953649D01*
X98906022Y-79903617D01*
X98860899Y-79882770D01*
X98813935Y-79864702D01*
X98765129Y-79849415D01*
X98714481Y-79836907D01*
X98661991Y-79827178D01*
X98607659Y-79820229D01*
X98551486Y-79816060D01*
X98493471Y-79814670D01*
X98438939Y-79816197D01*
X98383752Y-79820777D01*
X98327911Y-79828410D01*
X98271415Y-79839097D01*
X98214265Y-79852838D01*
X98156461Y-79869631D01*
X98098003Y-79889479D01*
X98038890Y-79912379D01*
X97979123Y-79938333D01*
X97918702Y-79967341D01*
X97878058Y-79988375D01*
G37*
G36*
X95019361Y-85210708D02*
G01*
X95075340Y-85210595D01*
X95130990Y-85210257D01*
X95186310Y-85209693D01*
X95241301Y-85208905D01*
X95295962Y-85207891D01*
X95350293Y-85206651D01*
X95404295Y-85205186D01*
X95457968Y-85203496D01*
X95511310Y-85201580D01*
X95564323Y-85199439D01*
X95617007Y-85197073D01*
X95669361Y-85194481D01*
X95721385Y-85191664D01*
X95773080Y-85188621D01*
X95824445Y-85185353D01*
X95875481Y-85181860D01*
X95926187Y-85178142D01*
X95976564Y-85174198D01*
X96026611Y-85170028D01*
X96076328Y-85165633D01*
X96174774Y-85156168D01*
X96271902Y-85145801D01*
X96367711Y-85134532D01*
X96462203Y-85122362D01*
X96555375Y-85109291D01*
X96647230Y-85095318D01*
X97389201Y-84979927D01*
X97462279Y-84967859D01*
X97530763Y-84954919D01*
X97594652Y-84941105D01*
X97653946Y-84926420D01*
X97708646Y-84910862D01*
X97758751Y-84894432D01*
X97825294Y-84868151D01*
X97881499Y-84839906D01*
X97927365Y-84809699D01*
X97972440Y-84766370D01*
X97999135Y-84719551D01*
X98007096Y-84682147D01*
X98002307Y-84626410D01*
X97978636Y-84574589D01*
X97936082Y-84526684D01*
X97891775Y-84493325D01*
X97836846Y-84462170D01*
X97771296Y-84433217D01*
X97721695Y-84415139D01*
X97667373Y-84398039D01*
X97608331Y-84381919D01*
X97544567Y-84366778D01*
X97476084Y-84352616D01*
X97440072Y-84345902D01*
X97458834Y-84293358D01*
X97486868Y-84242061D01*
X97520920Y-84203588D01*
X97568257Y-84174911D01*
X97623787Y-84163690D01*
X97632388Y-84163512D01*
X97685790Y-84165791D01*
X97739912Y-84172628D01*
X97794754Y-84184024D01*
X97850315Y-84199978D01*
X97906596Y-84220491D01*
X97963597Y-84245561D01*
X98021317Y-84275190D01*
X98079758Y-84309378D01*
X98138918Y-84348123D01*
X98198797Y-84391427D01*
X98239117Y-84422829D01*
X98278331Y-84455273D01*
X98332410Y-84503466D01*
X98380795Y-84551092D01*
X98423489Y-84598151D01*
X98460490Y-84644643D01*
X98491798Y-84690568D01*
X98517414Y-84735926D01*
X98542714Y-84795520D01*
X98557894Y-84854107D01*
X98562954Y-84911686D01*
X98558384Y-84973147D01*
X98544677Y-85031903D01*
X98521831Y-85087955D01*
X98489846Y-85141303D01*
X98448723Y-85191946D01*
X98398462Y-85239885D01*
X98339062Y-85285119D01*
X98294385Y-85313773D01*
X98245647Y-85341224D01*
X98192847Y-85367474D01*
X98135985Y-85392522D01*
X98075062Y-85416367D01*
X98043078Y-85427840D01*
X97975466Y-85450275D01*
X97902291Y-85472293D01*
X97823552Y-85493895D01*
X97739248Y-85515080D01*
X97649381Y-85535848D01*
X97553949Y-85556199D01*
X97504147Y-85566219D01*
X97452954Y-85576134D01*
X97400370Y-85585945D01*
X97346395Y-85595651D01*
X97291028Y-85605254D01*
X97234271Y-85614752D01*
X97176123Y-85624146D01*
X97116584Y-85633436D01*
X97055654Y-85642622D01*
X96993332Y-85651704D01*
X96929620Y-85660681D01*
X96864517Y-85669554D01*
X96798023Y-85678323D01*
X96730137Y-85686987D01*
X96660861Y-85695548D01*
X96590194Y-85704004D01*
X96518136Y-85712356D01*
X96444687Y-85720604D01*
X96369846Y-85728748D01*
X96293615Y-85736787D01*
X96209244Y-85745472D01*
X96272064Y-85779662D01*
X96334744Y-85813370D01*
X96397283Y-85846595D01*
X96459682Y-85879338D01*
X96521940Y-85911599D01*
X96584058Y-85943378D01*
X96646035Y-85974674D01*
X96707872Y-86005488D01*
X96769568Y-86035820D01*
X96831123Y-86065669D01*
X96892538Y-86095037D01*
X96953812Y-86123922D01*
X97014946Y-86152325D01*
X97075939Y-86180245D01*
X97136792Y-86207684D01*
X97197504Y-86234640D01*
X97258076Y-86261113D01*
X97318507Y-86287105D01*
X97378797Y-86312614D01*
X97438947Y-86337642D01*
X97498956Y-86362186D01*
X97558825Y-86386249D01*
X97618553Y-86409829D01*
X97678141Y-86432928D01*
X97737588Y-86455543D01*
X97796895Y-86477677D01*
X97856061Y-86499328D01*
X97915086Y-86520498D01*
X97973971Y-86541185D01*
X98032716Y-86561389D01*
X98091319Y-86581112D01*
X98149783Y-86600352D01*
X98608861Y-87083005D01*
X98541303Y-87089165D01*
X98476043Y-87095238D01*
X98413079Y-87101224D01*
X98352413Y-87107122D01*
X98294044Y-87112933D01*
X98237973Y-87118657D01*
X98184199Y-87124294D01*
X98132722Y-87129843D01*
X98059815Y-87138004D01*
X97992076Y-87145968D01*
X97929506Y-87153736D01*
X97872106Y-87161308D01*
X97819874Y-87168684D01*
X97803612Y-87171098D01*
X97247755Y-87254229D01*
X96859399Y-87313785D01*
X96074002Y-87449027D01*
X96119910Y-87477565D01*
X96200414Y-87526801D01*
X96279080Y-87574474D01*
X96355906Y-87620584D01*
X96430893Y-87665132D01*
X96504040Y-87708116D01*
X96575349Y-87749537D01*
X96644817Y-87789395D01*
X96712447Y-87827690D01*
X96778237Y-87864422D01*
X96842188Y-87899590D01*
X96904300Y-87933196D01*
X96964572Y-87965239D01*
X97023005Y-87995719D01*
X97079599Y-88024635D01*
X97134353Y-88051989D01*
X97187268Y-88077779D01*
X97238344Y-88102007D01*
X97287580Y-88124671D01*
X97334977Y-88145772D01*
X97424253Y-88183286D01*
X97506172Y-88214547D01*
X97580733Y-88239556D01*
X97647938Y-88258312D01*
X97707785Y-88270817D01*
X97760274Y-88277069D01*
X97783760Y-88277851D01*
X97839467Y-88272065D01*
X97894144Y-88254708D01*
X97947791Y-88225779D01*
X97989967Y-88194305D01*
X98031483Y-88155424D01*
X98072341Y-88109139D01*
X98102552Y-88069564D01*
X98122486Y-88040867D01*
X98571639Y-88521038D01*
X98539425Y-88575364D01*
X98505598Y-88624346D01*
X98470156Y-88667984D01*
X98433101Y-88706279D01*
X98394432Y-88739231D01*
X98340362Y-88774854D01*
X98283423Y-88800977D01*
X98223615Y-88817602D01*
X98160937Y-88824726D01*
X98144820Y-88825023D01*
X98085969Y-88821468D01*
X98020618Y-88810803D01*
X97948768Y-88793028D01*
X97897258Y-88777227D01*
X97842858Y-88758267D01*
X97785571Y-88736147D01*
X97725394Y-88710866D01*
X97662329Y-88682426D01*
X97596375Y-88650826D01*
X97527533Y-88616065D01*
X97455801Y-88578145D01*
X97381182Y-88537064D01*
X97303673Y-88492823D01*
X97223276Y-88445423D01*
X97181995Y-88420537D01*
X96832102Y-88209609D01*
X96377986Y-87947810D01*
X96317577Y-87913195D01*
X96257943Y-87879763D01*
X96199085Y-87847513D01*
X96141002Y-87816445D01*
X96083695Y-87786561D01*
X96027163Y-87757859D01*
X95971407Y-87730339D01*
X95916426Y-87704002D01*
X95862221Y-87678848D01*
X95808791Y-87654876D01*
X95756136Y-87632087D01*
X95704257Y-87610480D01*
X95653154Y-87590056D01*
X95602826Y-87570815D01*
X95553273Y-87552756D01*
X95504496Y-87535880D01*
X95019361Y-87048264D01*
X95107993Y-87041173D01*
X95196459Y-87033549D01*
X95284761Y-87025392D01*
X95372898Y-87016702D01*
X95460871Y-87007479D01*
X95548678Y-86997723D01*
X95636321Y-86987433D01*
X95723799Y-86976610D01*
X95811112Y-86965255D01*
X95898261Y-86953366D01*
X95985244Y-86940943D01*
X96072063Y-86927988D01*
X96158717Y-86914500D01*
X96245206Y-86900478D01*
X96331531Y-86885924D01*
X96417690Y-86870836D01*
X96744009Y-86813761D01*
X97447516Y-86683482D01*
X97245273Y-86573055D01*
X97194357Y-86545348D01*
X97143352Y-86517905D01*
X97092257Y-86490726D01*
X97041072Y-86463811D01*
X96989798Y-86437160D01*
X96938434Y-86410773D01*
X96886980Y-86384651D01*
X96835437Y-86358793D01*
X96783804Y-86333198D01*
X96732081Y-86307868D01*
X96680269Y-86282802D01*
X96628367Y-86258001D01*
X96576375Y-86233463D01*
X96524294Y-86209190D01*
X96472123Y-86185180D01*
X96419862Y-86161435D01*
X96367511Y-86137954D01*
X96315071Y-86114737D01*
X96262542Y-86091785D01*
X96209922Y-86069096D01*
X96157213Y-86046672D01*
X96104415Y-86024511D01*
X96051526Y-86002615D01*
X95998548Y-85980983D01*
X95945481Y-85959615D01*
X95892323Y-85938511D01*
X95839076Y-85917672D01*
X95785740Y-85897096D01*
X95732313Y-85876785D01*
X95678797Y-85856738D01*
X95625192Y-85836955D01*
X95571496Y-85817436D01*
X95019361Y-85210708D01*
G37*
G36*
X96276245Y-90441725D02*
G01*
X96248661Y-90485333D01*
X96216440Y-90527907D01*
X96180062Y-90564124D01*
X96135209Y-90589401D01*
X96111224Y-90593097D01*
X96061830Y-90585464D01*
X96013722Y-90568364D01*
X95957976Y-90541494D01*
X95911153Y-90514930D01*
X95860034Y-90482869D01*
X95804618Y-90445312D01*
X95744905Y-90402258D01*
X95702710Y-90370503D01*
X95658605Y-90336305D01*
X95612590Y-90299664D01*
X95588867Y-90280427D01*
X95525913Y-90228059D01*
X95467021Y-90176107D01*
X95412191Y-90124572D01*
X95361421Y-90073454D01*
X95314714Y-90022753D01*
X95272068Y-89972468D01*
X95233483Y-89922601D01*
X95198960Y-89873150D01*
X95168499Y-89824116D01*
X95142099Y-89775499D01*
X95119760Y-89727298D01*
X95101484Y-89679515D01*
X95081684Y-89608621D01*
X95071022Y-89538665D01*
X95068991Y-89492549D01*
X95072274Y-89439997D01*
X95086862Y-89377969D01*
X95113122Y-89325130D01*
X95151052Y-89281481D01*
X95200653Y-89247021D01*
X95261925Y-89221750D01*
X95315538Y-89208828D01*
X95375716Y-89201074D01*
X95442458Y-89198490D01*
X95501733Y-89201034D01*
X95569742Y-89206734D01*
X95632759Y-89213146D01*
X95706070Y-89221391D01*
X95760663Y-89227905D01*
X95819831Y-89235233D01*
X95883575Y-89243375D01*
X95951894Y-89252332D01*
X96024788Y-89262103D01*
X96102258Y-89272688D01*
X96184303Y-89284087D01*
X96270923Y-89296301D01*
X96315949Y-89302713D01*
X97251477Y-89439196D01*
X97488461Y-89473937D01*
X97678296Y-89502475D01*
X97727541Y-89509243D01*
X97779459Y-89514943D01*
X97832305Y-89518759D01*
X97874335Y-89519845D01*
X97926065Y-89517055D01*
X97977925Y-89503387D01*
X98007096Y-89461530D01*
X97998062Y-89398232D01*
X97979429Y-89349105D01*
X97950632Y-89298560D01*
X97911672Y-89246597D01*
X97862548Y-89193217D01*
X97824153Y-89156842D01*
X97781240Y-89119838D01*
X97733810Y-89082203D01*
X97681863Y-89043939D01*
X97625399Y-89005044D01*
X97564418Y-88965519D01*
X97498920Y-88925364D01*
X97428905Y-88884579D01*
X97466564Y-88845365D01*
X97508073Y-88809869D01*
X97552314Y-88782824D01*
X97602816Y-88769302D01*
X97607573Y-88769189D01*
X97666470Y-88775509D01*
X97729632Y-88794470D01*
X97779803Y-88816985D01*
X97832373Y-88846610D01*
X97887341Y-88883346D01*
X97944709Y-88927191D01*
X97984287Y-88960372D01*
X98024932Y-88996712D01*
X98066642Y-89036213D01*
X98109419Y-89078874D01*
X98153263Y-89124694D01*
X98198172Y-89173675D01*
X98242345Y-89223775D01*
X98283668Y-89272644D01*
X98322141Y-89320283D01*
X98357764Y-89366690D01*
X98390537Y-89411866D01*
X98420461Y-89455811D01*
X98447534Y-89498525D01*
X98482801Y-89560287D01*
X98511656Y-89619280D01*
X98534099Y-89675503D01*
X98550129Y-89728956D01*
X98559747Y-89779639D01*
X98562954Y-89827552D01*
X98559464Y-89881434D01*
X98548995Y-89930016D01*
X98524180Y-89986548D01*
X98486957Y-90033658D01*
X98437327Y-90071346D01*
X98391962Y-90093428D01*
X98339618Y-90110211D01*
X98280294Y-90121694D01*
X98213992Y-90127877D01*
X98165912Y-90129055D01*
X98114048Y-90126798D01*
X98057967Y-90121921D01*
X97998934Y-90115567D01*
X97942010Y-90108739D01*
X97891410Y-90102274D01*
X97878058Y-90100518D01*
X97647277Y-90069499D01*
X97595398Y-90062345D01*
X97545904Y-90055497D01*
X97492663Y-90048124D01*
X97442219Y-90041135D01*
X97384795Y-90033177D01*
X97369349Y-90031036D01*
X96384190Y-89888349D01*
X96163336Y-89853608D01*
X96104736Y-89845404D01*
X96049909Y-89838006D01*
X95998855Y-89831416D01*
X95936652Y-89823884D01*
X95881158Y-89817787D01*
X95821222Y-89812183D01*
X95763135Y-89808417D01*
X95732794Y-89807700D01*
X95680614Y-89811430D01*
X95633388Y-89832057D01*
X95624849Y-89854849D01*
X95630574Y-89905757D01*
X95647750Y-89957516D01*
X95676375Y-90010126D01*
X95716451Y-90063586D01*
X95767978Y-90117897D01*
X95808690Y-90154577D01*
X95854491Y-90191634D01*
X95905382Y-90229070D01*
X95961361Y-90266884D01*
X96022429Y-90305076D01*
X96088587Y-90343646D01*
X96159833Y-90382594D01*
X96236168Y-90421920D01*
X96276245Y-90441725D01*
G37*
G36*
X98822271Y-89676180D02*
G01*
X99688317Y-90019869D01*
X99709851Y-90069189D01*
X99732577Y-90117578D01*
X99756496Y-90165037D01*
X99781606Y-90211565D01*
X99807909Y-90257163D01*
X99835405Y-90301830D01*
X99864092Y-90345567D01*
X99893972Y-90388373D01*
X99925044Y-90430248D01*
X99957309Y-90471193D01*
X99990765Y-90511207D01*
X100025414Y-90550291D01*
X100061256Y-90588444D01*
X100098289Y-90625667D01*
X100136515Y-90661959D01*
X100175933Y-90697320D01*
X100133143Y-90724877D01*
X100088457Y-90748083D01*
X100038923Y-90764659D01*
X100008432Y-90768043D01*
X99945056Y-90763778D01*
X99880246Y-90750983D01*
X99814002Y-90729658D01*
X99746322Y-90699802D01*
X99677209Y-90661416D01*
X99606660Y-90614500D01*
X99534677Y-90559054D01*
X99461259Y-90495078D01*
X99424012Y-90459891D01*
X99386407Y-90422571D01*
X99348443Y-90383119D01*
X99310120Y-90341534D01*
X99271438Y-90297817D01*
X99232398Y-90251967D01*
X99193000Y-90203985D01*
X99153242Y-90153870D01*
X99113126Y-90101623D01*
X99072651Y-90047243D01*
X99031818Y-89990731D01*
X98990626Y-89932086D01*
X98949075Y-89871308D01*
X98907166Y-89808398D01*
X98864898Y-89743355D01*
X98822271Y-89676180D01*
G37*
G36*
X95282401Y-90578208D02*
G01*
X95716665Y-91134066D01*
X95671874Y-91188555D01*
X95631489Y-91245006D01*
X95595509Y-91303421D01*
X95563936Y-91363799D01*
X95536768Y-91426140D01*
X95514005Y-91490443D01*
X95495648Y-91556709D01*
X95481697Y-91624939D01*
X95472151Y-91695131D01*
X95467011Y-91767286D01*
X95466032Y-91816480D01*
X95467748Y-91872522D01*
X95472895Y-91924949D01*
X95487050Y-91996810D01*
X95508926Y-92060535D01*
X95538522Y-92116126D01*
X95575839Y-92163581D01*
X95620877Y-92202901D01*
X95673636Y-92234086D01*
X95734115Y-92257136D01*
X95802315Y-92272050D01*
X95852072Y-92277473D01*
X95905259Y-92279281D01*
X95970961Y-92272263D01*
X96024639Y-92257789D01*
X96082091Y-92235419D01*
X96143316Y-92205154D01*
X96208313Y-92166993D01*
X96253741Y-92137167D01*
X96300846Y-92103831D01*
X96349628Y-92066986D01*
X96400087Y-92026633D01*
X96452223Y-91982770D01*
X96506036Y-91935399D01*
X96561526Y-91884518D01*
X96618693Y-91830128D01*
X96822176Y-91631608D01*
X96879222Y-91577369D01*
X96934968Y-91526628D01*
X96989416Y-91479388D01*
X97042565Y-91435646D01*
X97094415Y-91395404D01*
X97144966Y-91358661D01*
X97194218Y-91325418D01*
X97242171Y-91295674D01*
X97288826Y-91269429D01*
X97334181Y-91246683D01*
X97399779Y-91219126D01*
X97462454Y-91199443D01*
X97522206Y-91187633D01*
X97579036Y-91183696D01*
X97630920Y-91185116D01*
X97681728Y-91189376D01*
X97731460Y-91196477D01*
X97780116Y-91206417D01*
X97851082Y-91226653D01*
X97919628Y-91253280D01*
X97985752Y-91286297D01*
X98028490Y-91311858D01*
X98070153Y-91340260D01*
X98110739Y-91371502D01*
X98150249Y-91405584D01*
X98188683Y-91442506D01*
X98226042Y-91482268D01*
X98262324Y-91524870D01*
X98280062Y-91547237D01*
X98314318Y-91593319D01*
X98346365Y-91640681D01*
X98376201Y-91689322D01*
X98403827Y-91739243D01*
X98429243Y-91790444D01*
X98452449Y-91842924D01*
X98473445Y-91896683D01*
X98492231Y-91951722D01*
X98508806Y-92008041D01*
X98523172Y-92065639D01*
X98535327Y-92124517D01*
X98545273Y-92184674D01*
X98553008Y-92246111D01*
X98558533Y-92308827D01*
X98561849Y-92372822D01*
X98562954Y-92438098D01*
X98561863Y-92492652D01*
X98558592Y-92549300D01*
X98553139Y-92608042D01*
X98545505Y-92668878D01*
X98535691Y-92731807D01*
X98523695Y-92796831D01*
X98509519Y-92863948D01*
X98493161Y-92933158D01*
X98474623Y-93004463D01*
X98461052Y-93053163D01*
X98446512Y-93102793D01*
X98438878Y-93127957D01*
X97997170Y-92635378D01*
X98027326Y-92582284D01*
X98054516Y-92528624D01*
X98078740Y-92474397D01*
X98099997Y-92419603D01*
X98118289Y-92364241D01*
X98133614Y-92308313D01*
X98145973Y-92251817D01*
X98155366Y-92194755D01*
X98161793Y-92137125D01*
X98165253Y-92078929D01*
X98165912Y-92039816D01*
X98163502Y-91979060D01*
X98156272Y-91924280D01*
X98144222Y-91875477D01*
X98120658Y-91819701D01*
X98088524Y-91774549D01*
X98047821Y-91740021D01*
X97998550Y-91716117D01*
X97940710Y-91702837D01*
X97891706Y-91699849D01*
X97836531Y-91706266D01*
X97774610Y-91725517D01*
X97723741Y-91748378D01*
X97669078Y-91778458D01*
X97610619Y-91815757D01*
X97569539Y-91844633D01*
X97526772Y-91876719D01*
X97482318Y-91912012D01*
X97436177Y-91950514D01*
X97388350Y-91992225D01*
X97338836Y-92037144D01*
X97287636Y-92085272D01*
X97261403Y-92110539D01*
X97034345Y-92327671D01*
X96971648Y-92387319D01*
X96910425Y-92443119D01*
X96850675Y-92495071D01*
X96792398Y-92543174D01*
X96735595Y-92587429D01*
X96680265Y-92627836D01*
X96626409Y-92664395D01*
X96574025Y-92697105D01*
X96523116Y-92725967D01*
X96473680Y-92750981D01*
X96425717Y-92772146D01*
X96356535Y-92796679D01*
X96290668Y-92812553D01*
X96228117Y-92819769D01*
X96208003Y-92820250D01*
X96151675Y-92818549D01*
X96096219Y-92813445D01*
X96041636Y-92804939D01*
X95987924Y-92793031D01*
X95935086Y-92777720D01*
X95883120Y-92759007D01*
X95832026Y-92736892D01*
X95781804Y-92711374D01*
X95732455Y-92682454D01*
X95683979Y-92650131D01*
X95636374Y-92614406D01*
X95589643Y-92575279D01*
X95543783Y-92532749D01*
X95498796Y-92486817D01*
X95454681Y-92437482D01*
X95411439Y-92384745D01*
X95369971Y-92329803D01*
X95331178Y-92273853D01*
X95295060Y-92216895D01*
X95261618Y-92158928D01*
X95230851Y-92099954D01*
X95202760Y-92039971D01*
X95177344Y-91978980D01*
X95154603Y-91916981D01*
X95134538Y-91853974D01*
X95117148Y-91789959D01*
X95102433Y-91724936D01*
X95090394Y-91658904D01*
X95081030Y-91591865D01*
X95074342Y-91523817D01*
X95070329Y-91454762D01*
X95068991Y-91384698D01*
X95069825Y-91334583D01*
X95072326Y-91284429D01*
X95076494Y-91234237D01*
X95082329Y-91184006D01*
X95089832Y-91133736D01*
X95099002Y-91083427D01*
X95109839Y-91033080D01*
X95122344Y-90982694D01*
X95136515Y-90932269D01*
X95152354Y-90881805D01*
X95169861Y-90831302D01*
X95189034Y-90780761D01*
X95209875Y-90730181D01*
X95232383Y-90679562D01*
X95256558Y-90628904D01*
X95282401Y-90578208D01*
G37*
G36*
X98007096Y-94528768D02*
G01*
X96505784Y-94358784D01*
X96455141Y-94353225D01*
X96382357Y-94345559D01*
X96313390Y-94338700D01*
X96248239Y-94332647D01*
X96186905Y-94327402D01*
X96129389Y-94322964D01*
X96075688Y-94319332D01*
X96025805Y-94316508D01*
X95965231Y-94313997D01*
X95911442Y-94312921D01*
X95899055Y-94312877D01*
X95835861Y-94314894D01*
X95778882Y-94320946D01*
X95728119Y-94331033D01*
X95670104Y-94350760D01*
X95623139Y-94377659D01*
X95579973Y-94421370D01*
X95554074Y-94476289D01*
X95545786Y-94528294D01*
X95545441Y-94542416D01*
X95549879Y-94593212D01*
X95563194Y-94645098D01*
X95585386Y-94698075D01*
X95616454Y-94752142D01*
X95656400Y-94807300D01*
X95705222Y-94863548D01*
X95742701Y-94901653D01*
X95784126Y-94940242D01*
X95829496Y-94979316D01*
X95878811Y-95018875D01*
X95932071Y-95058918D01*
X95989277Y-95099447D01*
X96050427Y-95140459D01*
X96006749Y-95172506D01*
X95960642Y-95201513D01*
X95914347Y-95223614D01*
X95861833Y-95234757D01*
X95806154Y-95229173D01*
X95748304Y-95212423D01*
X95688282Y-95184506D01*
X95641841Y-95156240D01*
X95594179Y-95121693D01*
X95545295Y-95080864D01*
X95495190Y-95033754D01*
X95443864Y-94980363D01*
X95408967Y-94941279D01*
X95373528Y-94899404D01*
X95355605Y-94877419D01*
X95320898Y-94833276D01*
X95288430Y-94789869D01*
X95258201Y-94747198D01*
X95230212Y-94705265D01*
X95192426Y-94643746D01*
X95159678Y-94583884D01*
X95131968Y-94525680D01*
X95109296Y-94469134D01*
X95091663Y-94414245D01*
X95079068Y-94361014D01*
X95071510Y-94309440D01*
X95068991Y-94259524D01*
X95071628Y-94194617D01*
X95079538Y-94133898D01*
X95092721Y-94077366D01*
X95111177Y-94025022D01*
X95134906Y-93976865D01*
X95163909Y-93932896D01*
X95198185Y-93893114D01*
X95237734Y-93857520D01*
X95282556Y-93826113D01*
X95332651Y-93798894D01*
X95388020Y-93775863D01*
X95448662Y-93757019D01*
X95514577Y-93742362D01*
X95585765Y-93731894D01*
X95662227Y-93725612D01*
X95743961Y-93723519D01*
X95807724Y-93724449D01*
X95861475Y-93726368D01*
X95920308Y-93729335D01*
X95984223Y-93733348D01*
X96053219Y-93738408D01*
X96127297Y-93744514D01*
X96179506Y-93749167D01*
X96233973Y-93754285D01*
X96290699Y-93759869D01*
X96349683Y-93765917D01*
X96410926Y-93772431D01*
X96474427Y-93779411D01*
X96507025Y-93783075D01*
X98007096Y-93949336D01*
X98007096Y-93160216D01*
X98483545Y-93650314D01*
X98483545Y-94005170D01*
X99098959Y-94077133D01*
X99294998Y-94671454D01*
X98483545Y-94583361D01*
X98483545Y-96115692D01*
X98007096Y-95625594D01*
X98007096Y-94528768D01*
G37*
D10*
X107735219Y-82113733D02*
X108449504Y-82113733D01*
X108449504Y-82113733D02*
X108592361Y-82161352D01*
X108592361Y-82161352D02*
X108687600Y-82256590D01*
X108687600Y-82256590D02*
X108735219Y-82399447D01*
X108735219Y-82399447D02*
X108735219Y-82494685D01*
X107830457Y-81685161D02*
X107782838Y-81637542D01*
X107782838Y-81637542D02*
X107735219Y-81542304D01*
X107735219Y-81542304D02*
X107735219Y-81304209D01*
X107735219Y-81304209D02*
X107782838Y-81208971D01*
X107782838Y-81208971D02*
X107830457Y-81161352D01*
X107830457Y-81161352D02*
X107925695Y-81113733D01*
X107925695Y-81113733D02*
X108020933Y-81113733D01*
X108020933Y-81113733D02*
X108163790Y-81161352D01*
X108163790Y-81161352D02*
X108735219Y-81732780D01*
X108735219Y-81732780D02*
X108735219Y-81113733D01*
X144119695Y-68119219D02*
X144119695Y-67119219D01*
X144119695Y-67595409D02*
X144691123Y-67595409D01*
X144691123Y-68119219D02*
X144691123Y-67119219D01*
X145691123Y-68119219D02*
X145119695Y-68119219D01*
X145405409Y-68119219D02*
X145405409Y-67119219D01*
X145405409Y-67119219D02*
X145310171Y-67262076D01*
X145310171Y-67262076D02*
X145214933Y-67357314D01*
X145214933Y-67357314D02*
X145119695Y-67404933D01*
X106854666Y-50796019D02*
X106854666Y-51510304D01*
X106854666Y-51510304D02*
X106807047Y-51653161D01*
X106807047Y-51653161D02*
X106711809Y-51748400D01*
X106711809Y-51748400D02*
X106568952Y-51796019D01*
X106568952Y-51796019D02*
X106473714Y-51796019D01*
X107854666Y-51796019D02*
X107283238Y-51796019D01*
X107568952Y-51796019D02*
X107568952Y-50796019D01*
X107568952Y-50796019D02*
X107473714Y-50938876D01*
X107473714Y-50938876D02*
X107378476Y-51034114D01*
X107378476Y-51034114D02*
X107283238Y-51081733D01*
D12*
X107102600Y-98560400D02*
X158022600Y-98560400D01*
X158022600Y-98560400D02*
X158022600Y-85640400D01*
X107102600Y-93100400D02*
X107102600Y-98560400D01*
X107102600Y-85640400D02*
X107102600Y-91100400D01*
X158022600Y-85640400D02*
X107102600Y-85640400D01*
X107102600Y-93100400D02*
G75*
G03*
X107102600Y-91100400I0J1000000D01*
G01*
X91050600Y-49978000D02*
X91050600Y-100898000D01*
X91050600Y-100898000D02*
X103970600Y-100898000D01*
X96510600Y-49978000D02*
X91050600Y-49978000D01*
X103970600Y-49978000D02*
X98510600Y-49978000D01*
X103970600Y-100898000D02*
X103970600Y-49978000D01*
X96510600Y-49978000D02*
G75*
G03*
X98510600Y-49978000I1000000J0D01*
G01*
%LPC*%
D13*
X108432600Y-99720400D03*
D14*
X110972600Y-99720400D03*
X113512600Y-99720400D03*
X116052600Y-99720400D03*
X118592600Y-99720400D03*
X121132600Y-99720400D03*
X123672600Y-99720400D03*
X126212600Y-99720400D03*
X128752600Y-99720400D03*
X131292600Y-99720400D03*
X133832600Y-99720400D03*
X136372600Y-99720400D03*
X138912600Y-99720400D03*
X141452600Y-99720400D03*
X143992600Y-99720400D03*
X146532600Y-99720400D03*
X149072600Y-99720400D03*
X151612600Y-99720400D03*
X154152600Y-99720400D03*
X156692600Y-99720400D03*
X156692600Y-84480400D03*
X154152600Y-84480400D03*
X151612600Y-84480400D03*
X149072600Y-84480400D03*
X146532600Y-84480400D03*
X143992600Y-84480400D03*
X141452600Y-84480400D03*
X138912600Y-84480400D03*
X136372600Y-84480400D03*
X133832600Y-84480400D03*
X131292600Y-84480400D03*
X128752600Y-84480400D03*
X126212600Y-84480400D03*
X123672600Y-84480400D03*
X121132600Y-84480400D03*
X118592600Y-84480400D03*
X116052600Y-84480400D03*
X113512600Y-84480400D03*
X110972600Y-84480400D03*
X108432600Y-84480400D03*
D15*
X144881600Y-71856600D03*
D13*
X89890600Y-51308000D03*
D14*
X89890600Y-53848000D03*
X89890600Y-56388000D03*
X89890600Y-58928000D03*
X89890600Y-61468000D03*
X89890600Y-64008000D03*
X89890600Y-66548000D03*
X89890600Y-69088000D03*
X89890600Y-71628000D03*
X89890600Y-74168000D03*
X89890600Y-76708000D03*
X89890600Y-79248000D03*
X89890600Y-81788000D03*
X89890600Y-84328000D03*
X89890600Y-86868000D03*
X89890600Y-89408000D03*
X89890600Y-91948000D03*
X89890600Y-94488000D03*
X89890600Y-97028000D03*
X89890600Y-99568000D03*
X105130600Y-99568000D03*
X105130600Y-97028000D03*
X105130600Y-94488000D03*
X105130600Y-91948000D03*
X105130600Y-89408000D03*
X105130600Y-86868000D03*
X105130600Y-84328000D03*
X105130600Y-81788000D03*
X105130600Y-79248000D03*
X105130600Y-76708000D03*
X105130600Y-74168000D03*
X105130600Y-71628000D03*
X105130600Y-69088000D03*
X105130600Y-66548000D03*
X105130600Y-64008000D03*
X105130600Y-61468000D03*
X105130600Y-58928000D03*
X105130600Y-56388000D03*
X105130600Y-53848000D03*
X105130600Y-51308000D03*
M02*
