G04 #@! TF.GenerationSoftware,KiCad,Pcbnew,7.0.1-0*
G04 #@! TF.CreationDate,2023-11-21T08:42:52-06:00*
G04 #@! TF.ProjectId,kawari_twist,7669635f-7477-4697-9374-65722e6b6963,rev?*
G04 #@! TF.SameCoordinates,Original*
G04 #@! TF.FileFunction,Legend,Bot*
G04 #@! TF.FilePolarity,Positive*
%FSLAX46Y46*%
G04 Gerber Fmt 4.6, Leading zero omitted, Abs format (unit mm)*
G04 Created by KiCad (PCBNEW 7.0.1-0) date 2023-11-21 08:42:52*
%MOMM*%
%LPD*%
G01*
G04 APERTURE LIST*
%ADD10R,1.600000X1.600000*%
%ADD11O,1.600000X1.600000*%
%ADD12C,3.200000*%
G04 APERTURE END LIST*
%LPC*%
D10*
X108432600Y-99720400D03*
D11*
X110972600Y-99720400D03*
X113512600Y-99720400D03*
X116052600Y-99720400D03*
X118592600Y-99720400D03*
X121132600Y-99720400D03*
X123672600Y-99720400D03*
X126212600Y-99720400D03*
X128752600Y-99720400D03*
X131292600Y-99720400D03*
X133832600Y-99720400D03*
X136372600Y-99720400D03*
X138912600Y-99720400D03*
X141452600Y-99720400D03*
X143992600Y-99720400D03*
X146532600Y-99720400D03*
X149072600Y-99720400D03*
X151612600Y-99720400D03*
X154152600Y-99720400D03*
X156692600Y-99720400D03*
X156692600Y-84480400D03*
X154152600Y-84480400D03*
X151612600Y-84480400D03*
X149072600Y-84480400D03*
X146532600Y-84480400D03*
X143992600Y-84480400D03*
X141452600Y-84480400D03*
X138912600Y-84480400D03*
X136372600Y-84480400D03*
X133832600Y-84480400D03*
X131292600Y-84480400D03*
X128752600Y-84480400D03*
X126212600Y-84480400D03*
X123672600Y-84480400D03*
X121132600Y-84480400D03*
X118592600Y-84480400D03*
X116052600Y-84480400D03*
X113512600Y-84480400D03*
X110972600Y-84480400D03*
X108432600Y-84480400D03*
D12*
X144881600Y-71856600D03*
D10*
X89890600Y-51308000D03*
D11*
X89890600Y-53848000D03*
X89890600Y-56388000D03*
X89890600Y-58928000D03*
X89890600Y-61468000D03*
X89890600Y-64008000D03*
X89890600Y-66548000D03*
X89890600Y-69088000D03*
X89890600Y-71628000D03*
X89890600Y-74168000D03*
X89890600Y-76708000D03*
X89890600Y-79248000D03*
X89890600Y-81788000D03*
X89890600Y-84328000D03*
X89890600Y-86868000D03*
X89890600Y-89408000D03*
X89890600Y-91948000D03*
X89890600Y-94488000D03*
X89890600Y-97028000D03*
X89890600Y-99568000D03*
X105130600Y-99568000D03*
X105130600Y-97028000D03*
X105130600Y-94488000D03*
X105130600Y-91948000D03*
X105130600Y-89408000D03*
X105130600Y-86868000D03*
X105130600Y-84328000D03*
X105130600Y-81788000D03*
X105130600Y-79248000D03*
X105130600Y-76708000D03*
X105130600Y-74168000D03*
X105130600Y-71628000D03*
X105130600Y-69088000D03*
X105130600Y-66548000D03*
X105130600Y-64008000D03*
X105130600Y-61468000D03*
X105130600Y-58928000D03*
X105130600Y-56388000D03*
X105130600Y-53848000D03*
X105130600Y-51308000D03*
M02*
