%TF.GenerationSoftware,KiCad,Pcbnew,7.0.1-0*%
%TF.CreationDate,2023-11-21T08:43:11-06:00*%
%TF.ProjectId,kawari_twist,7669635f-7477-4697-9374-65722e6b6963,rev?*%
%TF.SameCoordinates,Original*%
%TF.FileFunction,Drillmap*%
%TF.FilePolarity,Positive*%
%FSLAX45Y45*%
G04 Gerber Fmt 4.5, Leading zero omitted, Abs format (unit mm)*
G04 Created by KiCad (PCBNEW 7.0.1-0) date 2023-11-21 08:43:11*
%MOMM*%
%LPD*%
G01*
G04 APERTURE LIST*
%ADD10C,0.100000*%
%ADD11C,0.200000*%
%ADD12C,0.320000*%
G04 APERTURE END LIST*
D10*
X8799200Y-4900000D02*
X15938880Y-4900000D01*
X15938880Y-10320000D01*
X8799200Y-10320000D01*
X8799200Y-4900000D01*
D11*
D12*
X14328160Y-7025660D02*
X14648160Y-7345660D01*
X14648160Y-7025660D02*
X14328160Y-7345660D01*
D11*
X9041819Y-10637524D02*
X9041819Y-10437524D01*
X9041819Y-10437524D02*
X9089438Y-10437524D01*
X9089438Y-10437524D02*
X9118010Y-10447048D01*
X9118010Y-10447048D02*
X9137057Y-10466095D01*
X9137057Y-10466095D02*
X9146581Y-10485143D01*
X9146581Y-10485143D02*
X9156105Y-10523238D01*
X9156105Y-10523238D02*
X9156105Y-10551810D01*
X9156105Y-10551810D02*
X9146581Y-10589905D01*
X9146581Y-10589905D02*
X9137057Y-10608952D01*
X9137057Y-10608952D02*
X9118010Y-10628000D01*
X9118010Y-10628000D02*
X9089438Y-10637524D01*
X9089438Y-10637524D02*
X9041819Y-10637524D01*
X9241819Y-10637524D02*
X9241819Y-10504190D01*
X9241819Y-10542286D02*
X9251343Y-10523238D01*
X9251343Y-10523238D02*
X9260867Y-10513714D01*
X9260867Y-10513714D02*
X9279914Y-10504190D01*
X9279914Y-10504190D02*
X9298962Y-10504190D01*
X9365629Y-10637524D02*
X9365629Y-10504190D01*
X9365629Y-10437524D02*
X9356105Y-10447048D01*
X9356105Y-10447048D02*
X9365629Y-10456571D01*
X9365629Y-10456571D02*
X9375152Y-10447048D01*
X9375152Y-10447048D02*
X9365629Y-10437524D01*
X9365629Y-10437524D02*
X9365629Y-10456571D01*
X9489438Y-10637524D02*
X9470390Y-10628000D01*
X9470390Y-10628000D02*
X9460867Y-10608952D01*
X9460867Y-10608952D02*
X9460867Y-10437524D01*
X9594200Y-10637524D02*
X9575152Y-10628000D01*
X9575152Y-10628000D02*
X9565629Y-10608952D01*
X9565629Y-10608952D02*
X9565629Y-10437524D01*
X9822771Y-10637524D02*
X9822771Y-10437524D01*
X9822771Y-10437524D02*
X9889438Y-10580381D01*
X9889438Y-10580381D02*
X9956105Y-10437524D01*
X9956105Y-10437524D02*
X9956105Y-10637524D01*
X10137057Y-10637524D02*
X10137057Y-10532762D01*
X10137057Y-10532762D02*
X10127533Y-10513714D01*
X10127533Y-10513714D02*
X10108486Y-10504190D01*
X10108486Y-10504190D02*
X10070390Y-10504190D01*
X10070390Y-10504190D02*
X10051343Y-10513714D01*
X10137057Y-10628000D02*
X10118010Y-10637524D01*
X10118010Y-10637524D02*
X10070390Y-10637524D01*
X10070390Y-10637524D02*
X10051343Y-10628000D01*
X10051343Y-10628000D02*
X10041819Y-10608952D01*
X10041819Y-10608952D02*
X10041819Y-10589905D01*
X10041819Y-10589905D02*
X10051343Y-10570857D01*
X10051343Y-10570857D02*
X10070390Y-10561333D01*
X10070390Y-10561333D02*
X10118010Y-10561333D01*
X10118010Y-10561333D02*
X10137057Y-10551810D01*
X10232295Y-10504190D02*
X10232295Y-10704190D01*
X10232295Y-10513714D02*
X10251343Y-10504190D01*
X10251343Y-10504190D02*
X10289438Y-10504190D01*
X10289438Y-10504190D02*
X10308486Y-10513714D01*
X10308486Y-10513714D02*
X10318010Y-10523238D01*
X10318010Y-10523238D02*
X10327533Y-10542286D01*
X10327533Y-10542286D02*
X10327533Y-10599429D01*
X10327533Y-10599429D02*
X10318010Y-10618476D01*
X10318010Y-10618476D02*
X10308486Y-10628000D01*
X10308486Y-10628000D02*
X10289438Y-10637524D01*
X10289438Y-10637524D02*
X10251343Y-10637524D01*
X10251343Y-10637524D02*
X10232295Y-10628000D01*
X10413248Y-10618476D02*
X10422771Y-10628000D01*
X10422771Y-10628000D02*
X10413248Y-10637524D01*
X10413248Y-10637524D02*
X10403724Y-10628000D01*
X10403724Y-10628000D02*
X10413248Y-10618476D01*
X10413248Y-10618476D02*
X10413248Y-10637524D01*
X10413248Y-10513714D02*
X10422771Y-10523238D01*
X10422771Y-10523238D02*
X10413248Y-10532762D01*
X10413248Y-10532762D02*
X10403724Y-10523238D01*
X10403724Y-10523238D02*
X10413248Y-10513714D01*
X10413248Y-10513714D02*
X10413248Y-10532762D01*
X8594200Y-10865000D02*
X8794200Y-11065000D01*
X8794200Y-10865000D02*
X8594200Y-11065000D01*
X9022771Y-10857524D02*
X9146581Y-10857524D01*
X9146581Y-10857524D02*
X9079914Y-10933714D01*
X9079914Y-10933714D02*
X9108486Y-10933714D01*
X9108486Y-10933714D02*
X9127533Y-10943238D01*
X9127533Y-10943238D02*
X9137057Y-10952762D01*
X9137057Y-10952762D02*
X9146581Y-10971810D01*
X9146581Y-10971810D02*
X9146581Y-11019429D01*
X9146581Y-11019429D02*
X9137057Y-11038476D01*
X9137057Y-11038476D02*
X9127533Y-11048000D01*
X9127533Y-11048000D02*
X9108486Y-11057524D01*
X9108486Y-11057524D02*
X9051343Y-11057524D01*
X9051343Y-11057524D02*
X9032295Y-11048000D01*
X9032295Y-11048000D02*
X9022771Y-11038476D01*
X9232295Y-11038476D02*
X9241819Y-11048000D01*
X9241819Y-11048000D02*
X9232295Y-11057524D01*
X9232295Y-11057524D02*
X9222771Y-11048000D01*
X9222771Y-11048000D02*
X9232295Y-11038476D01*
X9232295Y-11038476D02*
X9232295Y-11057524D01*
X9318010Y-10876571D02*
X9327533Y-10867048D01*
X9327533Y-10867048D02*
X9346581Y-10857524D01*
X9346581Y-10857524D02*
X9394200Y-10857524D01*
X9394200Y-10857524D02*
X9413248Y-10867048D01*
X9413248Y-10867048D02*
X9422771Y-10876571D01*
X9422771Y-10876571D02*
X9432295Y-10895619D01*
X9432295Y-10895619D02*
X9432295Y-10914667D01*
X9432295Y-10914667D02*
X9422771Y-10943238D01*
X9422771Y-10943238D02*
X9308486Y-11057524D01*
X9308486Y-11057524D02*
X9432295Y-11057524D01*
X9556105Y-10857524D02*
X9575152Y-10857524D01*
X9575152Y-10857524D02*
X9594200Y-10867048D01*
X9594200Y-10867048D02*
X9603724Y-10876571D01*
X9603724Y-10876571D02*
X9613248Y-10895619D01*
X9613248Y-10895619D02*
X9622771Y-10933714D01*
X9622771Y-10933714D02*
X9622771Y-10981333D01*
X9622771Y-10981333D02*
X9613248Y-11019429D01*
X9613248Y-11019429D02*
X9603724Y-11038476D01*
X9603724Y-11038476D02*
X9594200Y-11048000D01*
X9594200Y-11048000D02*
X9575152Y-11057524D01*
X9575152Y-11057524D02*
X9556105Y-11057524D01*
X9556105Y-11057524D02*
X9537057Y-11048000D01*
X9537057Y-11048000D02*
X9527533Y-11038476D01*
X9527533Y-11038476D02*
X9518010Y-11019429D01*
X9518010Y-11019429D02*
X9508486Y-10981333D01*
X9508486Y-10981333D02*
X9508486Y-10933714D01*
X9508486Y-10933714D02*
X9518010Y-10895619D01*
X9518010Y-10895619D02*
X9527533Y-10876571D01*
X9527533Y-10876571D02*
X9537057Y-10867048D01*
X9537057Y-10867048D02*
X9556105Y-10857524D01*
X9746581Y-10857524D02*
X9765629Y-10857524D01*
X9765629Y-10857524D02*
X9784676Y-10867048D01*
X9784676Y-10867048D02*
X9794200Y-10876571D01*
X9794200Y-10876571D02*
X9803724Y-10895619D01*
X9803724Y-10895619D02*
X9813248Y-10933714D01*
X9813248Y-10933714D02*
X9813248Y-10981333D01*
X9813248Y-10981333D02*
X9803724Y-11019429D01*
X9803724Y-11019429D02*
X9794200Y-11038476D01*
X9794200Y-11038476D02*
X9784676Y-11048000D01*
X9784676Y-11048000D02*
X9765629Y-11057524D01*
X9765629Y-11057524D02*
X9746581Y-11057524D01*
X9746581Y-11057524D02*
X9727533Y-11048000D01*
X9727533Y-11048000D02*
X9718010Y-11038476D01*
X9718010Y-11038476D02*
X9708486Y-11019429D01*
X9708486Y-11019429D02*
X9698962Y-10981333D01*
X9698962Y-10981333D02*
X9698962Y-10933714D01*
X9698962Y-10933714D02*
X9708486Y-10895619D01*
X9708486Y-10895619D02*
X9718010Y-10876571D01*
X9718010Y-10876571D02*
X9727533Y-10867048D01*
X9727533Y-10867048D02*
X9746581Y-10857524D01*
X9898962Y-11057524D02*
X9898962Y-10924190D01*
X9898962Y-10943238D02*
X9908486Y-10933714D01*
X9908486Y-10933714D02*
X9927533Y-10924190D01*
X9927533Y-10924190D02*
X9956105Y-10924190D01*
X9956105Y-10924190D02*
X9975152Y-10933714D01*
X9975152Y-10933714D02*
X9984676Y-10952762D01*
X9984676Y-10952762D02*
X9984676Y-11057524D01*
X9984676Y-10952762D02*
X9994200Y-10933714D01*
X9994200Y-10933714D02*
X10013248Y-10924190D01*
X10013248Y-10924190D02*
X10041819Y-10924190D01*
X10041819Y-10924190D02*
X10060867Y-10933714D01*
X10060867Y-10933714D02*
X10070391Y-10952762D01*
X10070391Y-10952762D02*
X10070391Y-11057524D01*
X10165629Y-11057524D02*
X10165629Y-10924190D01*
X10165629Y-10943238D02*
X10175152Y-10933714D01*
X10175152Y-10933714D02*
X10194200Y-10924190D01*
X10194200Y-10924190D02*
X10222772Y-10924190D01*
X10222772Y-10924190D02*
X10241819Y-10933714D01*
X10241819Y-10933714D02*
X10251343Y-10952762D01*
X10251343Y-10952762D02*
X10251343Y-11057524D01*
X10251343Y-10952762D02*
X10260867Y-10933714D01*
X10260867Y-10933714D02*
X10279914Y-10924190D01*
X10279914Y-10924190D02*
X10308486Y-10924190D01*
X10308486Y-10924190D02*
X10327533Y-10933714D01*
X10327533Y-10933714D02*
X10337057Y-10952762D01*
X10337057Y-10952762D02*
X10337057Y-11057524D01*
X10727533Y-10848000D02*
X10556105Y-11105143D01*
X10984676Y-10857524D02*
X11003724Y-10857524D01*
X11003724Y-10857524D02*
X11022772Y-10867048D01*
X11022772Y-10867048D02*
X11032295Y-10876571D01*
X11032295Y-10876571D02*
X11041819Y-10895619D01*
X11041819Y-10895619D02*
X11051343Y-10933714D01*
X11051343Y-10933714D02*
X11051343Y-10981333D01*
X11051343Y-10981333D02*
X11041819Y-11019429D01*
X11041819Y-11019429D02*
X11032295Y-11038476D01*
X11032295Y-11038476D02*
X11022772Y-11048000D01*
X11022772Y-11048000D02*
X11003724Y-11057524D01*
X11003724Y-11057524D02*
X10984676Y-11057524D01*
X10984676Y-11057524D02*
X10965629Y-11048000D01*
X10965629Y-11048000D02*
X10956105Y-11038476D01*
X10956105Y-11038476D02*
X10946581Y-11019429D01*
X10946581Y-11019429D02*
X10937057Y-10981333D01*
X10937057Y-10981333D02*
X10937057Y-10933714D01*
X10937057Y-10933714D02*
X10946581Y-10895619D01*
X10946581Y-10895619D02*
X10956105Y-10876571D01*
X10956105Y-10876571D02*
X10965629Y-10867048D01*
X10965629Y-10867048D02*
X10984676Y-10857524D01*
X11137057Y-11038476D02*
X11146581Y-11048000D01*
X11146581Y-11048000D02*
X11137057Y-11057524D01*
X11137057Y-11057524D02*
X11127534Y-11048000D01*
X11127534Y-11048000D02*
X11137057Y-11038476D01*
X11137057Y-11038476D02*
X11137057Y-11057524D01*
X11337057Y-11057524D02*
X11222772Y-11057524D01*
X11279914Y-11057524D02*
X11279914Y-10857524D01*
X11279914Y-10857524D02*
X11260867Y-10886095D01*
X11260867Y-10886095D02*
X11241819Y-10905143D01*
X11241819Y-10905143D02*
X11222772Y-10914667D01*
X11413248Y-10876571D02*
X11422772Y-10867048D01*
X11422772Y-10867048D02*
X11441819Y-10857524D01*
X11441819Y-10857524D02*
X11489438Y-10857524D01*
X11489438Y-10857524D02*
X11508486Y-10867048D01*
X11508486Y-10867048D02*
X11518010Y-10876571D01*
X11518010Y-10876571D02*
X11527533Y-10895619D01*
X11527533Y-10895619D02*
X11527533Y-10914667D01*
X11527533Y-10914667D02*
X11518010Y-10943238D01*
X11518010Y-10943238D02*
X11403724Y-11057524D01*
X11403724Y-11057524D02*
X11527533Y-11057524D01*
X11698962Y-10857524D02*
X11660867Y-10857524D01*
X11660867Y-10857524D02*
X11641819Y-10867048D01*
X11641819Y-10867048D02*
X11632295Y-10876571D01*
X11632295Y-10876571D02*
X11613248Y-10905143D01*
X11613248Y-10905143D02*
X11603724Y-10943238D01*
X11603724Y-10943238D02*
X11603724Y-11019429D01*
X11603724Y-11019429D02*
X11613248Y-11038476D01*
X11613248Y-11038476D02*
X11622772Y-11048000D01*
X11622772Y-11048000D02*
X11641819Y-11057524D01*
X11641819Y-11057524D02*
X11679914Y-11057524D01*
X11679914Y-11057524D02*
X11698962Y-11048000D01*
X11698962Y-11048000D02*
X11708486Y-11038476D01*
X11708486Y-11038476D02*
X11718010Y-11019429D01*
X11718010Y-11019429D02*
X11718010Y-10971810D01*
X11718010Y-10971810D02*
X11708486Y-10952762D01*
X11708486Y-10952762D02*
X11698962Y-10943238D01*
X11698962Y-10943238D02*
X11679914Y-10933714D01*
X11679914Y-10933714D02*
X11641819Y-10933714D01*
X11641819Y-10933714D02*
X11622772Y-10943238D01*
X11622772Y-10943238D02*
X11613248Y-10952762D01*
X11613248Y-10952762D02*
X11603724Y-10971810D01*
X11841819Y-10857524D02*
X11860867Y-10857524D01*
X11860867Y-10857524D02*
X11879914Y-10867048D01*
X11879914Y-10867048D02*
X11889438Y-10876571D01*
X11889438Y-10876571D02*
X11898962Y-10895619D01*
X11898962Y-10895619D02*
X11908486Y-10933714D01*
X11908486Y-10933714D02*
X11908486Y-10981333D01*
X11908486Y-10981333D02*
X11898962Y-11019429D01*
X11898962Y-11019429D02*
X11889438Y-11038476D01*
X11889438Y-11038476D02*
X11879914Y-11048000D01*
X11879914Y-11048000D02*
X11860867Y-11057524D01*
X11860867Y-11057524D02*
X11841819Y-11057524D01*
X11841819Y-11057524D02*
X11822772Y-11048000D01*
X11822772Y-11048000D02*
X11813248Y-11038476D01*
X11813248Y-11038476D02*
X11803724Y-11019429D01*
X11803724Y-11019429D02*
X11794200Y-10981333D01*
X11794200Y-10981333D02*
X11794200Y-10933714D01*
X11794200Y-10933714D02*
X11803724Y-10895619D01*
X11803724Y-10895619D02*
X11813248Y-10876571D01*
X11813248Y-10876571D02*
X11822772Y-10867048D01*
X11822772Y-10867048D02*
X11841819Y-10857524D01*
X11984676Y-10857524D02*
X11984676Y-10895619D01*
X12060867Y-10857524D02*
X12060867Y-10895619D01*
X12356105Y-11133714D02*
X12346581Y-11124190D01*
X12346581Y-11124190D02*
X12327534Y-11095619D01*
X12327534Y-11095619D02*
X12318010Y-11076571D01*
X12318010Y-11076571D02*
X12308486Y-11048000D01*
X12308486Y-11048000D02*
X12298962Y-11000381D01*
X12298962Y-11000381D02*
X12298962Y-10962286D01*
X12298962Y-10962286D02*
X12308486Y-10914667D01*
X12308486Y-10914667D02*
X12318010Y-10886095D01*
X12318010Y-10886095D02*
X12327534Y-10867048D01*
X12327534Y-10867048D02*
X12346581Y-10838476D01*
X12346581Y-10838476D02*
X12356105Y-10828952D01*
X12537057Y-11057524D02*
X12422772Y-11057524D01*
X12479914Y-11057524D02*
X12479914Y-10857524D01*
X12479914Y-10857524D02*
X12460867Y-10886095D01*
X12460867Y-10886095D02*
X12441819Y-10905143D01*
X12441819Y-10905143D02*
X12422772Y-10914667D01*
X12775153Y-11057524D02*
X12775153Y-10857524D01*
X12860867Y-11057524D02*
X12860867Y-10952762D01*
X12860867Y-10952762D02*
X12851343Y-10933714D01*
X12851343Y-10933714D02*
X12832296Y-10924190D01*
X12832296Y-10924190D02*
X12803724Y-10924190D01*
X12803724Y-10924190D02*
X12784676Y-10933714D01*
X12784676Y-10933714D02*
X12775153Y-10943238D01*
X12984676Y-11057524D02*
X12965629Y-11048000D01*
X12965629Y-11048000D02*
X12956105Y-11038476D01*
X12956105Y-11038476D02*
X12946581Y-11019429D01*
X12946581Y-11019429D02*
X12946581Y-10962286D01*
X12946581Y-10962286D02*
X12956105Y-10943238D01*
X12956105Y-10943238D02*
X12965629Y-10933714D01*
X12965629Y-10933714D02*
X12984676Y-10924190D01*
X12984676Y-10924190D02*
X13013248Y-10924190D01*
X13013248Y-10924190D02*
X13032296Y-10933714D01*
X13032296Y-10933714D02*
X13041819Y-10943238D01*
X13041819Y-10943238D02*
X13051343Y-10962286D01*
X13051343Y-10962286D02*
X13051343Y-11019429D01*
X13051343Y-11019429D02*
X13041819Y-11038476D01*
X13041819Y-11038476D02*
X13032296Y-11048000D01*
X13032296Y-11048000D02*
X13013248Y-11057524D01*
X13013248Y-11057524D02*
X12984676Y-11057524D01*
X13165629Y-11057524D02*
X13146581Y-11048000D01*
X13146581Y-11048000D02*
X13137057Y-11028952D01*
X13137057Y-11028952D02*
X13137057Y-10857524D01*
X13318010Y-11048000D02*
X13298962Y-11057524D01*
X13298962Y-11057524D02*
X13260867Y-11057524D01*
X13260867Y-11057524D02*
X13241819Y-11048000D01*
X13241819Y-11048000D02*
X13232296Y-11028952D01*
X13232296Y-11028952D02*
X13232296Y-10952762D01*
X13232296Y-10952762D02*
X13241819Y-10933714D01*
X13241819Y-10933714D02*
X13260867Y-10924190D01*
X13260867Y-10924190D02*
X13298962Y-10924190D01*
X13298962Y-10924190D02*
X13318010Y-10933714D01*
X13318010Y-10933714D02*
X13327534Y-10952762D01*
X13327534Y-10952762D02*
X13327534Y-10971810D01*
X13327534Y-10971810D02*
X13232296Y-10990857D01*
X13394200Y-11133714D02*
X13403724Y-11124190D01*
X13403724Y-11124190D02*
X13422772Y-11095619D01*
X13422772Y-11095619D02*
X13432296Y-11076571D01*
X13432296Y-11076571D02*
X13441819Y-11048000D01*
X13441819Y-11048000D02*
X13451343Y-11000381D01*
X13451343Y-11000381D02*
X13451343Y-10962286D01*
X13451343Y-10962286D02*
X13441819Y-10914667D01*
X13441819Y-10914667D02*
X13432296Y-10886095D01*
X13432296Y-10886095D02*
X13422772Y-10867048D01*
X13422772Y-10867048D02*
X13403724Y-10838476D01*
X13403724Y-10838476D02*
X13394200Y-10828952D01*
X13756105Y-11133714D02*
X13746581Y-11124190D01*
X13746581Y-11124190D02*
X13727534Y-11095619D01*
X13727534Y-11095619D02*
X13718010Y-11076571D01*
X13718010Y-11076571D02*
X13708486Y-11048000D01*
X13708486Y-11048000D02*
X13698962Y-11000381D01*
X13698962Y-11000381D02*
X13698962Y-10962286D01*
X13698962Y-10962286D02*
X13708486Y-10914667D01*
X13708486Y-10914667D02*
X13718010Y-10886095D01*
X13718010Y-10886095D02*
X13727534Y-10867048D01*
X13727534Y-10867048D02*
X13746581Y-10838476D01*
X13746581Y-10838476D02*
X13756105Y-10828952D01*
X13832296Y-10924190D02*
X13832296Y-11057524D01*
X13832296Y-10943238D02*
X13841819Y-10933714D01*
X13841819Y-10933714D02*
X13860867Y-10924190D01*
X13860867Y-10924190D02*
X13889438Y-10924190D01*
X13889438Y-10924190D02*
X13908486Y-10933714D01*
X13908486Y-10933714D02*
X13918010Y-10952762D01*
X13918010Y-10952762D02*
X13918010Y-11057524D01*
X14041819Y-11057524D02*
X14022772Y-11048000D01*
X14022772Y-11048000D02*
X14013248Y-11038476D01*
X14013248Y-11038476D02*
X14003724Y-11019429D01*
X14003724Y-11019429D02*
X14003724Y-10962286D01*
X14003724Y-10962286D02*
X14013248Y-10943238D01*
X14013248Y-10943238D02*
X14022772Y-10933714D01*
X14022772Y-10933714D02*
X14041819Y-10924190D01*
X14041819Y-10924190D02*
X14070391Y-10924190D01*
X14070391Y-10924190D02*
X14089438Y-10933714D01*
X14089438Y-10933714D02*
X14098962Y-10943238D01*
X14098962Y-10943238D02*
X14108486Y-10962286D01*
X14108486Y-10962286D02*
X14108486Y-11019429D01*
X14108486Y-11019429D02*
X14098962Y-11038476D01*
X14098962Y-11038476D02*
X14089438Y-11048000D01*
X14089438Y-11048000D02*
X14070391Y-11057524D01*
X14070391Y-11057524D02*
X14041819Y-11057524D01*
X14165629Y-10924190D02*
X14241819Y-10924190D01*
X14194200Y-10857524D02*
X14194200Y-11028952D01*
X14194200Y-11028952D02*
X14203724Y-11048000D01*
X14203724Y-11048000D02*
X14222772Y-11057524D01*
X14222772Y-11057524D02*
X14241819Y-11057524D01*
X14460867Y-10924190D02*
X14460867Y-11124190D01*
X14460867Y-10933714D02*
X14479915Y-10924190D01*
X14479915Y-10924190D02*
X14518010Y-10924190D01*
X14518010Y-10924190D02*
X14537058Y-10933714D01*
X14537058Y-10933714D02*
X14546581Y-10943238D01*
X14546581Y-10943238D02*
X14556105Y-10962286D01*
X14556105Y-10962286D02*
X14556105Y-11019429D01*
X14556105Y-11019429D02*
X14546581Y-11038476D01*
X14546581Y-11038476D02*
X14537058Y-11048000D01*
X14537058Y-11048000D02*
X14518010Y-11057524D01*
X14518010Y-11057524D02*
X14479915Y-11057524D01*
X14479915Y-11057524D02*
X14460867Y-11048000D01*
X14670391Y-11057524D02*
X14651343Y-11048000D01*
X14651343Y-11048000D02*
X14641819Y-11028952D01*
X14641819Y-11028952D02*
X14641819Y-10857524D01*
X14832296Y-11057524D02*
X14832296Y-10952762D01*
X14832296Y-10952762D02*
X14822772Y-10933714D01*
X14822772Y-10933714D02*
X14803724Y-10924190D01*
X14803724Y-10924190D02*
X14765629Y-10924190D01*
X14765629Y-10924190D02*
X14746581Y-10933714D01*
X14832296Y-11048000D02*
X14813248Y-11057524D01*
X14813248Y-11057524D02*
X14765629Y-11057524D01*
X14765629Y-11057524D02*
X14746581Y-11048000D01*
X14746581Y-11048000D02*
X14737058Y-11028952D01*
X14737058Y-11028952D02*
X14737058Y-11009905D01*
X14737058Y-11009905D02*
X14746581Y-10990857D01*
X14746581Y-10990857D02*
X14765629Y-10981333D01*
X14765629Y-10981333D02*
X14813248Y-10981333D01*
X14813248Y-10981333D02*
X14832296Y-10971810D01*
X14898962Y-10924190D02*
X14975153Y-10924190D01*
X14927534Y-10857524D02*
X14927534Y-11028952D01*
X14927534Y-11028952D02*
X14937058Y-11048000D01*
X14937058Y-11048000D02*
X14956105Y-11057524D01*
X14956105Y-11057524D02*
X14975153Y-11057524D01*
X15118010Y-11048000D02*
X15098962Y-11057524D01*
X15098962Y-11057524D02*
X15060867Y-11057524D01*
X15060867Y-11057524D02*
X15041819Y-11048000D01*
X15041819Y-11048000D02*
X15032296Y-11028952D01*
X15032296Y-11028952D02*
X15032296Y-10952762D01*
X15032296Y-10952762D02*
X15041819Y-10933714D01*
X15041819Y-10933714D02*
X15060867Y-10924190D01*
X15060867Y-10924190D02*
X15098962Y-10924190D01*
X15098962Y-10924190D02*
X15118010Y-10933714D01*
X15118010Y-10933714D02*
X15127534Y-10952762D01*
X15127534Y-10952762D02*
X15127534Y-10971810D01*
X15127534Y-10971810D02*
X15032296Y-10990857D01*
X15298962Y-11057524D02*
X15298962Y-10857524D01*
X15298962Y-11048000D02*
X15279915Y-11057524D01*
X15279915Y-11057524D02*
X15241819Y-11057524D01*
X15241819Y-11057524D02*
X15222772Y-11048000D01*
X15222772Y-11048000D02*
X15213248Y-11038476D01*
X15213248Y-11038476D02*
X15203724Y-11019429D01*
X15203724Y-11019429D02*
X15203724Y-10962286D01*
X15203724Y-10962286D02*
X15213248Y-10943238D01*
X15213248Y-10943238D02*
X15222772Y-10933714D01*
X15222772Y-10933714D02*
X15241819Y-10924190D01*
X15241819Y-10924190D02*
X15279915Y-10924190D01*
X15279915Y-10924190D02*
X15298962Y-10933714D01*
X15375153Y-11133714D02*
X15384677Y-11124190D01*
X15384677Y-11124190D02*
X15403724Y-11095619D01*
X15403724Y-11095619D02*
X15413248Y-11076571D01*
X15413248Y-11076571D02*
X15422772Y-11048000D01*
X15422772Y-11048000D02*
X15432296Y-11000381D01*
X15432296Y-11000381D02*
X15432296Y-10962286D01*
X15432296Y-10962286D02*
X15422772Y-10914667D01*
X15422772Y-10914667D02*
X15413248Y-10886095D01*
X15413248Y-10886095D02*
X15403724Y-10867048D01*
X15403724Y-10867048D02*
X15384677Y-10838476D01*
X15384677Y-10838476D02*
X15375153Y-10828952D01*
M02*
